<svg width="51" height="15" viewBox="0 0 51 15" fill="none" xmlns="http://www.w3.org/2000/svg">
<path d="M0 14.7443V0.198799H9.631V2.7344H3.075V6.2003H8.992V8.7358H3.075V14.7443H0ZM16.856 14.7443H11.699V0.198799H16.898C18.361 0.198799 19.621 0.489999 20.677 1.0724C21.733 1.6501 22.545 2.481 23.113 3.5653C23.686 4.6496 23.972 5.947 23.972 7.4574C23.972 8.9725 23.686 10.2746 23.113 11.3636C22.545 12.4526 21.728 13.2883 20.662 13.8707C19.602 14.4531 18.333 14.7443 16.856 14.7443ZM14.775 12.1094H16.728C17.637 12.1094 18.402 11.9484 19.022 11.6264C19.647 11.2997 20.116 10.7954 20.428 10.1136C20.745 9.4271 20.904 8.5416 20.904 7.4574C20.904 6.3826 20.745 5.5042 20.428 4.8224C20.116 4.1406 19.649 3.6387 19.029 3.3167C18.409 2.9948 17.644 2.8338 16.735 2.8338H14.775V12.1094ZM31.591 14.9432C30.497 14.9432 29.524 14.7656 28.672 14.4105C27.825 14.0506 27.159 13.5606 26.676 12.9403C26.193 12.3201 25.952 11.6169 25.952 10.8309C25.952 10.2249 26.089 9.6685 26.364 9.1619C26.643 8.6505 27.022 8.2268 27.5 7.8906C27.978 7.5497 28.513 7.3319 29.105 7.2372V7.1378C28.329 6.9815 27.699 6.6051 27.216 6.0085C26.733 5.4072 26.492 4.7088 26.492 3.9133C26.492 3.1605 26.712 2.4905 27.152 1.9034C27.593 1.3115 28.196 0.847499 28.963 0.511299C29.735 0.170399 30.611 0 31.591 0C32.571 0 33.445 0.170399 34.212 0.511299C34.984 0.852299 35.59 1.3186 36.03 1.9105C36.47 2.4976 36.693 3.1652 36.698 3.9133C36.693 4.7135 36.447 5.4119 35.959 6.0085C35.471 6.6051 34.846 6.9815 34.084 7.1378V7.2372C34.666 7.3319 35.194 7.5497 35.668 7.8906C36.146 8.2268 36.525 8.6505 36.804 9.1619C37.088 9.6685 37.233 10.2249 37.237 10.8309C37.233 11.6169 36.989 12.3201 36.506 12.9403C36.023 13.5606 35.355 14.0506 34.503 14.4105C33.655 14.7656 32.685 14.9432 31.591 14.9432ZM31.591 12.6846C32.079 12.6846 32.505 12.597 32.87 12.4219C33.234 12.2419 33.518 11.9957 33.722 11.6832C33.93 11.366 34.034 11.0014 34.034 10.5895C34.034 10.1681 33.928 9.7964 33.715 9.4744C33.502 9.1477 33.213 8.892 32.848 8.7074C32.484 8.518 32.065 8.4233 31.591 8.4233C31.122 8.4233 30.703 8.518 30.334 8.7074C29.965 8.892 29.673 9.1477 29.46 9.4744C29.252 9.7964 29.148 10.1681 29.148 10.5895C29.148 11.0014 29.25 11.366 29.453 11.6832C29.657 11.9957 29.943 12.2419 30.313 12.4219C30.682 12.597 31.108 12.6846 31.591 12.6846ZM31.591 6.1861C31.998 6.1861 32.361 6.1032 32.678 5.9375C32.995 5.7718 33.244 5.5421 33.423 5.2486C33.603 4.955 33.693 4.6165 33.693 4.2329C33.693 3.8541 33.603 3.5227 33.423 3.2386C33.244 2.9498 32.997 2.7249 32.685 2.5639C32.372 2.3982 32.008 2.3153 31.591 2.3153C31.179 2.3153 30.815 2.3982 30.497 2.5639C30.18 2.7249 29.932 2.9498 29.752 3.2386C29.576 3.5227 29.489 3.8541 29.489 4.2329C29.489 4.6165 29.579 4.955 29.759 5.2486C29.939 5.5421 30.187 5.7718 30.504 5.9375C30.822 6.1032 31.184 6.1861 31.591 6.1861ZM44.814 14.9432C43.72 14.9432 42.747 14.7656 41.895 14.4105C41.047 14.0506 40.382 13.5606 39.899 12.9403C39.416 12.3201 39.175 11.6169 39.175 10.8309C39.175 10.2249 39.312 9.6685 39.586 9.1619C39.866 8.6505 40.245 8.2268 40.723 7.8906C41.201 7.5497 41.736 7.3319 42.328 7.2372V7.1378C41.551 6.9815 40.922 6.6051 40.439 6.0085C39.956 5.4072 39.714 4.7088 39.714 3.9133C39.714 3.1605 39.934 2.4905 40.375 1.9034C40.815 1.3115 41.419 0.847499 42.186 0.511299C42.958 0.170399 43.834 0 44.814 0C45.794 0 46.667 0.170399 47.434 0.511299C48.206 0.852299 48.812 1.3186 49.253 1.9105C49.693 2.4976 49.916 3.1652 49.92 3.9133C49.916 4.7135 49.669 5.4119 49.182 6.0085C48.694 6.6051 48.069 6.9815 47.307 7.1378V7.2372C47.889 7.3319 48.417 7.5497 48.89 7.8906C49.369 8.2268 49.747 8.6505 50.027 9.1619C50.311 9.6685 50.455 10.2249 50.46 10.8309C50.455 11.6169 50.211 12.3201 49.729 12.9403C49.246 13.5606 48.578 14.0506 47.726 14.4105C46.878 14.7656 45.908 14.9432 44.814 14.9432ZM44.814 12.6846C45.301 12.6846 45.728 12.597 46.092 12.4219C46.457 12.2419 46.741 11.9957 46.944 11.6832C47.153 11.366 47.257 11.0014 47.257 10.5895C47.257 10.1681 47.15 9.7964 46.937 9.4744C46.724 9.1477 46.435 8.892 46.071 8.7074C45.706 8.518 45.287 8.4233 44.814 8.4233C44.345 8.4233 43.926 8.518 43.557 8.7074C43.187 8.892 42.896 9.1477 42.683 9.4744C42.475 9.7964 42.371 10.1681 42.371 10.5895C42.371 11.0014 42.472 11.366 42.676 11.6832C42.88 11.9957 43.166 12.2419 43.535 12.4219C43.905 12.597 44.331 12.6846 44.814 12.6846ZM44.814 6.1861C45.221 6.1861 45.583 6.1032 45.9 5.9375C46.218 5.7718 46.466 5.5421 46.646 5.2486C46.826 4.955 46.916 4.6165 46.916 4.2329C46.916 3.8541 46.826 3.5227 46.646 3.2386C46.466 2.9498 46.22 2.7249 45.908 2.5639C45.595 2.3982 45.23 2.3153 44.814 2.3153C44.402 2.3153 44.037 2.3982 43.72 2.5639C43.403 2.7249 43.154 2.9498 42.974 3.2386C42.799 3.5227 42.711 3.8541 42.711 4.2329C42.711 4.6165 42.801 4.955 42.981 5.2486C43.161 5.5421 43.41 5.7718 43.727 5.9375C44.044 6.1032 44.407 6.1861 44.814 6.1861Z" fill="white"/>
</svg>
