<svg width="168" height="88" viewBox="0 0 168 88" fill="none" xmlns="http://www.w3.org/2000/svg">
<path d="M26.6624 25.1381C26.9689 24.9673 28.262 22.6907 28.6508 22.1878C30.8949 19.2834 34.2376 17.0682 37.6333 15.731C43.7082 13.3631 50.4783 13.5256 56.4324 16.1825C59.9826 17.7315 64.5888 21.0931 66.0416 24.8164L65.8633 24.7553L65.7729 24.8196L65.9865 25.0913C67.0701 25.3805 69.4062 23.0641 70.5177 22.9334C70.8903 22.8896 70.975 22.8527 71.3378 22.7488C70.3377 23.6636 67.7316 25.0731 66.473 25.7641C67.4746 28.3541 67.8512 32.6923 67.1098 35.3138C66.8674 35.5331 66.4989 35.45 66.4316 35.4966C66.1799 35.6705 66.0149 37.6155 65.9808 37.8793L64.5758 37.9093C66.4738 40.4023 64.5693 41.6853 64.0906 44.0753C64.8563 46.85 66.8195 45.7446 67.8658 48.2915C67.7491 50.3167 67.1552 50.5648 65.391 51.4343C65.0266 54.2082 63.8701 55.0814 61.0832 55.0088C61.2218 57.2488 62.052 58.6944 62.1392 60.5238C62.6195 60.6892 63.3536 60.9198 63.8012 61.1091L63.5936 61.1951L63.6078 61.2802C63.3966 61.4926 63.3265 61.4841 63.3143 61.7265L61.9174 61.279C61.3349 62.7695 59.6668 63.7031 58.6558 64.8969C58.1917 65.4445 57.9598 66.1365 57.5273 66.7052C57.2658 67.0489 57.1418 66.6286 56.886 67.0287C56.4895 67.6485 56.1749 68.3461 55.7039 68.9108C55.6159 69.0364 55.0829 69.0567 55.0298 69.1998C54.7614 69.9209 55.0873 71.0393 54.6966 71.7309C53.2421 74.3033 48.993 74.5445 46.5653 73.3734C46.0448 73.6053 45.4999 73.7788 44.9409 73.8907C43.1204 74.2518 41.1305 74.0354 39.5297 73.009C38.1944 72.1525 38.209 70.7726 37.9199 69.3169C37.8908 69.2926 37.862 69.2683 37.8328 69.244C37.2867 68.9314 36.3025 67.1799 35.9466 66.8467C35.4184 66.3533 30.933 61.2247 30.8856 61.193C30.9999 60.9296 31.0562 60.9129 31.0246 60.6519L30.6638 60.5124C30.7335 60.4918 30.9018 60.3924 30.9074 60.3543C31.0963 59.0892 31.9132 56.034 32.3072 55.0084C29.4295 54.9881 28.0986 54.4595 27.5303 51.4112C25.9782 50.6366 25.5825 50.5308 25.1548 48.8092C26.1354 45.7868 28.0828 46.9773 29.0622 43.8577C28.2628 41.5406 26.917 40.7712 28.2271 38.185L27.0548 37.8984C26.9656 37.2595 26.874 36.3767 26.6693 35.7589C26.5712 35.463 26.3373 35.4573 26.039 35.3641C25.5412 34.7191 25.5278 30.1264 25.7159 29.1048C25.8253 28.5094 26.3697 26.2642 26.3483 25.8648L26.1322 25.6937C26.3795 25.5787 26.4958 25.3651 26.6624 25.1381Z" fill="#1B1A1A"/>
<path d="M27.4016 35.2099C26.0266 28.9616 27.779 23.904 32.8404 20.0367C41.9763 13.0555 55.9372 14.1897 63.3741 23.1082C65.6965 25.8935 66.4018 29.7581 65.9381 33.2645L65.6044 33.6488C65.2396 34.4413 65.1577 34.7591 65.0235 35.644C64.9307 36.1232 64.786 35.8897 64.6814 36.3984L64.5975 37.0871L64.6157 37.3004C64.3271 37.5391 64.4674 37.4832 64.0827 37.5022C63.895 37.3948 63.8885 37.4293 63.7945 37.2683C63.3011 36.803 62.8337 36.3015 62.3643 35.811C62.5873 34.8005 63.3538 33.2114 63.983 32.4344L63.8285 32.3882C63.0003 32.9172 61.798 34.5427 61.4072 35.4353C61.2074 35.8913 61.0335 35.5176 60.7031 36.0032C60.344 38.2915 64.3648 37.7568 63.9603 40.1788C63.5346 42.4286 61.798 43.7663 63.3952 45.9982C64.1455 47.0473 66.6556 48.1106 66.3463 48.9331C65.7419 50.5383 61.2601 51.0511 59.6702 51.1079C59.2219 51.1241 58.6069 51.0252 58.4926 51.212C59.4132 51.81 62.428 51.4889 62.8297 51.801C62.9663 51.902 63.1824 52.0759 63.3315 52.1367L63.6712 52.1225L63.777 52.2591C63.6631 52.626 63.5496 52.8453 63.3818 53.1878C59.2969 54.8388 56.6336 50.1301 52.8507 51.7767C52.4474 51.9522 52.0193 52.2923 51.8924 52.7346L51.9528 52.8396C52.0902 52.7427 52.2293 52.6487 52.3703 52.557C53.2848 51.9571 54.0802 51.8987 55.1285 52.118L55.2027 52.1338C55.6145 52.2356 55.5099 52.1492 55.7094 52.4164L55.7045 52.748L55.5419 52.827L55.9412 53.5518C54.3793 54.8988 54.7482 55.7213 55.6733 57.3367C54.6055 58.327 53.0854 58.4368 52.798 58.9553C53.1332 59.0048 53.1778 58.9525 53.3862 59.1584L53.3157 59.3303L53.7766 59.6112L54.0133 59.3745L53.9655 59.0903L54.1142 58.9735C54.9469 59.1142 54.6757 60.3721 54.4957 60.9359L54.4037 61.0644L54.4203 61.1512C54.2748 61.5103 54.1811 61.666 54.2456 62.0478C53.8325 62.5671 54.1422 62.9485 53.9363 63.4034L53.4425 63.8578L53.5913 63.9048L53.5378 63.9324C53.012 64.2104 52.8511 64.5878 52.2678 64.4403C52.1328 64.1476 52.1656 64.2696 52.2143 63.891L52.2013 63.6332C52.0298 63.5469 51.9715 63.5671 51.7821 63.5813C51.1863 63.8172 50.7861 63.8079 50.1558 63.8432L49.9572 63.8934C49.827 64.7115 49.9122 66.2206 48.7828 66.1546L48.5639 66.0163L48.4926 66.0484C48.2696 65.8165 48.3552 65.4079 48.2056 64.9073L48.1812 64.8282C48.0073 65.3787 47.9972 65.6377 47.4463 65.8696C46.7292 65.6276 46.6814 64.7366 46.8642 64.1075L47.0795 63.9936C46.9526 63.8874 47.0073 63.934 46.7965 63.9084C46.548 64.1176 46.6125 64.0913 46.4896 64.4338L46.4718 64.4346C46.5217 64.1569 46.4049 64.4853 46.3814 64.0037C46.3052 64.5732 46.2975 65.8327 45.5715 65.8899C45.2026 65.6941 45.1085 65.4906 44.9379 65.1063C44.7571 65.4521 44.7688 65.585 44.7445 65.9722L44.6063 66.0905L44.1097 66.2024C43.7635 66.1586 43.5511 65.8903 43.2909 65.6418C43.273 65.0532 43.2584 64.5214 43.2005 63.9336L43.0112 63.863C42.9913 64.0483 42.9293 64.7703 42.8968 64.9109C43.0286 65.5157 42.6078 66.2989 42.0233 66.0958C41.2656 65.8327 41.1781 64.3519 40.8801 63.6701C40.7533 64.0422 40.7208 64.1671 40.3613 64.2862L40.1991 64.1504C40.0167 63.6069 40.0199 62.9895 40.5688 62.7041L40.7322 62.5926C39.8716 61.7754 40.1197 60.8074 40.7383 59.9124L40.7002 59.6047C40.6539 59.5621 40.5948 59.5054 40.5708 59.4535C40.1156 58.4632 38.8695 58.2443 37.9631 57.8515C37.8755 57.8138 37.7414 57.6934 37.6988 57.5884C37.4844 57.0594 38.073 56.1003 38.336 55.532C37.4163 52.8813 37.1795 53.8935 35.6371 53.0783L35.6849 52.9373L35.946 52.8525L35.8061 52.7322C35.7713 52.3475 35.8029 52.4253 35.9902 52.0333C34.3431 52.7224 32.2652 53.9178 30.4269 53.5064C30.0097 53.4132 29.2724 52.7034 29.2322 52.2279L29.3543 52.101C29.5444 52.116 29.6328 52.1168 29.82 52.1728L29.9518 52.1132L30.0677 51.7775C31.1192 51.6405 32.0427 51.7106 33.2158 51.5011C32.8676 51.0977 32.7586 51.1585 32.1724 51.069C30.6162 50.6867 28.6197 50.471 27.2009 49.6554C25.4814 48.6672 28.2735 47.357 28.9432 46.8045C29.7929 46.1032 30.3823 45.0801 30.3328 43.9508C30.3592 42.3897 28.6112 40.7435 29.2189 39.2356C29.709 38.0191 31.898 37.9502 32.3479 36.687C32.4407 36.424 32.4416 35.8613 32.3053 35.5994C32.1829 35.6384 31.9393 36.2541 31.8067 36.4803C31.6389 36.2703 31.7026 35.6112 31.7018 35.2756C30.8428 34.1024 29.9096 32.9853 28.9084 31.9313C29.4009 32.9589 30.4447 34.5941 30.5939 35.7117C30.6328 36.0012 29.5075 37.0624 29.2079 37.3664C28.9975 37.5107 28.9513 37.4406 28.6327 37.3859C28.1657 37.1556 27.839 33.9654 27.7571 33.3201C27.6582 34.0303 27.5678 34.5123 27.4016 35.2099Z" fill="white"/>
<path d="M40.7023 59.6036C41.1207 58.9522 41.2492 58.9076 41.8581 58.4516C42.1402 58.769 42.6781 59.5015 42.9716 59.7033C43.1893 59.6705 43.3068 59.6146 43.4901 59.4889C43.7965 59.2603 44.2765 60.1367 44.4942 60.0146C45.4188 59.497 45.6746 59.1918 46.3698 60.1399C46.7837 60.2838 46.8704 59.7337 47.4015 59.6073C47.6033 59.4532 48.5069 60.0021 48.5406 59.9932C49.3225 59.7917 49.2808 59.0555 50.0777 59.7957C50.1454 59.7868 50.2131 59.7775 50.2808 59.7682C50.6084 59.2116 50.8232 58.8857 51.2979 58.4791L51.3368 58.4463C51.7045 58.8042 52.1196 59.4856 52.4905 59.634L52.6599 59.5347L52.8002 58.9542C53.1354 59.0037 53.18 58.9514 53.3884 59.1573L53.3178 59.3292L53.7788 59.6101L54.0155 59.3734L53.9677 59.0892L54.1164 58.9725C54.9491 59.1131 54.6779 60.371 54.4979 60.9348L54.4059 61.0633L54.4225 61.1501C54.277 61.5092 54.1833 61.6649 54.2478 62.0467C53.8347 62.566 54.1444 62.9475 53.9385 63.4023L53.4447 63.8567L53.5935 63.9037L53.54 63.9313C53.0142 64.2094 52.8533 64.5867 52.27 64.4392C52.135 64.1465 52.1678 64.2685 52.2165 63.8899L52.2035 63.6321C52.032 63.5458 51.9736 63.566 51.7843 63.5802C51.1884 63.8161 50.7883 63.8068 50.158 63.8421L49.9594 63.8924C49.8292 64.7104 49.9144 66.2195 48.785 66.1535L48.5661 66.0152L48.4948 66.0473C48.2718 65.8154 48.3573 65.4068 48.2078 64.9062L48.1834 64.8271C48.0095 65.3776 47.9994 65.6366 47.4485 65.8685C46.7314 65.6265 46.6836 64.7355 46.8664 64.1064L47.0816 63.9925C46.9548 63.8863 47.0095 63.9329 46.7987 63.9074C46.5502 64.1165 46.6147 64.0902 46.4918 64.4327L46.474 64.4335C46.5239 64.1558 46.4071 64.4842 46.3836 64.0026C46.3074 64.5722 46.2997 65.8316 45.5737 65.8888C45.2048 65.693 45.1107 65.4895 44.9401 65.1052C44.7593 65.451 44.771 65.5839 44.7467 65.9711L44.6085 66.0894L44.1119 66.2013C43.7657 66.1575 43.5533 65.8892 43.2931 65.6407C43.2752 65.0521 43.2606 64.5203 43.2027 63.9325L43.0134 63.862C42.9935 64.0472 42.9315 64.7692 42.899 64.9098C43.0308 65.5146 42.61 66.2978 42.0255 66.0947C41.2678 65.8316 41.1803 64.3508 40.8823 63.669C40.7554 64.0411 40.723 64.166 40.3634 64.2852L40.2013 64.1494C40.0189 63.6058 40.0221 62.9884 40.571 62.703L40.7344 62.5915C39.8738 61.7743 40.1219 60.8063 40.7404 59.9113L40.7023 59.6036Z" fill="#040304"/>
<path d="M41.0795 63.5928C41.812 63.7549 42.264 63.7959 43.0115 63.8619C42.9916 64.0472 42.9296 64.7691 42.8971 64.9098C42.7674 65.3022 42.735 65.4826 42.4379 65.7704C42.1083 65.8819 42.2477 65.8867 41.9166 65.7424C41.3507 65.0622 41.2781 64.4473 41.0795 63.5928Z" fill="#F0EFF0"/>
<path d="M43.2009 63.932L44.5269 63.8906C44.6144 64.8546 44.5776 65.1999 44.6067 66.0889L44.1102 66.2008C43.764 66.157 43.5516 65.8887 43.2913 65.6402C43.2735 65.0516 43.2589 64.5197 43.2009 63.932Z" fill="white"/>
<path d="M48.5092 63.9039C49.1115 63.9611 49.3657 63.9396 49.9572 63.8926C49.827 64.7106 49.9122 66.2198 48.7828 66.1537L48.5639 66.0155C48.3661 64.9615 48.664 64.4585 48.5092 63.9039Z" fill="#F0EFF0"/>
<path d="M47.0802 63.9934C47.5488 64.0246 47.852 64.0668 48.3105 63.9707L48.182 64.828C48.0081 65.3785 47.998 65.6376 47.4471 65.8694C46.73 65.6274 46.6821 64.7364 46.8649 64.1073L47.0802 63.9934Z" fill="#F0EFF0"/>
<path d="M44.8123 64.0256C45.3376 64.0585 45.8553 64.0256 46.381 64.0029C46.3048 64.5725 46.2971 65.8319 45.5711 65.8891C45.2022 65.6933 45.1082 65.4898 44.9375 65.1055L44.8123 64.0256Z" fill="#F0EFF0"/>
<path d="M53.3143 59.3291L53.7752 59.61C53.8952 60.1528 54.082 61.0203 53.5944 61.4277L53.3917 61.4033C52.8907 60.8148 53.1225 60.0028 53.3143 59.3291Z" fill="white"/>
<path d="M40.7315 62.5924C39.8709 61.7752 40.119 60.8072 40.7376 59.9121C41.0732 60.4679 40.9159 61.9645 40.7315 62.5924Z" fill="white"/>
<path d="M52.2011 63.6327C52.2461 63.0737 52.634 62.9456 53.0925 62.6484C53.0544 63.173 53.0524 63.7109 52.84 64.1884L52.6563 64.338C52.3333 64.2127 52.4273 64.246 52.2141 63.8905L52.2011 63.6327Z" fill="#F0EFF0"/>
<path d="M54.0136 59.3736L53.9658 59.0894L54.1145 58.9727C54.9472 59.1133 54.676 60.3712 54.496 60.935C54.1997 60.5086 54.2086 59.9642 54.0136 59.3736Z" fill="white"/>
<path d="M40.8823 63.6681C40.7554 64.0403 40.723 64.1651 40.3634 64.2843L40.2013 64.1485C40.0189 63.6049 40.0221 62.9875 40.571 62.7021C40.6898 63.0191 40.8235 63.3357 40.8823 63.6681Z" fill="#F0EFF0"/>
<path d="M53.4446 63.8573C53.4134 63.6201 53.3858 63.3826 53.3611 63.1451C53.3197 62.7312 53.2926 62.4527 53.5581 62.126C53.8978 62.402 53.8828 62.9383 53.9383 63.4029L53.4446 63.8573Z" fill="#F0EFF0"/>
<path d="M47.3931 60.1582C48.9092 60.5782 49.0511 62.8117 47.953 63.4692C47.6368 63.5004 47.4823 63.5475 47.1974 63.4129C46.368 62.6281 46.8171 60.9551 47.3931 60.1582Z" fill="white"/>
<path d="M45.1498 60.1172C45.7104 60.1825 45.8564 60.5019 46.1718 60.9308C46.2407 61.5911 46.5508 63.1898 45.9058 63.5372C45.571 63.5312 45.254 63.5093 44.9208 63.487C44.1457 62.9207 44.7663 60.814 45.1498 60.1172Z" fill="white"/>
<path d="M51.3368 59.2119C52.0507 59.5082 51.9396 62.1654 51.8395 62.8415C51.6376 63.0361 51.3267 62.9895 50.9785 63.0175C50.9132 63.0479 50.7932 63.0511 50.715 63.0592C50.6144 62.9502 50.5922 62.9242 50.5638 62.773C50.3254 61.5302 50.6047 60.244 51.3368 59.2119Z" fill="white"/>
<path d="M43.2538 60.0811C43.7159 60.1646 43.8594 60.3758 44.174 60.7138C44.1687 61.2773 44.3057 62.9798 44.0552 63.373L43.7475 63.4111C43.3774 63.3637 42.9879 63.2887 42.6186 63.2238C42.7341 61.863 42.7905 61.3543 43.2538 60.0811Z" fill="white"/>
<path d="M41.5475 59.2012C42.856 59.7529 42.5479 61.9601 42.162 63.0319C41.8685 63.0254 41.7506 63.0424 41.4765 62.9269C40.9293 62.3829 41.2106 59.8445 41.5475 59.2012Z" fill="white"/>
<path d="M49.462 60.1143C50.3818 60.5131 50.4227 62.4135 50.1515 63.2315C50.128 63.3037 49.8836 63.3604 49.798 63.39C49.4393 63.4151 49.3152 63.4212 48.9504 63.3847C48.7088 63.0175 48.9816 61.2245 49.0193 60.7409C49.0384 60.4921 49.2755 60.2776 49.462 60.1143Z" fill="white"/>
<path d="M52.2894 59.9043C53.1318 60.2233 52.9749 61.8723 52.7531 62.5546C52.6145 62.5821 52.5359 62.572 52.3952 62.5704C52.0575 62.1042 52.1641 60.4682 52.2894 59.9043Z" fill="#F0EFF0"/>
<path d="M63.9831 32.4336C63.8137 32.9962 63.7663 33.4815 64.292 33.9059C64.6913 34.5528 64.8291 35.3802 65.0237 35.6433C64.9309 36.1224 64.7862 35.8889 64.6816 36.3976L64.5977 37.0864L64.6159 37.2996C64.3273 37.5383 64.4676 37.4824 64.0829 37.5015C63.8952 37.394 63.8887 37.4285 63.7946 37.2676C63.3013 36.8022 62.8339 36.3008 62.3645 35.8103C62.5875 34.7997 63.354 33.2107 63.9831 32.4336Z" fill="#F0EFF0"/>
<path d="M64.2929 33.9053C64.6922 34.5522 64.8301 35.3796 65.0246 35.6427C64.9318 36.1218 64.7871 35.8883 64.6825 36.397L64.5986 37.0858C64.0603 36.7728 64.0465 35.3289 63.8446 34.5916L64.0834 34.32L64.2929 33.9053Z" fill="#F0EFF0"/>
<path d="M64.293 33.9053C64.6923 34.5522 64.8301 35.3796 65.0247 35.6427C64.9319 36.1218 64.7872 35.8883 64.6826 36.397C64.6514 35.7481 64.4641 34.8615 64.0834 34.32L64.293 33.9053Z" fill="#1B211D"/>
<path d="M63.8438 34.5918C64.0457 35.3292 64.0595 36.7731 64.5978 37.086L64.6161 37.2992C64.3274 37.538 64.4677 37.482 64.083 37.5011C63.8953 37.3937 63.8888 37.4281 63.7948 37.2672C63.9914 36.859 63.5167 35.7183 63.8438 34.5918Z" fill="#1B211D"/>
<path d="M35.9908 52.032C38.6497 51.0843 39.9172 50.8853 41.7811 53.298C40.1284 52.1285 39.8617 51.6798 37.8036 52.1638C38.4932 52.6064 39.2164 52.923 39.2666 53.8395C38.7425 53.7889 37.7076 52.1934 35.9466 52.8513L35.8068 52.7309C35.7719 52.3462 35.8036 52.424 35.9908 52.032Z" fill="#040304"/>
<path d="M55.2045 52.1328C55.6163 52.2346 55.5117 52.1482 55.7112 52.4154L55.7063 52.7469L55.5437 52.826C55.0857 52.9788 54.026 53.7417 53.4999 54.0551C54.1035 52.9062 54.1314 52.8564 55.2045 52.1328Z" fill="#040304"/>
<path d="M28.6326 37.3841C29.2054 36.2029 28.7927 34.9467 28.8194 33.6689C29.0083 34.3017 29.2674 35.0585 29.3659 35.7132C29.4482 36.2596 29.031 36.9305 29.2078 37.3646C28.9974 37.509 28.9512 37.4388 28.6326 37.3841Z" fill="#333634"/>
<path d="M29.8223 52.1726L29.954 52.113L30.0699 51.7773C30.5523 52.1827 31.5451 52.4993 32.2143 52.9172C31.7084 52.8118 30.1636 52.5159 29.8223 52.1726Z" fill="#2C272C"/>
<path d="M32.1722 51.067C33.1982 51.022 34.0073 51.0196 35.0369 51.0662C34.4731 51.2137 33.7811 51.4164 33.2156 51.4991C32.8674 51.0958 32.7583 51.1566 32.1722 51.067Z" fill="#333634"/>
<path d="M62.8297 51.8008C62.9663 51.9017 63.1824 52.0756 63.3315 52.1364C62.6578 52.4607 61.7928 52.7027 61.0671 52.9285C61.558 52.5758 62.2909 52.1571 62.8297 51.8008Z" fill="#2C272C"/>
<path d="M43.4104 41.5289C44.6577 40.9877 45.751 39.7404 46.6274 38.71C47.4868 39.9046 48.4872 41.0444 49.8626 41.6387C50.2364 41.1908 50.8282 41.164 51.354 41.3201L51.6386 41.5763C53.3825 40.68 62.935 36.2976 61.8121 42.13C61.603 42.7458 61.1449 43.5541 61.1749 44.212C61.2462 45.7925 62.5811 47.3321 60.5198 48.2526C60.1388 48.4229 59.4038 48.4833 59.2174 48.5546C57.9372 49.0447 52.172 47.0702 51.7038 47.4261L51.6949 47.8728C50.8299 47.7471 49.7418 45.1475 49.1557 44.4759L48.8902 44.6279L48.5902 44.7791L48.3206 44.6461C48.3206 44.6461 48.4394 43.8354 48.2367 43.8354C48.0341 43.8354 48.3206 43.1734 48.3206 43.1734L48.0341 43.2274L47.6287 43.8354C47.3052 43.4864 46.9898 42.884 46.4746 42.8791C46.1122 42.8759 45.4607 43.2715 45.2633 43.5682C45.4393 44.1755 45.404 44.8768 45.2443 45.4852C44.9289 45.1816 45.0777 43.6412 44.8174 43.1167L44.637 43.5435L44.2142 43.8625C43.6374 44.4629 43.0816 46.4236 41.966 47.4581C41.3795 47.634 41.118 47.2729 40.6952 47.3641C38.2537 47.8919 33.6235 49.7991 31.6421 47.5554C31.0738 46.9117 31.8821 44.8354 32.0876 43.9392C31.7438 43.2002 31.2533 42.3688 31.1216 41.5641C31.0409 41.0749 31.107 40.6054 31.4147 40.2045C31.7909 39.7145 32.4358 39.4104 33.0216 39.2617C36.8722 38.2823 41.6085 42.5362 43.984 42.1941C44.7623 42.0822 45.6557 41.5629 46.111 40.9151C46.2577 40.7068 46.2618 40.4879 46.2253 40.2447L46.0351 40.1255C45.2025 41.1612 44.8912 41.6047 43.5174 41.7583C43.4055 41.7705 43.294 41.7822 43.1817 41.7924C42.5323 41.5362 42.0962 41.3294 41.4739 41.012C42.0731 41.1636 42.8412 41.3375 43.4104 41.5289Z" fill="#1B1A1A"/>
<path d="M43.4125 41.5289C44.6599 40.9877 45.7531 39.7404 46.6295 38.71C47.4889 39.9046 48.4894 41.0444 49.8648 41.6387L49.9706 41.7088C48.6803 42.2711 47.604 40.5159 46.7584 39.9828L46.6194 40.1024C46.3231 40.0602 46.225 39.986 46.0373 40.1255C45.2047 41.1612 44.8933 41.6047 43.5195 41.7583C43.4077 41.7705 43.2962 41.7822 43.1839 41.7924C42.5345 41.5362 42.0983 41.3294 41.4761 41.012C42.0752 41.1636 42.8434 41.3375 43.4125 41.5289Z" fill="#1B1A1A"/>
<path d="M46.6167 40.101L46.7557 39.9814C47.6013 40.5145 48.6776 42.2697 49.9679 41.7075L49.8621 41.6374C50.2358 41.1894 50.8277 41.1627 51.3534 41.3187L51.638 41.5749C51.2752 41.7423 50.7357 41.9989 50.3651 42.106C49.5649 42.3293 48.7092 42.2304 47.9812 41.8303C47.2722 41.4335 46.8303 40.8716 46.6167 40.101Z" fill="#F0EFF0"/>
<path d="M45.9853 45.5264C46.1005 45.6354 46.2399 46.0424 46.3388 46.2406L46.5042 46.2572C46.6724 46.0355 46.732 45.9131 46.9874 45.8044C47.4649 45.9771 48.221 47.5033 48.6977 48.2411C49.5498 49.5589 50.8563 54.6304 47.9636 54.2818C47.5351 54.2303 47.1236 53.5574 46.908 53.1046C46.7868 52.7958 46.7393 52.6782 46.5594 52.3851L46.4487 52.3884L46.3895 52.5473C45.6789 54.4415 44.2443 55.2673 43.4295 53.099C42.5438 50.7418 45.0088 47.3777 45.9853 45.5264Z" fill="#1B1A1A"/>
<path d="M31.3047 31.2549C31.3676 31.3161 31.3809 31.3307 31.4085 31.4162C31.8913 32.8719 32.6951 34.4954 34.1634 35.1468C35.6527 35.8079 38.393 34.9704 39.211 36.6819C37.4128 35.5821 36.1011 36.1087 34.15 35.7135C32.7705 35.4342 30.9289 32.4726 31.3047 31.2549Z" fill="#040304"/>
<path d="M61.8535 31.667C61.9666 32.0947 60.9447 34.0226 60.6399 34.4279C59.3252 36.1763 56.4877 35.9947 54.4296 36.2415C54.3672 36.0413 54.3696 36.143 54.4503 35.9274C55.5509 35.3655 57.2157 35.5962 58.4026 35.3376C60.1271 34.9614 60.9593 33.0323 61.8535 31.667Z" fill="#040304"/>
<path d="M42.0805 35.5234C42.9038 35.6009 45.2367 38.0975 46.8477 37.8583C48.1777 37.6613 50.1202 35.6799 50.933 35.6033L50.9107 35.7727C50.5694 36.05 50.2252 36.324 49.8786 36.5948C49.1785 37.1384 47.1541 38.5547 46.2959 38.3736C45.2404 38.1506 42.676 36.3479 42.0805 35.5234Z" fill="#040304"/>
<path d="M42.7056 33.3926C43.1138 33.4449 45.4763 35.3432 46.4269 35.8207C48.2676 35.1482 48.3783 34.4883 49.9868 33.5677C50.211 33.4392 50.2049 33.4696 50.3934 33.5345L50.3366 33.6824C49.318 34.4198 47.4046 36.3274 46.3742 36.2646C45.4641 36.209 43.3051 34.1012 42.7056 33.3926Z" fill="#040304"/>
<path d="M49.8748 47.5889C50.57 47.9237 51.0001 48.4414 51.9871 48.7417C52.5214 48.9047 53.3127 48.8775 53.5125 49.017L53.4112 49.122C52.9057 49.2091 52.309 49.1605 51.7893 49.1402C51.8761 49.6891 52.2231 49.6477 52.3195 50.2383L52.2291 50.3303C52.1935 50.306 52.0151 50.182 51.992 50.1544C51.5449 49.6222 49.9303 48.1706 49.8748 47.5889Z" fill="#1B1A1A"/>
<path d="M42.8987 47.6729C43.0369 47.687 43.0333 47.6984 43.1517 47.7758C42.4005 48.8926 41.4714 49.8792 40.4012 50.6957C40.7567 50.0698 40.9517 49.8334 41.4049 49.2817C41.173 49.0349 39.5974 49.1269 39.0392 49.0981C41.0036 48.6863 41.3871 49.0045 42.8987 47.6729Z" fill="#1B1A1A"/>
<path d="M44.8179 43.1154L44.8669 42.9148L45.0457 42.9062C45.117 43.192 45.1312 43.3785 45.1588 43.6663L45.2638 43.567C45.4397 44.1742 45.4044 44.8755 45.2447 45.484C44.9294 45.1803 45.0781 43.64 44.8179 43.1154Z" fill="#333634"/>
<path d="M44.2173 43.861L44.6401 43.542C44.6637 45.3228 44.4107 46.1777 43.8436 47.8676C43.8302 46.7022 44.4646 44.3081 44.2173 43.861Z" fill="#333634"/>
<path d="M47.9903 43.2336L47.9412 43.0329L47.7625 43.0244C47.6911 43.3102 47.6769 43.4967 47.6494 43.7845L47.5444 43.6852C47.3685 44.2924 47.4037 44.9937 47.5634 45.6021C47.8788 45.2985 47.73 43.7581 47.9903 43.2336Z" fill="#333634"/>
<path d="M48.5922 43.9792L48.1694 43.6602C48.1459 45.4409 48.3989 46.2958 48.966 47.9858C48.9794 46.8204 48.3449 44.4263 48.5922 43.9792Z" fill="#333634"/>
<path d="M31.2669 24.1621L31.3444 24.2375C31.4206 24.7382 30.1141 27.0447 29.7983 27.6276L29.7294 27.4768C29.9689 26.3253 30.6228 25.139 31.2669 24.1621Z" fill="#1B1A1A"/>
<path d="M61.5168 24.0498C62.2991 24.4691 63.1829 26.6864 63.3324 27.5758C63.0244 27.4043 61.7203 24.5264 61.5168 24.0498Z" fill="#1B211D"/>
<path d="M32.4977 21.1299L32.5808 21.2192C32.5334 21.6633 30.5771 23.8035 30.1575 24.2788L30.0773 24.1694C30.0915 23.88 32.1483 21.4775 32.4977 21.1299Z" fill="#4D474D"/>
<path d="M53.0281 17.1184C53.7254 17.1019 56.3647 18.0946 56.94 18.6246C56.5954 18.6653 53.2195 17.3764 53.0281 17.1184Z" fill="#4D474D"/>
<path d="M54.735 37.9062L54.8047 37.9533L54.7796 38.0627C53.8172 38.5123 52.8617 38.9756 51.9128 39.4531L51.7883 39.4308C52.2322 38.6655 53.9181 38.0583 54.735 37.9062Z" fill="#1B1A1A"/>
<path d="M64.6097 26.2773C65.23 26.758 65.6297 29.4901 65.6207 30.2879C65.416 30.1193 64.6924 26.7551 64.6097 26.2773Z" fill="#1B211D"/>
<path d="M28.4023 25.9971L28.4952 26.1267C28.3764 27.2556 27.9658 28.7668 27.6771 29.8796C27.3387 29.4037 28.1547 26.5487 28.4023 25.9971Z" fill="#333634"/>
<path d="M38.1989 37.9916C39.2848 37.8607 40.6177 38.8214 41.5042 39.3925C40.6898 39.3188 38.9946 38.3949 38.1989 37.9916Z" fill="#1B1A1A"/>
<path d="M39.1991 17.3161C39.3434 17.2831 39.272 17.285 39.4131 17.3348C39.1192 17.6324 36.792 18.509 36.2184 18.734L36.0376 18.6645C36.282 18.3204 38.6855 17.4406 39.1991 17.3161Z" fill="#4D474D"/>
<path d="M57.4966 20.7305C57.7864 20.8706 60.0524 23.0463 60.1481 23.3791C59.5976 23.1464 57.5971 21.2853 57.4966 20.7305Z" fill="#333634"/>
<path d="M35.3712 20.9072L35.5086 20.9663C35.4121 21.4924 33.7647 22.8346 33.2872 23.2146C33.2515 23.1949 33.2162 23.1751 33.1805 23.1554C33.2949 22.8634 34.9909 21.3168 35.3712 20.9072Z" fill="#4D474D"/>
<path d="M60.1738 21.0127C60.8872 21.3351 62.2732 22.9438 62.6413 23.6115C62.1305 23.515 60.582 21.5194 60.1738 21.0127Z" fill="#333634"/>
<path d="M51.1788 66.786C51.2964 66.6538 52.0556 65.7174 52.0678 65.7069C53.5498 64.4243 54.9877 63.1535 56.3692 61.7558C56.6971 61.4238 57.0295 60.6172 57.3899 60.457L57.5962 60.4814C57.7211 60.7371 57.7126 60.802 57.7438 61.0914C57.8605 61.0639 57.8812 61.0918 57.9517 60.9978C58.4601 60.3184 59.9377 60.8304 60.5931 61.0691C59.9899 61.768 58.4617 63.2994 57.6311 63.6724C57.46 63.601 57.3753 63.5609 57.1901 63.5208C57.1102 63.7182 57.1564 63.7952 57.2144 64.0019C56.7401 64.8783 56.171 65.4122 55.6772 66.4305C55.5009 66.7069 55.2852 67.1082 55.0258 67.2781L54.9711 67.2294C54.9123 67.2197 54.637 67.0693 54.5649 67.032C54.4794 67.2542 54.1182 67.8598 53.988 68.1464C53.474 69.2773 53.5089 70.1063 53.4351 71.3034C51.0588 73.3002 49.1143 72.8052 46.4984 71.924C44.1242 72.9317 41.7536 73.134 39.7004 71.2827C39.5877 70.8789 39.5228 70.2474 39.4624 69.8059C39.2642 68.3535 38.8848 67.5756 38.1612 66.3328C38.1178 66.4503 38.0015 66.7394 37.9768 66.8492C37.9873 67.0138 37.9743 67.0243 37.9447 67.1836C37.7939 67.0928 36.4972 64.9002 36.1542 64.445L35.7403 64.4215C35.3544 64.2221 32.636 61.2828 32.5732 60.8928C32.786 60.7558 32.8424 60.7582 33.0961 60.7051C33.7029 60.6848 34.328 60.6038 34.9697 60.5831L35.1444 60.6739C35.7792 60.4526 35.7189 60.3703 36.1457 60.9577C36.7493 61.7878 37.3448 62.4551 38.115 63.1405C38.1908 62.9468 38.3578 62.7234 38.4782 62.5459L38.721 63.1324C39.0287 63.4125 38.8252 63.7717 39.2508 64.1795C39.7361 64.6436 40.2359 64.6643 40.7544 65.0458C41.2201 65.4998 41.3697 66.3113 42.1431 66.4645C42.6113 66.3393 42.8615 66.0539 43.1983 66.0815L43.1318 66.1783C43.3787 66.4572 43.7553 66.9112 44.0318 67.1318C44.1805 67.026 44.9945 66.443 45.0959 66.4341C46.0278 66.3737 47.113 66.439 48.0401 66.4929C48.5508 66.5225 48.6493 67.4078 49.4661 66.6875C50.1942 66.0458 50.405 66.4747 51.1788 66.786Z" fill="white"/>
<path d="M38.478 62.5459L38.7208 63.1325C39.0285 63.4126 38.825 63.7717 39.2507 64.1795C39.7359 64.6437 40.2357 64.6643 40.7542 65.0458C41.2199 65.4998 41.3695 66.3113 42.143 66.4646C42.6112 66.3393 42.8613 66.0539 43.1981 66.0815L43.1317 66.1784C41.8398 67.2846 41.3266 66.2128 40.6739 65.1966C39.3094 64.6781 39.0974 64.2306 38.1148 63.1406C38.1906 62.9468 38.3576 62.7234 38.478 62.5459Z" fill="#040304"/>
<path d="M54.5658 67.0315C55.0441 66.1267 55.5192 65.198 56.0559 64.3281C55.8662 65.147 55.7243 65.4935 55.3741 66.2281L55.6781 66.4299C55.5018 66.7064 55.2861 67.1077 55.0267 67.2776L54.972 67.2289C54.9132 67.2192 54.638 67.0688 54.5658 67.0315Z" fill="#1B1A1A"/>
<path d="M55.3733 66.2285L55.6773 66.4304C55.501 66.7068 55.2854 67.1082 55.0259 67.278L54.9712 67.2294C55.0259 66.959 55.2525 66.4981 55.3733 66.2285Z" fill="#B6B6B7"/>
<path d="M37.2155 64.8008C37.6043 65.3687 37.8374 65.7238 38.16 66.3343C38.1167 66.4518 38.0003 66.7408 37.9756 66.8507C37.7822 66.4932 37.3732 65.2495 37.2155 64.8008Z" fill="#333634"/>
<path d="M35.7415 64.422C35.7411 63.9145 35.4346 63.8828 35.4614 63.5059C35.9081 63.6498 36.0686 64.0223 36.1554 64.4455L35.7415 64.422Z" fill="#4A524F"/>
<path d="M46.6035 70.6045C47.3425 70.977 48.2327 71.4586 48.998 71.7286C48.8723 71.8372 48.6579 72.037 48.5249 72.1149L46.4401 71.5822C45.6683 71.8218 44.9881 71.9937 44.2013 72.1834L43.9203 71.8457C44.4765 71.6803 45.8892 70.9134 46.6035 70.6045Z" fill="#040304"/>
<path d="M48.9989 71.7275C49.5895 71.8783 50.7035 71.895 50.9163 72.0154C50.564 72.3583 49.0516 72.1901 48.5258 72.1139C48.6588 72.036 48.8732 71.8362 48.9989 71.7275Z" fill="#2C272C"/>
<path d="M44.2021 72.1832C43.7205 72.2319 42.3264 72.3535 41.9965 71.9741C42.3285 71.8022 43.4534 71.8525 43.9212 71.8456L44.2021 72.1832Z" fill="#2C272C"/>
<path d="M32.5124 60.145C32.2894 59.7101 32.9563 56.4834 33.9531 56.7096C34.4513 57.2949 34.2685 58.4749 34.4164 59.3132L34.4334 59.4061C34.4541 59.0165 34.4541 58.3383 34.6025 58.0076C34.8068 58.1831 34.8429 58.6148 34.9041 58.9099C34.975 59.428 34.8948 59.5261 35.1891 59.8317L35.5965 59.9253L35.5839 60.1917C35.3265 60.4061 35.2746 60.4446 34.971 60.5837C34.3293 60.6043 33.7042 60.6854 33.0973 60.7057C32.8809 60.6388 32.6579 60.7065 32.2866 60.5877L32.24 60.4154L32.5124 60.145Z" fill="white"/>
<path d="M34.4334 59.4053C34.4541 59.0158 34.4541 58.3376 34.6025 58.0068C34.8068 58.1824 34.8429 58.6141 34.9041 58.9092C34.975 59.4272 34.8948 59.5253 35.1891 59.831L35.5965 59.9246L35.5839 60.1909C35.3265 60.4054 35.2746 60.4439 34.971 60.5829C34.3293 60.6036 33.7042 60.6847 33.0973 60.7049C32.8809 60.638 32.6579 60.7057 32.2866 60.587L32.24 60.4147L32.5124 60.1443C33.0982 59.9461 34.0406 59.9696 34.4278 59.7406L34.4334 59.4053Z" fill="#040304"/>
<path d="M59.2168 56.542C59.9638 56.7329 60.8488 59.5798 60.5699 60.14L60.338 60.125C59.7782 60.0719 59.1466 59.9556 58.586 59.866C58.7875 58.6073 58.5426 57.5643 59.2168 56.542Z" fill="white"/>
<path d="M38.8671 60.8977C38.2619 60.4186 38.1857 59.7437 38.5506 59.0955C38.8408 58.892 38.7131 58.9191 39.0265 58.9658L39.1375 59.1534L39.3532 59.0805L39.5887 59.2353C40.0674 59.8657 40.1927 60.9111 39.6896 61.5443L39.4878 61.5945C39.2802 61.387 39.2672 61.2848 39.1728 61.012C39.0127 60.9885 39.0188 60.9735 38.8671 60.8977Z" fill="#F0EFF0"/>
<path d="M38.8671 60.8977C38.2619 60.4186 38.1857 59.7437 38.5506 59.0955C38.8408 58.892 38.7131 58.9191 39.0265 58.9658L39.1375 59.1534C38.7926 60.0177 39.0812 60.5061 38.8671 60.8977Z" fill="#F0EFF0"/>
<path d="M39.14 59.153L39.3557 59.0801L39.5912 59.2349C39.1327 59.9232 39.3909 60.4089 39.1753 61.0116C39.0152 60.9881 39.0212 60.9731 38.8696 60.8973C39.0837 60.5057 38.795 60.0173 39.14 59.153Z" fill="#1B211D"/>
<path d="M51.7827 63.5801C52.0158 64.0925 51.6015 65.4593 51.0543 65.7913C50.1774 65.8071 50.1872 64.4634 50.1564 63.8419C50.7867 63.8067 51.1868 63.816 51.7827 63.5801Z" fill="#F0EFF0"/>
<path d="M34.9029 58.9092C34.8968 58.3344 34.8165 56.4175 34.9475 55.9541L35.0622 55.9209C35.6309 56.6534 35.8166 59.0483 35.5952 59.9247L35.1879 59.831C34.8936 59.5254 34.9738 59.4273 34.9029 58.9092Z" fill="#F0EFF0"/>
<path d="M58.0747 55.6592L58.2186 55.8225C58.2194 56.9097 58.204 58.121 58.1116 59.2041C58.0702 59.6909 58.0021 59.7412 57.6863 59.9877C57.617 59.9131 57.5319 59.785 57.4695 59.6986C57.3499 58.444 57.4407 56.7683 58.0747 55.6592Z" fill="#F0EFF0"/>
<path d="M58.0273 54.0488L59.723 54.6873C59.3452 54.8162 58.9698 54.9504 58.5961 55.0902C58.0387 54.9877 57.4947 54.9167 56.934 54.8417C56.8112 55.243 56.7974 55.4429 56.4975 55.6707L56.3276 55.5758L56.2818 55.2661C56.7115 54.2641 57.221 55.1089 58.0273 54.0488Z" fill="#F0EFF0"/>
<path d="M55.7058 52.7467C56.2372 52.7285 56.844 52.6369 57.2462 52.9575C57.0686 53.3037 56.3313 53.4371 55.9425 53.5506L55.5432 52.8258L55.7058 52.7467Z" fill="#F0EFF0"/>
<path d="M38.4783 62.5467L38.473 62.4774C38.4366 62.029 38.261 61.607 38.3936 61.2686C38.666 61.2908 38.5638 61.2572 38.7957 61.4838C38.9623 61.9601 39.0183 62.7015 38.7211 63.1332L38.4783 62.5467Z" fill="white"/>
<path d="M39.4799 61.9209L39.7385 62.1621C39.9213 62.7762 39.7612 63.2432 39.6153 63.8589L39.3672 63.5955C39.2026 62.9505 39.3161 62.5662 39.4799 61.9209Z" fill="white"/>
<path d="M54.4206 61.1504L54.6537 61.2286C54.8374 61.7763 54.7044 62.2291 54.4847 62.7333L54.3728 62.7937L54.2459 62.0471C54.1815 61.6652 54.2751 61.5095 54.4206 61.1504Z" fill="white"/>
<path d="M35.8799 54.4824C36.5204 54.6235 36.9322 55.2015 36.8134 55.8566C36.4093 55.6892 36.0339 54.8849 35.8799 54.4824Z" fill="#F0EFF0"/>
<path d="M65.6034 33.648L65.937 33.2637C66.0294 33.7088 66.181 34.4096 65.8981 34.8061L65.7485 34.7826C65.5175 34.331 65.7927 33.9723 65.6034 33.648Z" fill="#B6B6B7"/>
<path d="M7.47898 67.4073C6.91678 66.0047 5.55271 65.1859 5.69962 63.5535C5.7982 62.4582 6.5352 61.3102 7.35928 60.6162C8.19831 59.9125 9.28414 59.5732 10.3747 59.675C11.3797 59.7621 12.5271 60.3142 13.1856 61.0962C13.4751 61.1079 14.8834 59.8857 15.5505 59.7528C18.8843 59.0884 22.6206 62.1079 20.7607 65.5629C24.1508 63.0699 26.6775 61.763 30.6639 60.5124L31.0247 60.6519C31.0563 60.9129 30.9999 60.9296 30.8856 61.193C29.6764 61.6775 28.633 61.9219 27.3224 62.5166C25.4099 63.3844 23.9931 64.3062 22.2018 65.3334L22.4422 65.3448C26.7002 65.5685 28.6735 70.488 25.4448 73.3248C28.2369 75.8628 27.08 80.5224 23.3595 81.351C21.7964 81.6992 20.4636 80.2216 19.2538 79.3225C20.0246 80.4932 21.2824 81.4641 21.2893 82.9846C21.31 85.4237 18.7439 87.1777 16.4721 87.114C15.0335 87.0735 14.2359 86.4821 13.3009 85.5027C10.9477 88.1274 7.09627 87.4472 5.91134 84.0673C5.16676 81.9436 6.64137 81.1187 7.48336 79.4527C6.53569 80.2739 5.25464 81.5727 3.965 81.3923C0.00769877 80.839 -1.31867 76.0549 1.56282 73.3945C0.927158 72.756 0.481251 72.236 0.200329 71.3547C-0.609477 68.8151 1.19721 65.541 3.99763 65.4007C5.52113 65.3245 6.45324 66.4453 7.47898 67.4073Z" fill="#040304"/>
<path d="M22.3633 66.1661C24.5454 65.8747 26.1588 67.8719 26.2885 69.9182C26.3935 71.5684 25.4425 72.2681 24.4072 73.3853C24.6265 73.6601 24.9419 74.0152 25.1924 74.2625C26.8625 75.9297 26.5674 78.4106 24.7777 79.8577C23.1696 81.1581 22.4331 80.844 20.9097 79.7033C19.2437 78.3915 17.5254 77.0437 16.0207 75.5491C15.2962 74.8292 14.61 74.0797 13.8386 73.4088C16.0489 71.3021 19.6709 67.5906 22.3633 66.1661Z" fill="white"/>
<path d="M13.3074 73.9258C14.1761 74.8764 15.4695 76.0835 16.2582 76.9575C17.1726 77.9709 19.8878 81.1445 20.3742 82.1855C20.521 82.4988 20.5883 82.8438 20.5696 83.1896C20.4748 85.0915 18.1211 86.4763 16.3754 86.3437C15.0095 86.2399 14.3701 85.6128 13.5251 84.6732C13.5158 84.4965 13.5268 84.5808 13.3913 84.4024C13.0917 84.4851 12.7927 84.9703 12.5615 85.2217C9.9763 88.0316 5.119 85.3007 6.87303 81.6301C8.36621 78.5056 11.0225 76.3912 13.3074 73.9258Z" fill="white"/>
<path d="M9.8661 60.4103C11.6142 60.4926 12.0806 61.0378 13.2545 62.3147C15.1776 60.4525 17.0219 59.3856 19.5136 61.5948C19.9147 61.9503 20.6638 63.0963 20.5758 63.6374C20.2455 65.6711 17.5016 68.2647 16.111 69.6206C15.2279 70.4974 14.0362 71.8777 13.3288 72.8882C11.3497 70.5258 7.25215 67.4555 6.51089 64.0002C6.34396 63.2219 6.90094 62.0293 7.40992 61.4359C8.11976 60.6081 8.85129 60.5157 9.8661 60.4103Z" fill="white"/>
<path d="M3.58844 66.1554C5.62004 65.9357 6.69605 67.8089 8.09198 68.9233C9.75772 70.2529 11.1834 72.0648 12.7771 73.3997C11.8361 74.1768 11.0534 75.1395 10.1695 75.9263C8.8799 77.0743 7.7385 78.112 6.51607 79.3342C5.856 79.9273 5.15925 80.5284 4.23071 80.5981C1.90324 80.7729 0.389755 78.0212 0.818191 75.9669C1.07463 74.7374 1.87543 73.9846 2.88918 73.3401C-0.414499 71.5164 0.215972 67.4344 3.58844 66.1554Z" fill="white"/>
<path d="M79.1871 61.0884C81.6477 58.3048 86.579 59.985 86.9239 63.6094C87.0622 65.0626 85.6337 66.3415 84.829 67.4944C86.0812 66.607 87.4594 65.0249 89.145 65.4453C92.6652 66.3237 93.8995 70.8386 91.0547 73.3567C91.9927 74.2866 92.6182 75.2052 92.6356 76.5924C92.6522 77.9179 92.1451 79.1964 91.2245 80.1502C90.4847 80.9042 89.5982 81.3562 88.5272 81.3886C86.9037 81.4377 86.0929 80.0534 84.737 79.2945C85.6722 80.4044 87.1019 81.7226 86.9199 83.2764C86.6317 85.7378 83.9781 87.3171 81.6505 87.1176C80.3878 87.0418 79.7736 85.9518 79.121 85.7897C76.3401 88.4164 71.8296 86.8878 71.3269 83.0616C71.1717 81.8795 72.6432 80.3006 73.4012 79.4222C72.5564 79.8178 71.5884 80.781 70.7201 81.327C70.4213 81.3444 70.1064 81.3655 69.8137 81.3667C66.5671 81.3813 64.5378 77.2142 66.2225 74.5392C66.428 74.2125 66.5809 74.0033 66.8391 73.7272C66.951 73.6081 67.0645 73.4905 67.1804 73.375C63.9289 70.2196 66.0207 65.4469 70.4724 65.322C67.6206 63.8838 66.6919 63.0058 63.3168 61.7268C63.329 61.4844 63.3991 61.493 63.6103 61.2805L63.5961 61.1954L63.8037 61.1095C66.8744 62.1849 69.2519 63.6523 71.8405 65.5867C69.4991 61.3539 75.9149 57.5528 79.1871 61.0884Z" fill="#040304"/>
<path d="M87.9569 66.1495C91.3688 65.7786 93.8177 70.7545 89.8824 73.3046L89.9051 73.485C90.7592 73.8753 91.7162 75.1174 91.8602 76.0623C92.0288 77.1701 91.6632 78.4256 90.9931 79.3214C90.4483 80.0559 89.627 80.5363 88.7194 80.6502C87.7801 80.7592 87.1794 80.182 86.4854 79.6368C85.1318 78.5978 83.7925 77.5516 82.5346 76.3947C81.5382 75.4782 80.539 74.2876 79.5142 73.4396C81.4381 71.4314 85.5145 67.4451 87.9569 66.1495Z" fill="white"/>
<path d="M69.2413 66.1647C69.3973 66.1432 69.5542 66.125 69.7119 66.1213C71.6147 66.0772 77.1671 71.8933 78.7273 73.4009C77.7954 74.2521 76.8647 75.3268 75.9222 76.2133C74.7624 77.3041 73.648 78.1906 72.3906 79.157C71.2572 80.0626 70.108 81.2078 68.5813 80.3861C67.5744 79.8397 66.8326 78.9086 66.5249 77.8051C66.1617 76.5489 66.379 75.0904 67.4118 74.2225C67.6251 74.0434 68.2647 73.5484 68.373 73.349C67.8176 72.9473 66.7677 72.0024 66.5687 71.3745C65.8402 69.074 67.0211 66.9098 69.2413 66.1647Z" fill="white"/>
<path d="M79.1811 74.1201C80.9821 76.4996 85.4051 80.0348 86.2953 82.9112C85.7197 85.4038 83.2315 87.1631 80.7928 86.0998C80.0469 85.7784 79.4604 85.172 79.1636 84.416C79.0007 84.6527 78.8795 84.8975 78.6906 85.1172C78.0671 85.8465 77.1729 86.2896 76.215 86.3443C75.0953 86.3986 73.8715 85.9344 73.0571 85.1679C72.4989 84.6421 72.0794 83.9093 72.0709 83.1269C72.0478 81.0417 77.564 75.8105 79.1811 74.1201Z" fill="white"/>
<path d="M75.7786 60.4011C77.2647 60.2227 78.2331 61.1482 79.0787 62.2013L79.2016 62.1871C80.6082 59.5101 84.5524 60.061 85.8427 62.524C86.1224 63.0582 86.182 63.4948 86.2878 64.0757C85.7154 65.4406 82.9415 68.6263 81.866 69.8728C81.0723 70.7281 79.8343 71.6682 79.2895 72.6759C78.7256 72.1092 77.786 71.0597 77.2898 70.4213C75.8224 68.5339 70.5173 64.871 72.6062 62.1648C73.4412 61.0833 74.5289 60.6082 75.7786 60.4011Z" fill="white"/>
<path d="M7.49014 8.46445C6.81807 7.19165 5.51578 6.33317 5.71591 4.77317C6.20665 0.94811 10.6951 -0.520847 13.256 2.4349C15.8189 -0.349176 20.4134 0.823501 21.2428 4.40578C21.6247 6.0533 20.2051 7.25643 19.3303 8.46072C20.6263 7.77752 21.529 6.36637 23.1736 6.58652C26.931 7.08966 28.3725 12.0784 25.4384 14.5282L25.5166 14.6028C26.4644 15.5115 27.0137 16.4307 27.0311 17.783C27.0416 19.0986 26.5268 20.3641 25.6005 21.2988C24.4866 22.4176 23.5749 22.5857 22.1213 22.6028C23.596 23.2991 25.0253 24.352 26.665 25.1376C26.4984 25.3645 26.3821 25.5781 26.1348 25.6931C24.3747 24.8857 22.4606 23.5975 20.8115 22.5273C21.6405 24.1124 21.3304 25.6615 20.0324 26.9007C19.0557 27.8192 17.7539 28.3118 16.4139 28.2696C15.0141 28.2145 14.2191 27.6806 13.3186 26.713C10.8407 29.3434 6.8623 28.5234 5.83846 25.0297C5.30742 23.2176 6.6541 22.0822 7.49241 20.6347C6.56212 21.3516 5.94924 21.9375 4.93075 22.5602C1.84605 22.6312 -0.105559 20.559 0.00441787 17.3874C0.0404958 16.346 0.82075 15.2442 1.62642 14.6036C-1.17343 12.1758 -0.156838 7.59292 3.46806 6.64068C5.18865 6.1887 6.21172 7.55591 7.49014 8.46445Z" fill="#040304"/>
<path d="M22.5024 7.27051C24.9861 7.3528 26.3968 9.33681 26.2432 11.7107C26.1524 13.1187 25.218 13.7277 24.3003 14.5342C24.9172 15.1632 26.0981 16.2642 26.2493 17.155C26.6238 19.3585 24.7166 22.4321 22.2134 21.7081C21.9175 21.6225 21.1842 21.0369 20.9085 20.8277C19.494 19.7449 18.1595 18.6781 16.8348 17.485C15.9342 16.674 14.7231 15.2248 13.7944 14.6067C15.7386 12.7536 20.0698 8.33743 22.5024 7.27051Z" fill="white"/>
<path d="M9.33428 1.60574C11.314 1.47574 11.9355 1.95257 13.1169 3.42258C13.1762 3.44569 13.2355 3.46879 13.2949 3.4919C13.6239 3.17028 14.3853 2.34699 14.7248 2.11893C15.1535 1.83092 15.8474 1.65053 16.2793 1.60031C17.3409 1.48129 18.4378 1.84872 19.2573 2.52093C19.7106 2.89273 20.0392 3.33486 20.2958 3.85579C20.5321 4.33591 20.5775 4.87269 20.633 5.39743C20.2147 6.33212 17.3916 9.74261 16.6181 10.6518C15.5686 11.8231 14.2773 12.863 13.3247 14.1047C12.7116 13.3092 11.8004 12.5519 11.0662 11.7771C9.49225 10.054 7.31911 7.93262 6.60505 5.66169C5.98536 3.69093 7.53367 2.07896 9.33428 1.60574Z" fill="white"/>
<path d="M13.2257 15.1445C15.384 17.529 18.1486 20.1975 19.9878 22.7369C22.4476 26.133 16.0115 29.7688 13.4527 25.6846L13.4154 25.5763L13.2667 25.5351C12.5829 26.5972 11.6892 27.3387 10.3894 27.4963C9.60751 27.5908 8.35407 27.4801 7.72789 26.8899C7.2556 26.4446 6.50667 25.0317 6.44238 24.3424C6.69886 21.0973 11.4897 17.2037 13.2257 15.1445Z" fill="white"/>
<path d="M3.83274 7.28125C5.48215 7.29013 6.56947 8.72512 7.73025 9.74789C9.48935 11.2979 11.1283 12.9566 12.7853 14.6139C11.8476 15.3123 10.9368 16.4187 10.0629 17.2171C8.86378 18.3127 7.68192 19.4138 6.49991 20.5284C5.61535 21.2946 4.76598 22.0874 3.50569 21.7488C1.46801 21.2107 0.306713 18.8149 0.877433 16.8433C1.15507 15.8842 1.89219 15.0907 2.7729 14.6365L2.72462 14.4701C2.64638 14.4326 2.56904 14.3932 2.49267 14.352C-0.423723 12.7696 0.390907 8.20771 3.83274 7.28125Z" fill="white"/>
<path d="M79.1445 2.2606C82.1094 -1.09042 88.3342 2.15253 86.5847 6.46086C86.6272 6.71154 86.5689 6.79269 86.4586 7.01739C86.8737 6.85212 87.0111 6.78925 87.4521 6.73245C91.5962 5.7229 94.6369 11.2833 91.0356 14.5499C93.9879 17.305 92.6243 22.0267 88.5446 22.5498C87.1923 22.7232 85.917 21.1483 84.7285 20.5003C85.4626 21.3593 86.6917 22.6259 86.8587 23.6203C87.3281 26.4156 84.3077 28.4799 81.7794 28.31C80.8167 28.2452 79.967 27.5192 79.17 27.0295C79.0691 27.0927 78.5827 27.4166 78.5044 27.4616C78.2713 27.595 78.0415 27.7766 77.8279 27.8848C75.4937 29.0656 71.858 27.5009 71.4348 24.8208C71.301 23.9738 71.4246 23.3477 71.6898 22.6096L71.5771 22.5489L71.3375 22.749C70.9747 22.8528 70.89 22.8897 70.5174 22.9335C69.4059 23.0642 67.0698 25.3806 65.9862 25.0914L65.7726 24.8197L65.863 24.7554L66.0413 24.8165L66.1885 24.9564C66.8026 24.9674 69.6978 22.9865 70.421 22.4859C66.049 22.9025 63.9265 17.3692 67.1975 14.5754C63.1944 10.8317 67.7929 4.0712 72.0497 7.59146C72.4973 7.96148 72.9679 8.31881 73.4223 8.67715C72.6035 7.35866 71.2467 6.52381 71.3334 4.77848C71.3841 3.76438 71.8296 2.93205 72.567 2.24763C73.5686 1.31858 74.9011 0.830355 76.266 0.892375C77.463 0.957517 78.3463 1.38514 79.1445 2.2606Z" fill="#040304"/>
<path d="M86.5858 6.46094C86.6284 6.71161 86.57 6.79277 86.4598 7.01746C86.8749 6.8522 87.0123 6.78932 87.4533 6.73253C86.5214 7.27661 85.893 7.99179 84.9291 8.5276C85.2376 8.10416 86.2388 6.69163 86.5858 6.46094Z" fill="#F0EFF0"/>
<path d="M88.0976 7.27439C88.2484 7.26661 88.3647 7.27111 88.5151 7.28262C89.4568 7.35454 90.3287 7.80749 90.9287 8.53674C92.3118 10.194 92.2097 12.607 90.5817 14.028C90.5667 14.0841 89.8131 14.5548 89.9197 14.6232C93.0625 16.6399 92.341 20.8656 88.822 21.8427C88.0538 22.0561 87.0428 21.2653 86.4149 20.7791C85.0918 19.7285 83.6993 18.6451 82.4524 17.5091C81.4747 16.6187 80.5095 15.4244 79.5054 14.5831C81.3778 12.6528 85.7067 8.40204 88.0976 7.27439Z" fill="white"/>
<path d="M69.5053 7.28355C69.522 7.28213 69.5382 7.28043 69.5548 7.27926C71.6635 7.12672 77.0306 13.0588 78.7251 14.5365C77.7343 15.4557 76.7594 16.6388 75.7728 17.5301C74.6993 18.5 73.3896 19.506 72.2473 20.4167C70.8804 21.5205 69.7068 22.5134 67.9937 21.2125C66.3844 19.9905 65.7723 17.4536 67.0074 15.7498C67.2673 15.3912 68.0797 15.0277 68.3808 14.6653C68.4769 14.5497 67.7724 14.1628 67.7096 14.0349C65.2668 11.7672 66.2474 8.09838 69.5053 7.28355Z" fill="white"/>
<path d="M75.506 1.61499C77.1352 1.46314 78.2569 2.07244 79.1507 3.42214L79.2589 3.38497C79.6185 2.40492 80.7677 1.73818 81.7836 1.59687C83.9941 1.28923 87.156 3.51959 85.8912 5.96442C85.4064 6.90162 84.4996 7.8445 83.8388 8.68599C83.264 9.41808 82.6345 10.1564 82.0386 10.8819C81.105 11.8968 80.0219 12.7802 79.1742 13.8795C77.8527 12.2845 76.0196 10.8935 74.7975 9.16384C73.6592 7.55349 71.0117 5.58009 72.5306 3.43106C73.3097 2.32851 74.2247 1.87308 75.506 1.61499Z" fill="white"/>
<path d="M79.1807 15.3242C80.4297 16.2885 85.3221 21.9612 85.9609 23.2611C86.2491 23.8471 86.2471 24.5184 86.0217 25.1248C85.6857 26.0289 84.8883 26.7315 84.0233 27.1191C83.0394 27.5597 81.8922 27.6505 80.878 27.2581C80.0673 26.9447 79.5455 26.4246 79.1888 25.6409C79.1203 25.7495 79.0498 25.8566 78.9764 25.9621C77.1445 28.5832 72.788 27.7105 72.1184 24.585C72.045 24.2426 72.1735 23.528 72.3531 23.2238C74.1436 20.1953 77.0298 18.0891 79.1807 15.3242Z" fill="white"/>
<path d="M101.9 51V36.4545H111.531V38.9901H104.975V42.456H110.892V44.9915H104.975V51H101.9ZM118.756 51H113.599V36.4545H118.798C120.261 36.4545 121.521 36.7457 122.577 37.3281C123.633 37.9058 124.445 38.7367 125.013 39.821C125.586 40.9053 125.872 42.2027 125.872 43.7131C125.872 45.2282 125.586 46.5303 125.013 47.6193C124.445 48.7083 123.628 49.544 122.562 50.1264C121.502 50.7088 120.233 51 118.756 51ZM116.675 48.3651H118.628C119.537 48.3651 120.302 48.2041 120.922 47.8821C121.547 47.5554 122.016 47.0511 122.328 46.3693C122.645 45.6828 122.804 44.7973 122.804 43.7131C122.804 42.6383 122.645 41.7599 122.328 41.0781C122.016 40.3963 121.549 39.8944 120.929 39.5724C120.309 39.2505 119.544 39.0895 118.635 39.0895H116.675V48.3651ZM133.491 51.1989C132.397 51.1989 131.424 51.0213 130.572 50.6662C129.725 50.3063 129.059 49.8163 128.576 49.196C128.093 48.5758 127.852 47.8726 127.852 47.0866C127.852 46.4806 127.989 45.9242 128.264 45.4176C128.543 44.9062 128.922 44.4825 129.4 44.1463C129.878 43.8054 130.413 43.5876 131.005 43.4929V43.3935C130.229 43.2372 129.599 42.8608 129.116 42.2642C128.633 41.6629 128.392 40.9645 128.392 40.169C128.392 39.4162 128.612 38.7462 129.052 38.1591C129.493 37.5672 130.096 37.1032 130.863 36.767C131.635 36.4261 132.511 36.2557 133.491 36.2557C134.471 36.2557 135.345 36.4261 136.112 36.767C136.884 37.108 137.49 37.5743 137.93 38.1662C138.37 38.7533 138.593 39.4209 138.598 40.169C138.593 40.9692 138.347 41.6676 137.859 42.2642C137.371 42.8608 136.746 43.2372 135.984 43.3935V43.4929C136.566 43.5876 137.094 43.8054 137.568 44.1463C138.046 44.4825 138.425 44.9062 138.704 45.4176C138.988 45.9242 139.133 46.4806 139.137 47.0866C139.133 47.8726 138.889 48.5758 138.406 49.196C137.923 49.8163 137.255 50.3063 136.403 50.6662C135.555 51.0213 134.585 51.1989 133.491 51.1989ZM133.491 48.9403C133.979 48.9403 134.405 48.8527 134.77 48.6776C135.134 48.4976 135.418 48.2514 135.622 47.9389C135.83 47.6217 135.934 47.2571 135.934 46.8452C135.934 46.4238 135.828 46.0521 135.615 45.7301C135.402 45.4034 135.113 45.1477 134.748 44.9631C134.384 44.7737 133.965 44.679 133.491 44.679C133.022 44.679 132.603 44.7737 132.234 44.9631C131.865 45.1477 131.573 45.4034 131.36 45.7301C131.152 46.0521 131.048 46.4238 131.048 46.8452C131.048 47.2571 131.15 47.6217 131.353 47.9389C131.557 48.2514 131.843 48.4976 132.213 48.6776C132.582 48.8527 133.008 48.9403 133.491 48.9403ZM133.491 42.4418C133.898 42.4418 134.261 42.3589 134.578 42.1932C134.895 42.0275 135.144 41.7978 135.323 41.5043C135.503 41.2107 135.593 40.8722 135.593 40.4886C135.593 40.1098 135.503 39.7784 135.323 39.4943C135.144 39.2055 134.897 38.9806 134.585 38.8196C134.272 38.6539 133.908 38.571 133.491 38.571C133.079 38.571 132.715 38.6539 132.397 38.8196C132.08 38.9806 131.832 39.2055 131.652 39.4943C131.476 39.7784 131.389 40.1098 131.389 40.4886C131.389 40.8722 131.479 41.2107 131.659 41.5043C131.839 41.7978 132.087 42.0275 132.404 42.1932C132.722 42.3589 133.084 42.4418 133.491 42.4418ZM146.714 51.1989C145.62 51.1989 144.647 51.0213 143.795 50.6662C142.947 50.3063 142.282 49.8163 141.799 49.196C141.316 48.5758 141.075 47.8726 141.075 47.0866C141.075 46.4806 141.212 45.9242 141.486 45.4176C141.766 44.9062 142.145 44.4825 142.623 44.1463C143.101 43.8054 143.636 43.5876 144.228 43.4929V43.3935C143.451 43.2372 142.822 42.8608 142.339 42.2642C141.856 41.6629 141.614 40.9645 141.614 40.169C141.614 39.4162 141.834 38.7462 142.275 38.1591C142.715 37.5672 143.319 37.1032 144.086 36.767C144.858 36.4261 145.734 36.2557 146.714 36.2557C147.694 36.2557 148.567 36.4261 149.334 36.767C150.106 37.108 150.712 37.5743 151.153 38.1662C151.593 38.7533 151.816 39.4209 151.82 40.169C151.816 40.9692 151.569 41.6676 151.082 42.2642C150.594 42.8608 149.969 43.2372 149.207 43.3935V43.4929C149.789 43.5876 150.317 43.8054 150.79 44.1463C151.269 44.4825 151.647 44.9062 151.927 45.4176C152.211 45.9242 152.355 46.4806 152.36 47.0866C152.355 47.8726 152.111 48.5758 151.629 49.196C151.146 49.8163 150.478 50.3063 149.626 50.6662C148.778 51.0213 147.808 51.1989 146.714 51.1989ZM146.714 48.9403C147.201 48.9403 147.628 48.8527 147.992 48.6776C148.357 48.4976 148.641 48.2514 148.844 47.9389C149.053 47.6217 149.157 47.2571 149.157 46.8452C149.157 46.4238 149.05 46.0521 148.837 45.7301C148.624 45.4034 148.335 45.1477 147.971 44.9631C147.606 44.7737 147.187 44.679 146.714 44.679C146.245 44.679 145.826 44.7737 145.457 44.9631C145.087 45.1477 144.796 45.4034 144.583 45.7301C144.375 46.0521 144.271 46.4238 144.271 46.8452C144.271 47.2571 144.372 47.6217 144.576 47.9389C144.78 48.2514 145.066 48.4976 145.435 48.6776C145.805 48.8527 146.231 48.9403 146.714 48.9403ZM146.714 42.4418C147.121 42.4418 147.483 42.3589 147.8 42.1932C148.118 42.0275 148.366 41.7978 148.546 41.5043C148.726 41.2107 148.816 40.8722 148.816 40.4886C148.816 40.1098 148.726 39.7784 148.546 39.4943C148.366 39.2055 148.12 38.9806 147.808 38.8196C147.495 38.6539 147.13 38.571 146.714 38.571C146.302 38.571 145.937 38.6539 145.62 38.8196C145.303 38.9806 145.054 39.2055 144.874 39.4943C144.699 39.7784 144.611 40.1098 144.611 40.4886C144.611 40.8722 144.701 41.2107 144.881 41.5043C145.061 41.7978 145.31 42.0275 145.627 42.1932C145.944 42.3589 146.307 42.4418 146.714 42.4418Z" fill="white"/>
</svg>
