<svg width="123" height="58" viewBox="0 0 123 58" fill="none" xmlns="http://www.w3.org/2000/svg">
<path d="M17.6619 16.505C17.8649 16.3918 18.7215 14.8837 18.979 14.5506C20.4656 12.6266 22.6798 11.1592 24.9293 10.2734C28.9534 8.70484 33.438 8.81252 37.3821 10.5725C39.7339 11.5986 42.7851 13.8254 43.7475 16.2918L43.6294 16.2514L43.5695 16.294L43.711 16.4739C44.4288 16.6655 45.9763 15.131 46.7126 15.0445C46.9594 15.0154 47.0155 14.991 47.2558 14.9222C46.5934 15.5281 44.867 16.4619 44.0332 16.9196C44.6968 18.6353 44.9462 21.509 44.4551 23.2456C44.2945 23.3909 44.0504 23.3358 44.0058 23.3667C43.8391 23.4819 43.7298 24.7703 43.7072 24.9451L42.7765 24.9649C44.0338 26.6164 42.7722 27.4662 42.4551 29.0495C42.9624 30.8875 44.2628 30.1552 44.9559 31.8424C44.8786 33.1839 44.4852 33.3483 43.3165 33.9243C43.0751 35.7618 42.309 36.3402 40.4629 36.2921C40.5548 37.776 41.1047 38.7335 41.1624 39.9454C41.4806 40.0549 41.9669 40.2077 42.2634 40.3331L42.1259 40.39L42.1353 40.4464C41.9954 40.5871 41.9489 40.5815 41.9409 40.7421L41.0156 40.4456C40.6297 41.433 39.5247 42.0514 38.855 42.8422C38.5475 43.205 38.3939 43.6634 38.1074 44.0401C37.9342 44.2678 37.8521 43.9894 37.6826 44.2544C37.42 44.665 37.2116 45.1271 36.8996 45.5011C36.8413 45.5844 36.4882 45.5978 36.453 45.6926C36.2753 46.1703 36.4912 46.9112 36.2323 47.3693C35.2688 49.0733 32.4542 49.2331 30.846 48.4573C30.5012 48.6109 30.1403 48.7258 29.77 48.8C28.564 49.0392 27.2458 48.8958 26.1854 48.2159C25.3009 47.6485 25.3106 46.7345 25.1191 45.7702C25.0998 45.7541 25.0807 45.738 25.0614 45.7219C24.6997 45.5148 24.0477 44.3545 23.8119 44.1338C23.4621 43.807 20.4908 40.4097 20.4594 40.3887C20.5351 40.2142 20.5725 40.2032 20.5515 40.0302L20.3125 39.9379C20.3587 39.9242 20.4702 39.8584 20.4739 39.8331C20.599 38.9951 21.1401 36.9712 21.4011 36.2918C19.4949 36.2784 18.6133 35.9283 18.2368 33.9089C17.2086 33.3958 16.9466 33.3257 16.6633 32.1853C17.3128 30.1832 18.6028 30.9718 19.2516 28.9053C18.7221 27.3704 17.8305 26.8607 18.6984 25.1475L17.9218 24.9577C17.8628 24.5345 17.8021 23.9497 17.6665 23.5404C17.6015 23.3444 17.4466 23.3406 17.2489 23.2789C16.9192 22.8517 16.9103 19.8093 17.0349 19.1326C17.1074 18.7381 17.468 17.2509 17.4538 16.9863L17.3107 16.873C17.4745 16.7968 17.5516 16.6553 17.6619 16.505Z" fill="#1B1A1A"/>
<path d="M18.1516 23.1763C17.2408 19.0373 18.4016 15.687 21.7544 13.1252C27.8062 8.50066 37.0542 9.25194 41.9805 15.1598C43.5189 17.0049 43.9862 19.5649 43.679 21.8877L43.458 22.1422C43.2163 22.6672 43.1621 22.8777 43.0732 23.4639C43.0117 23.7813 42.9158 23.6266 42.8465 23.9636L42.791 24.4199L42.803 24.5611C42.6119 24.7193 42.7048 24.6822 42.4499 24.6948C42.3256 24.6237 42.3213 24.6465 42.259 24.5399C41.9322 24.2316 41.6226 23.8995 41.3117 23.5745C41.4593 22.9051 41.9671 21.8525 42.3839 21.3377L42.2816 21.3071C41.733 21.6575 40.9365 22.7343 40.6777 23.3256C40.5453 23.6277 40.4301 23.3801 40.2112 23.7018C39.9733 25.2176 42.6368 24.8635 42.3688 26.4679C42.0869 27.9582 40.9365 28.8443 41.9945 30.3228C42.4916 31.0178 44.1543 31.7221 43.9494 32.2669C43.549 33.3303 40.5802 33.67 39.527 33.7076C39.23 33.7183 38.8227 33.6528 38.747 33.7766C39.3568 34.1727 41.3538 33.96 41.6199 34.1667C41.7104 34.2336 41.8535 34.3488 41.9524 34.3891L42.1774 34.3797L42.2475 34.4702C42.172 34.7132 42.0968 34.8585 41.9857 35.0854C39.2797 36.1791 37.5155 33.0599 35.0096 34.1506C34.7425 34.2669 34.4589 34.4922 34.3748 34.7852L34.4149 34.8547C34.5059 34.7905 34.598 34.7282 34.6914 34.6675C35.2972 34.2701 35.8241 34.2315 36.5185 34.3767L36.5676 34.3872C36.8404 34.4546 36.7712 34.3974 36.9033 34.5744L36.9001 34.794L36.7924 34.8464L37.0569 35.3265C36.0222 36.2188 36.2666 36.7636 36.8794 37.8337C36.1721 38.4897 35.1651 38.5625 34.9747 38.9059C35.1968 38.9387 35.2263 38.9041 35.3644 39.0405L35.3176 39.1543L35.6229 39.3404L35.7798 39.1836L35.7481 38.9953L35.8466 38.918C36.3982 39.0112 36.2185 39.8444 36.0993 40.2179L36.0384 40.3031L36.0494 40.3605C35.953 40.5984 35.8909 40.7016 35.9336 40.9545C35.66 41.2985 35.8652 41.5512 35.7287 41.8524L35.4017 42.1535L35.5002 42.1846L35.4648 42.2029C35.1165 42.3871 35.0099 42.6371 34.6235 42.5393C34.5341 42.3455 34.5558 42.4263 34.5881 42.1755L34.5795 42.0047C34.4659 41.9475 34.4272 41.9609 34.3018 41.9703C33.9071 42.1266 33.642 42.1204 33.2245 42.1438L33.0929 42.1771C33.0067 42.719 33.0631 43.7187 32.315 43.6749L32.17 43.5834L32.1227 43.6046C31.975 43.451 32.0317 43.1803 31.9326 42.8487L31.9165 42.7963C31.8013 43.161 31.7946 43.3326 31.4297 43.4861C30.9546 43.3258 30.9229 42.7356 31.0441 42.3189L31.1866 42.2434C31.1026 42.1731 31.1388 42.2039 30.9992 42.187C30.8346 42.3256 30.8773 42.3081 30.7959 42.535L30.7841 42.5356C30.8172 42.3516 30.7398 42.5691 30.7242 42.2501C30.6738 42.6274 30.6687 43.4617 30.1877 43.4996C29.9434 43.3699 29.8811 43.2351 29.768 42.9805C29.6483 43.2096 29.656 43.2976 29.6399 43.5541L29.5484 43.6325L29.2194 43.7066C28.9901 43.6776 28.8494 43.4998 28.677 43.3352C28.6652 42.9453 28.6555 42.593 28.6171 42.2037L28.4917 42.157C28.4786 42.2797 28.4375 42.7579 28.416 42.8511C28.5033 43.2517 28.2245 43.7705 27.8373 43.636C27.3355 43.4617 27.2775 42.4808 27.0801 42.0291C26.996 42.2756 26.9746 42.3583 26.7364 42.4373L26.629 42.3473C26.5081 41.9872 26.5103 41.5783 26.8739 41.3892L26.9821 41.3154C26.412 40.7741 26.5763 40.1328 26.9861 39.5399L26.9609 39.3361C26.9303 39.3079 26.891 39.2703 26.8752 39.2359C26.5736 38.5799 25.7482 38.4349 25.1478 38.1747C25.0898 38.1498 25.0009 38.07 24.9727 38.0005C24.8307 37.65 25.2206 37.0147 25.3948 36.6382C24.7855 34.8824 24.6287 35.5529 23.607 35.0129L23.6387 34.9194L23.8116 34.8633L23.719 34.7835C23.6959 34.5287 23.7168 34.5803 23.8409 34.3206C22.7498 34.7771 21.3734 35.569 20.1556 35.2964C19.8793 35.2347 19.3909 34.7645 19.3643 34.4495L19.4451 34.3655C19.571 34.3754 19.6296 34.3759 19.7536 34.413L19.8409 34.3735L19.9177 34.1512C20.6143 34.0604 21.226 34.1069 22.0031 33.968C21.7724 33.7009 21.7002 33.7411 21.3119 33.6818C20.281 33.4286 18.9585 33.2857 18.0187 32.7454C16.8796 32.0908 18.7292 31.2229 19.1728 30.8569C19.7357 30.3924 20.1261 29.7146 20.0933 28.9665C20.1108 27.9324 18.9529 26.8419 19.3554 25.843C19.6801 25.0372 21.1301 24.9915 21.4282 24.1548C21.4897 23.9805 21.4902 23.6078 21.4 23.4344C21.3189 23.4601 21.1575 23.868 21.0697 24.0179C20.9585 23.8788 21.0007 23.4422 21.0001 23.2198C20.4311 22.4427 19.813 21.7027 19.1497 21.0045C19.476 21.6852 20.1674 22.7684 20.2663 23.5088C20.292 23.7005 19.5466 24.4035 19.3482 24.6049C19.2088 24.7005 19.1782 24.654 18.9671 24.6178C18.6578 24.4652 18.4414 22.3519 18.3871 21.9245C18.3216 22.3949 18.2617 22.7142 18.1516 23.1763Z" fill="white"/>
<path d="M26.9621 39.3361C27.2392 38.9046 27.3243 38.8751 27.7276 38.573C27.9145 38.7832 28.2709 39.2685 28.4653 39.4022C28.6095 39.3804 28.6873 39.3434 28.8087 39.2601C29.0117 39.1087 29.3296 39.6892 29.4738 39.6084C30.0863 39.2655 30.2558 39.0633 30.7163 39.6914C30.9905 39.7867 31.0479 39.4223 31.3997 39.3385C31.5334 39.2365 32.132 39.6001 32.1543 39.5942C32.6722 39.4607 32.6446 38.9731 33.1725 39.4634C33.2174 39.4575 33.2622 39.4513 33.307 39.4452C33.524 39.0765 33.6663 38.8606 33.9808 38.5912L34.0065 38.5695C34.2501 38.8066 34.5251 39.258 34.7708 39.3563L34.883 39.2905L34.9759 38.906C35.198 38.9387 35.2275 38.9041 35.3656 39.0405L35.3188 39.1543L35.6241 39.3404L35.781 39.1836L35.7493 38.9954L35.8478 38.918C36.3994 39.0112 36.2197 39.8445 36.1005 40.218L36.0396 40.3031L36.0506 40.3606C35.9542 40.5985 35.8921 40.7016 35.9348 40.9545C35.6612 41.2985 35.8664 41.5512 35.7299 41.8525L35.4029 42.1535L35.5014 42.1846L35.466 42.2029C35.1177 42.3871 35.0111 42.6371 34.6247 42.5394C34.5353 42.3455 34.557 42.4263 34.5892 42.1755L34.5807 42.0047C34.4671 41.9475 34.4284 41.961 34.303 41.9704C33.9083 42.1266 33.6432 42.1205 33.2257 42.1438L33.0941 42.1771C33.0079 42.719 33.0643 43.7187 32.3162 43.6749L32.1712 43.5834L32.1239 43.6046C31.9762 43.451 32.0329 43.1803 31.9338 42.8487L31.9177 42.7963C31.8025 43.161 31.7958 43.3326 31.4309 43.4862C30.9558 43.3259 30.9241 42.7356 31.0453 42.3189L31.1878 42.2434C31.1038 42.1731 31.14 42.204 31.0004 42.1871C30.8358 42.3256 30.8785 42.3082 30.7971 42.5351L30.7853 42.5356C30.8183 42.3517 30.741 42.5692 30.7254 42.2502C30.675 42.6274 30.6699 43.4617 30.1889 43.4996C29.9446 43.3699 29.8823 43.2351 29.7692 42.9805C29.6495 43.2096 29.6572 43.2977 29.6411 43.5541L29.5496 43.6325L29.2206 43.7066C28.9913 43.6776 28.8506 43.4999 28.6782 43.3353C28.6664 42.9454 28.6567 42.5931 28.6183 42.2037L28.4929 42.157C28.4798 42.2797 28.4387 42.7579 28.4172 42.8511C28.5045 43.2518 28.2257 43.7705 27.8385 43.636C27.3367 43.4617 27.2787 42.4808 27.0813 42.0292C26.9972 42.2757 26.9758 42.3584 26.7376 42.4373L26.6302 42.3474C26.5093 41.9873 26.5115 41.5783 26.8751 41.3893L26.9833 41.3154C26.4132 40.7741 26.5775 40.1328 26.9873 39.5399L26.9621 39.3361Z" fill="#040304"/>
<path d="M27.2119 41.9787C27.6971 42.0861 27.9965 42.1132 28.4916 42.157C28.4785 42.2797 28.4374 42.7579 28.4159 42.8511C28.33 43.111 28.3085 43.2305 28.1117 43.4212C27.8934 43.495 27.9857 43.4982 27.7664 43.4026C27.3915 42.9521 27.3434 42.5447 27.2119 41.9787Z" fill="#F0EFF0"/>
<path d="M28.6169 42.2037L29.4952 42.1763C29.5532 42.8149 29.5288 43.0436 29.5481 43.6325L29.2192 43.7066C28.9899 43.6776 28.8492 43.4999 28.6768 43.3353C28.6649 42.9454 28.6553 42.5931 28.6169 42.2037Z" fill="white"/>
<path d="M32.1332 42.1846C32.5323 42.2225 32.7006 42.2082 33.0924 42.1771C33.0062 42.719 33.0626 43.7187 32.3145 43.6749L32.1695 43.5834C32.0385 42.8852 32.2358 42.5519 32.1332 42.1846Z" fill="#F0EFF0"/>
<path d="M31.1873 42.2434C31.4977 42.2641 31.6986 42.292 32.0023 42.2284L31.9172 42.7963C31.802 43.161 31.7953 43.3326 31.4303 43.4861C30.9553 43.3258 30.9236 42.7356 31.0447 42.3189L31.1873 42.2434Z" fill="#F0EFF0"/>
<path d="M29.6848 42.2652C30.0328 42.2869 30.3757 42.2652 30.724 42.2501C30.6735 42.6274 30.6684 43.4617 30.1875 43.4996C29.9431 43.3699 29.8808 43.2351 29.7678 42.9805L29.6848 42.2652Z" fill="#F0EFF0"/>
<path d="M35.3167 39.1543L35.622 39.3404C35.7015 39.6999 35.8252 40.2746 35.5022 40.5444L35.3679 40.5283C35.036 40.1384 35.1896 39.6006 35.3167 39.1543Z" fill="white"/>
<path d="M26.9814 41.3154C26.4113 40.7741 26.5756 40.1328 26.9854 39.5399C27.2078 39.9081 27.1036 40.8995 26.9814 41.3154Z" fill="white"/>
<path d="M34.5794 42.0047C34.6092 41.6344 34.8662 41.5495 35.1699 41.3527C35.1447 41.7002 35.1433 42.0565 35.0026 42.3728L34.881 42.4719C34.6669 42.3889 34.7292 42.411 34.588 42.1755L34.5794 42.0047Z" fill="#F0EFF0"/>
<path d="M35.7798 39.1836L35.7481 38.9953L35.8467 38.918C36.3982 39.0112 36.2186 39.8444 36.0993 40.2179C35.903 39.9355 35.909 39.5748 35.7798 39.1836Z" fill="white"/>
<path d="M27.0813 42.0291C26.9972 42.2756 26.9758 42.3583 26.7376 42.4373L26.6302 42.3473C26.5093 41.9872 26.5115 41.5783 26.8751 41.3892C26.9537 41.5992 27.0424 41.8089 27.0813 42.0291Z" fill="#F0EFF0"/>
<path d="M35.4028 42.1535C35.3821 41.9964 35.3639 41.839 35.3475 41.6817C35.3201 41.4075 35.3021 41.223 35.478 41.0066C35.703 41.1895 35.6931 41.5447 35.7299 41.8524L35.4028 42.1535Z" fill="#F0EFF0"/>
<path d="M31.3943 39.7037C32.3986 39.9819 32.4925 41.4615 31.7651 41.897C31.5557 41.9177 31.4534 41.9488 31.2646 41.8597C30.7152 41.3398 31.0127 40.2316 31.3943 39.7037Z" fill="white"/>
<path d="M29.9083 39.676C30.2797 39.7193 30.3763 39.9308 30.5852 40.2149C30.6309 40.6524 30.8363 41.7114 30.4091 41.9416C30.1873 41.9375 29.9773 41.923 29.7566 41.9083C29.2431 41.5331 29.6543 40.1376 29.9083 39.676Z" fill="white"/>
<path d="M34.0063 39.0761C34.4792 39.2724 34.4056 41.0326 34.3393 41.4805C34.2056 41.6094 33.9996 41.5785 33.769 41.597C33.7257 41.6172 33.6463 41.6193 33.5944 41.6247C33.5278 41.5525 33.5131 41.5353 33.4943 41.4351C33.3364 40.6118 33.5214 39.7598 34.0063 39.0761Z" fill="white"/>
<path d="M28.6525 39.653C28.9586 39.7083 29.0536 39.8482 29.262 40.0721C29.2585 40.4454 29.3493 41.5732 29.1833 41.8337L28.9795 41.8589C28.7344 41.8275 28.4763 41.7778 28.2317 41.7348C28.3082 40.8334 28.3455 40.4964 28.6525 39.653Z" fill="white"/>
<path d="M27.5223 39.0692C28.3891 39.4346 28.185 40.8967 27.9294 41.6067C27.735 41.6024 27.6569 41.6137 27.4753 41.5372C27.1128 41.1768 27.2992 39.4953 27.5223 39.0692Z" fill="white"/>
<path d="M32.7646 39.6739C33.3739 39.9382 33.401 41.197 33.2214 41.7389C33.2058 41.7867 33.0439 41.8243 32.9872 41.8439C32.7496 41.8605 32.6674 41.8645 32.4257 41.8404C32.2657 41.5971 32.4464 40.4094 32.4714 40.0891C32.484 39.9242 32.6411 39.7821 32.7646 39.6739Z" fill="white"/>
<path d="M34.6375 39.5353C35.1955 39.7467 35.0916 40.839 34.9447 41.291C34.8529 41.3092 34.8008 41.3025 34.7076 41.3014C34.4839 40.9926 34.5545 39.9089 34.6375 39.5353Z" fill="#F0EFF0"/>
<path d="M42.3835 21.3378C42.2713 21.7105 42.2398 22.0319 42.5881 22.3131C42.8526 22.7416 42.9439 23.2897 43.0728 23.4639C43.0113 23.7813 42.9154 23.6267 42.8462 23.9637L42.7906 24.4199L42.8027 24.5611C42.6115 24.7193 42.7044 24.6822 42.4496 24.6949C42.3252 24.6237 42.3209 24.6465 42.2586 24.5399C41.9318 24.2317 41.6222 23.8995 41.3113 23.5746C41.459 22.9051 41.9667 21.8525 42.3835 21.3378Z" fill="#F0EFF0"/>
<path d="M42.5887 22.313C42.8532 22.7416 42.9445 23.2896 43.0734 23.4639C43.0119 23.7813 42.916 23.6266 42.8467 23.9636L42.7911 24.4199C42.4345 24.2126 42.4254 23.2561 42.2917 22.7676L42.4498 22.5877L42.5887 22.313Z" fill="#F0EFF0"/>
<path d="M42.5892 22.313C42.8537 22.7416 42.945 23.2896 43.0739 23.4639C43.0124 23.7813 42.9165 23.6266 42.8473 23.9636C42.8266 23.5337 42.7025 22.9465 42.4504 22.5877L42.5892 22.313Z" fill="#1B211D"/>
<path d="M42.2915 22.7676C42.4253 23.2561 42.4344 24.2125 42.791 24.4198L42.8031 24.5611C42.6119 24.7192 42.7048 24.6822 42.45 24.6948C42.3256 24.6237 42.3213 24.6465 42.259 24.5399C42.3893 24.2695 42.0748 23.5138 42.2915 22.7676Z" fill="#1B211D"/>
<path d="M23.8414 34.3206C25.6027 33.6928 26.4424 33.5609 27.6771 35.1592C26.5823 34.3845 26.4056 34.0872 25.0423 34.4079C25.4991 34.7011 25.9781 34.9108 26.0114 35.5179C25.6642 35.4844 24.9786 34.4275 23.8122 34.8633L23.7195 34.7835C23.6964 34.5287 23.7174 34.5803 23.8414 34.3206Z" fill="#040304"/>
<path d="M36.5687 34.3872C36.8415 34.4546 36.7722 34.3974 36.9043 34.5743L36.9011 34.794L36.7934 34.8464C36.49 34.9476 35.7881 35.453 35.4395 35.6605C35.8393 34.8995 35.8579 34.8665 36.5687 34.3872Z" fill="#040304"/>
<path d="M18.9667 24.6177C19.3461 23.8353 19.0727 23.0031 19.0905 22.1567C19.2156 22.5759 19.3872 23.0772 19.4524 23.5109C19.5069 23.8729 19.2306 24.3173 19.3477 24.6048C19.2083 24.7004 19.1777 24.654 18.9667 24.6177Z" fill="#333634"/>
<path d="M19.7545 34.413L19.8418 34.3735L19.9186 34.1512C20.2381 34.4197 20.8957 34.6294 21.3391 34.9063C21.004 34.8364 19.9806 34.6404 19.7545 34.413Z" fill="#2C272C"/>
<path d="M21.3116 33.6818C21.9913 33.652 22.5273 33.6504 23.2093 33.6813C22.8358 33.779 22.3774 33.9133 22.0028 33.968C21.7722 33.7009 21.6999 33.7411 21.3116 33.6818Z" fill="#333634"/>
<path d="M41.6198 34.1667C41.7103 34.2336 41.8534 34.3488 41.9523 34.3891C41.506 34.6039 40.9329 34.7642 40.4523 34.9138C40.7775 34.6801 41.2629 34.4028 41.6198 34.1667Z" fill="#2C272C"/>
<path d="M28.7561 27.3626C29.5824 27.0041 30.3066 26.1779 30.8871 25.4953C31.4564 26.2866 32.1191 27.0417 33.0302 27.4353C33.2778 27.1386 33.6699 27.1209 34.0181 27.2243L34.2066 27.394C35.3618 26.8003 41.6896 23.8973 40.9458 27.7608C40.8073 28.1687 40.5038 28.7041 40.5237 29.1399C40.571 30.1869 41.4552 31.2068 40.0898 31.8166C39.8374 31.9294 39.3505 31.9694 39.227 32.0166C38.379 32.3413 34.56 31.0333 34.2499 31.2691L34.244 31.565C33.6709 31.4817 32.9502 29.7597 32.5619 29.3148L32.386 29.4154L32.1873 29.5156L32.0088 29.4275C32.0088 29.4275 32.0875 28.8905 31.9532 28.8905C31.8189 28.8905 32.0088 28.452 32.0088 28.452L31.8189 28.4877L31.5504 28.8905C31.3361 28.6593 31.1272 28.2603 30.7859 28.257C30.5458 28.2549 30.1143 28.517 29.9836 28.7135C30.1001 29.1158 30.0767 29.5803 29.9709 29.9834C29.762 29.7823 29.8606 28.7619 29.6882 28.4144L29.5687 28.6971L29.2886 28.9085C28.9065 29.3062 28.5384 30.605 27.7994 31.2903C27.4108 31.4068 27.2376 31.1676 26.9575 31.228C25.3402 31.5776 22.2731 32.841 20.9606 31.3547C20.5841 30.9283 21.1195 29.5529 21.2557 28.9592C21.028 28.4697 20.7031 27.919 20.6158 27.3859C20.5623 27.0618 20.6061 26.7509 20.8099 26.4853C21.0591 26.1607 21.4863 25.9593 21.8744 25.8607C24.4251 25.212 27.5625 28.0299 29.1361 27.8032C29.6517 27.7291 30.2435 27.3851 30.545 26.956C30.6422 26.818 30.6449 26.673 30.6208 26.5119L30.4948 26.4329C29.9433 27.119 29.737 27.4128 28.827 27.5146C28.7529 27.5226 28.6791 27.5304 28.6047 27.5371C28.1745 27.3674 27.8856 27.2305 27.4734 27.0202C27.8703 27.1206 28.3791 27.2358 28.7561 27.3626Z" fill="#1B1A1A"/>
<path d="M28.7572 27.3626C29.5835 27.0041 30.3077 26.1779 30.8882 25.4953C31.4575 26.2866 32.1202 27.0417 33.0313 27.4353L33.1014 27.4818C32.2467 27.8542 31.5338 26.6915 30.9736 26.3384L30.8815 26.4176C30.6852 26.3897 30.6203 26.3406 30.4959 26.4329C29.9444 27.119 29.7382 27.4128 28.8281 27.5146C28.754 27.5226 28.6802 27.5304 28.6058 27.5371C28.1756 27.3674 27.8867 27.2305 27.4745 27.0202C27.8714 27.1206 28.3802 27.2358 28.7572 27.3626Z" fill="#1B1A1A"/>
<path d="M30.8798 26.4177L30.9719 26.3384C31.532 26.6916 32.2449 27.8543 33.0997 27.4818L33.0296 27.4354C33.2772 27.1386 33.6692 27.1209 34.0175 27.2243L34.206 27.394C33.9657 27.5049 33.6082 27.6749 33.3628 27.7458C32.8327 27.8937 32.2659 27.8282 31.7836 27.5632C31.314 27.3003 31.0213 26.9281 30.8798 26.4177Z" fill="#F0EFF0"/>
<path d="M30.4612 30.0108C30.5375 30.083 30.6299 30.3526 30.6954 30.484L30.8049 30.495C30.9164 30.3481 30.9558 30.267 31.125 30.195C31.4413 30.3094 31.9421 31.3204 32.2579 31.8091C32.8224 32.6821 33.6878 36.0416 31.7716 35.8107C31.4878 35.7766 31.2152 35.3308 31.0724 35.0309C30.9921 34.8263 30.9607 34.7484 30.8415 34.5542L30.7681 34.5564L30.7289 34.6617C30.2582 35.9165 29.3079 36.4634 28.7682 35.0271C28.1814 33.4656 29.8143 31.2372 30.4612 30.0108Z" fill="#1B1A1A"/>
<path d="M20.7372 20.5572C20.7788 20.5977 20.7876 20.6074 20.8059 20.664C21.1257 21.6283 21.6582 22.7037 22.6308 23.1353C23.6174 23.5732 25.4326 23.0185 25.9745 24.1522C24.7833 23.4237 23.9143 23.7725 22.6219 23.5107C21.7081 23.3256 20.4882 21.3638 20.7372 20.5572Z" fill="#040304"/>
<path d="M40.9727 20.8305C41.0476 21.1138 40.3707 22.3909 40.1687 22.6594C39.2979 23.8175 37.4182 23.6972 36.0549 23.8608C36.0136 23.7281 36.0152 23.7955 36.0686 23.6527C36.7977 23.2805 37.9005 23.4333 38.6867 23.262C39.8291 23.0128 40.3803 21.7349 40.9727 20.8305Z" fill="#040304"/>
<path d="M27.8749 23.385C28.4203 23.4363 29.9657 25.0901 31.0328 24.9317C31.9138 24.8012 33.2006 23.4886 33.739 23.4379L33.7242 23.5501C33.4981 23.7338 33.2701 23.9153 33.0406 24.0947C32.5768 24.4548 31.2358 25.393 30.6673 25.273C29.9681 25.1253 28.2694 23.9311 27.8749 23.385Z" fill="#040304"/>
<path d="M28.2886 21.9725C28.559 22.0072 30.1239 23.2647 30.7536 23.581C31.973 23.1355 32.0463 22.6984 33.1118 22.0885C33.2603 22.0034 33.2563 22.0236 33.3812 22.0665L33.3436 22.1645C32.6688 22.653 31.4013 23.9167 30.7187 23.875C30.1159 23.8382 28.6857 22.4419 28.2886 21.9725Z" fill="#040304"/>
<path d="M33.0376 31.3776C33.4981 31.5994 33.783 31.9423 34.4369 32.1413C34.7908 32.2492 35.315 32.2312 35.4473 32.3236L35.3802 32.3932C35.0454 32.4509 34.6501 32.4187 34.3058 32.4052C34.3633 32.7688 34.5932 32.7414 34.6571 33.1327L34.5972 33.1936C34.5736 33.1775 34.4554 33.0953 34.4401 33.0771C34.1439 32.7245 33.0744 31.7629 33.0376 31.3776Z" fill="#1B1A1A"/>
<path d="M28.417 31.4323C28.5086 31.4417 28.5062 31.4493 28.5846 31.5005C28.087 32.2403 27.4716 32.8939 26.7627 33.4347C26.9982 33.0201 27.1273 32.8636 27.4275 32.4981C27.2739 32.3346 26.2302 32.3955 25.8604 32.3765C27.1617 32.1036 27.4157 32.3144 28.417 31.4323Z" fill="#1B1A1A"/>
<path d="M29.6877 28.4143L29.7202 28.2814L29.8386 28.2758C29.8859 28.4651 29.8953 28.5886 29.9135 28.7793L29.9831 28.7135C30.0996 29.1157 30.0762 29.5803 29.9704 29.9833C29.7615 29.7822 29.8601 28.7618 29.6877 28.4143Z" fill="#333634"/>
<path d="M29.2898 28.9084L29.5699 28.6971C29.5855 29.8767 29.4179 30.443 29.0423 31.5625C29.0334 30.7905 29.4536 29.2046 29.2898 28.9084Z" fill="#333634"/>
<path d="M31.7905 28.492L31.758 28.3591L31.6396 28.3535C31.5924 28.5428 31.583 28.6663 31.5647 28.857L31.4951 28.7912C31.3786 29.1934 31.402 29.658 31.5078 30.061C31.7167 29.8599 31.6181 28.8395 31.7905 28.492Z" fill="#333634"/>
<path d="M32.1895 28.9861L31.9095 28.7748C31.8939 29.9544 32.0615 30.5207 32.4371 31.6402C32.446 30.8682 32.0257 29.2823 32.1895 28.9861Z" fill="#333634"/>
<path d="M20.7118 15.8583L20.763 15.9082C20.8135 16.2399 19.9481 17.7677 19.7389 18.1539L19.6932 18.054C19.8519 17.2912 20.2851 16.5054 20.7118 15.8583Z" fill="#1B1A1A"/>
<path d="M40.7499 15.7846C41.2681 16.0623 41.8535 17.5311 41.9526 18.1203C41.7485 18.0067 40.8847 16.1003 40.7499 15.7846Z" fill="#1B211D"/>
<path d="M21.5275 13.8497L21.5825 13.9089C21.5511 14.2031 20.2552 15.6208 19.9773 15.9356L19.9241 15.8632C19.9335 15.6715 21.296 14.08 21.5275 13.8497Z" fill="#4D474D"/>
<path d="M35.1265 11.1926C35.5884 11.1817 37.3368 11.8393 37.7178 12.1904C37.4896 12.2173 35.2533 11.3635 35.1265 11.1926Z" fill="#4D474D"/>
<path d="M36.2578 24.9628L36.3039 24.994L36.2873 25.0665C35.6498 25.3643 35.0169 25.6712 34.3883 25.9875L34.3058 25.9727C34.5999 25.4658 35.7167 25.0635 36.2578 24.9628Z" fill="#1B1A1A"/>
<path d="M42.7983 17.26C43.2092 17.5784 43.474 19.3882 43.468 19.9167C43.3324 19.805 42.8531 17.5765 42.7983 17.26Z" fill="#1B211D"/>
<path d="M18.8146 17.0747L18.8761 17.1605C18.7974 17.9084 18.5254 18.9095 18.3342 19.6466C18.11 19.3313 18.6506 17.4401 18.8146 17.0747Z" fill="#333634"/>
<path d="M25.3035 25.0197C26.0228 24.933 26.9058 25.5694 27.493 25.9477C26.9536 25.8988 25.8306 25.2869 25.3035 25.0197Z" fill="#1B1A1A"/>
<path d="M25.9664 11.3232C26.062 11.3013 26.0148 11.3026 26.1082 11.3356C25.9135 11.5327 24.3719 12.1134 23.992 12.2624L23.8722 12.2164C24.0341 11.9884 25.6262 11.4056 25.9664 11.3232Z" fill="#4D474D"/>
<path d="M38.0865 13.585C38.2785 13.6779 39.7795 15.1191 39.8429 15.3395C39.4783 15.1854 38.1531 13.9525 38.0865 13.585Z" fill="#333634"/>
<path d="M23.4302 13.7025L23.5213 13.7417C23.4574 14.0902 22.3661 14.9793 22.0497 15.231C22.0261 15.2179 22.0028 15.2048 21.9791 15.1918C22.0549 14.9984 23.1784 13.9738 23.4302 13.7025Z" fill="#4D474D"/>
<path d="M39.8603 13.7727C40.3329 13.9863 41.251 15.0519 41.4948 15.4942C41.1565 15.4304 40.1307 14.1084 39.8603 13.7727Z" fill="#333634"/>
<path d="M33.9023 44.094C33.9802 44.0065 34.4831 43.3862 34.4912 43.3792C35.4729 42.5296 36.4253 41.6878 37.3405 40.7619C37.5577 40.542 37.7779 40.0076 38.0166 39.9016L38.1533 39.9177C38.236 40.0871 38.2304 40.1301 38.251 40.3218C38.3284 40.3036 38.3421 40.3221 38.3888 40.2598C38.7255 39.8097 39.7043 40.1489 40.1385 40.307C39.7389 40.77 38.7266 41.7845 38.1764 42.0315C38.0631 41.9842 38.007 41.9577 37.8842 41.9311C37.8313 42.0618 37.862 42.1129 37.9004 42.2498C37.5862 42.8304 37.2092 43.184 36.8821 43.8585C36.7653 44.0417 36.6224 44.3075 36.4506 44.42L36.4143 44.3878C36.3754 44.3814 36.1931 44.2817 36.1453 44.257C36.0886 44.4042 35.8494 44.8054 35.7632 44.9952C35.4227 45.7444 35.4458 46.2935 35.3969 47.0865C33.8228 48.4092 32.5347 48.0814 30.8019 47.4976C29.2291 48.1651 27.6588 48.2991 26.2987 47.0728C26.2241 46.8053 26.1811 46.387 26.1411 46.0945C26.0098 45.1324 25.7585 44.6171 25.2791 43.7938C25.2504 43.8717 25.1733 44.0632 25.157 44.1359C25.1639 44.2449 25.1553 44.2519 25.1357 44.3575C25.0359 44.2973 24.1768 42.8449 23.9497 42.5433L23.6755 42.5277C23.4199 42.3956 21.6191 40.4486 21.5775 40.1902C21.7185 40.0995 21.7558 40.1011 21.9239 40.0659C22.3259 40.0525 22.74 39.9988 23.165 39.9851L23.2808 40.0452C23.7013 39.8986 23.6613 39.8441 23.944 40.2332C24.3439 40.7831 24.7383 41.2251 25.2485 41.6792C25.2987 41.5508 25.4094 41.4029 25.4891 41.2853L25.65 41.6738C25.8538 41.8594 25.719 42.0973 26.0009 42.3674C26.3224 42.6749 26.6534 42.6886 26.9969 42.9413C27.3054 43.242 27.4045 43.7796 27.9169 43.8811C28.227 43.7981 28.3927 43.6091 28.6158 43.6273L28.5718 43.6915C28.7353 43.8763 28.9848 44.177 29.1679 44.3231C29.2665 44.253 29.8057 43.8669 29.8728 43.861C30.4901 43.821 31.209 43.8642 31.8231 43.8999C32.1614 43.9195 32.2267 44.506 32.7678 44.0288C33.25 43.6037 33.3897 43.8878 33.9023 44.094Z" fill="white"/>
<path d="M25.4883 41.2853L25.6491 41.6738C25.8529 41.8594 25.7181 42.0973 26.0001 42.3674C26.3215 42.6749 26.6526 42.6886 26.996 42.9413C27.3046 43.242 27.4037 43.7796 27.916 43.8811C28.2262 43.7981 28.3918 43.6091 28.615 43.6273L28.571 43.6915C27.7152 44.4243 27.3752 43.7143 26.9429 43.0412C26.039 42.6977 25.8986 42.4013 25.2477 41.6792C25.2979 41.5509 25.4085 41.4029 25.4883 41.2853Z" fill="#040304"/>
<path d="M36.1453 44.2571C36.4622 43.6577 36.7769 43.0425 37.1324 42.4663C37.0068 43.0087 36.9128 43.2383 36.6808 43.7249L36.8822 43.8586C36.7654 44.0417 36.6225 44.3075 36.4506 44.4201L36.4144 44.3878C36.3755 44.3814 36.1931 44.2818 36.1453 44.2571Z" fill="#1B1A1A"/>
<path d="M36.6809 43.7249L36.8823 43.8586C36.7655 44.0417 36.6226 44.3076 36.4507 44.4201L36.4145 44.3879C36.4507 44.2087 36.6008 43.9034 36.6809 43.7249Z" fill="#B6B6B7"/>
<path d="M24.6524 42.778C24.9099 43.1542 25.0643 43.3895 25.2781 43.7939C25.2493 43.8717 25.1723 44.0632 25.1559 44.136C25.0278 43.8991 24.7569 43.0753 24.6524 42.778Z" fill="#333634"/>
<path d="M23.6758 42.5278C23.6756 42.1916 23.4726 42.1706 23.4903 41.9209C23.7862 42.0162 23.8925 42.263 23.95 42.5433L23.6758 42.5278Z" fill="#4A524F"/>
<path d="M30.8713 46.6231C31.3608 46.8698 31.9505 47.1888 32.4575 47.3677C32.3742 47.4396 32.2322 47.572 32.1441 47.6236L30.7631 47.2707C30.2518 47.4294 29.8012 47.5433 29.28 47.669L29.0939 47.4453C29.4623 47.3357 30.3982 46.8277 30.8713 46.6231Z" fill="#040304"/>
<path d="M32.4581 47.3677C32.8493 47.4675 33.5872 47.4786 33.7282 47.5583C33.4949 47.7855 32.493 47.674 32.1447 47.6236C32.2328 47.572 32.3748 47.4396 32.4581 47.3677Z" fill="#2C272C"/>
<path d="M29.2802 47.669C28.9612 47.7012 28.0377 47.7817 27.8192 47.5304C28.0391 47.4165 28.7842 47.4498 29.0941 47.4453L29.2802 47.669Z" fill="#2C272C"/>
<path d="M21.537 39.6946C21.3893 39.4065 21.831 37.269 22.4913 37.4189C22.8213 37.8066 22.7002 38.5883 22.7982 39.1436L22.8095 39.2051C22.8232 38.947 22.8232 38.4978 22.9215 38.2787C23.0568 38.3949 23.0807 38.6809 23.1213 38.8764C23.1682 39.2196 23.1151 39.2846 23.31 39.487L23.5799 39.5491L23.5716 39.7255C23.4011 39.8675 23.3667 39.893 23.1656 39.9851C22.7405 39.9988 22.3264 40.0525 21.9244 40.066C21.781 40.0217 21.6334 40.0665 21.3874 39.9878L21.3565 39.8737L21.537 39.6946Z" fill="white"/>
<path d="M22.8095 39.2051C22.8232 38.947 22.8232 38.4978 22.9215 38.2787C23.0568 38.3949 23.0807 38.6809 23.1213 38.8764C23.1682 39.2196 23.1151 39.2846 23.31 39.487L23.5799 39.549L23.5716 39.7255C23.4011 39.8675 23.3667 39.893 23.1656 39.9851C22.7405 39.9988 22.3264 40.0525 21.9244 40.066C21.781 40.0217 21.6334 40.0665 21.3874 39.9878L21.3565 39.8737L21.537 39.6946C21.925 39.5633 22.5493 39.5789 22.8057 39.4271L22.8095 39.2051Z" fill="#040304"/>
<path d="M39.2265 37.3079C39.7214 37.4344 40.3076 39.3203 40.1229 39.6914L39.9693 39.6814C39.5984 39.6462 39.1801 39.5692 38.8087 39.5098C38.9422 38.6761 38.78 37.9851 39.2265 37.3079Z" fill="white"/>
<path d="M25.7468 40.1935C25.3459 39.8761 25.2954 39.429 25.537 38.9996C25.7293 38.8648 25.6447 38.8828 25.8523 38.9137L25.9259 39.038L26.0687 38.9897L26.2247 39.0923C26.5419 39.5098 26.6248 40.2024 26.2916 40.6218L26.1579 40.6551C26.0204 40.5176 26.0118 40.4499 25.9492 40.2692C25.8432 40.2536 25.8472 40.2437 25.7468 40.1935Z" fill="#F0EFF0"/>
<path d="M25.7468 40.1935C25.3459 39.8761 25.2954 39.429 25.537 38.9996C25.7293 38.8648 25.6447 38.8828 25.8523 38.9137L25.9259 39.038C25.6973 39.6105 25.8885 39.9341 25.7468 40.1935Z" fill="#F0EFF0"/>
<path d="M25.9268 39.038L26.0697 38.9897L26.2257 39.0923C25.922 39.5482 26.0931 39.8699 25.9502 40.2692C25.8441 40.2536 25.8482 40.2437 25.7477 40.1935C25.8895 39.9341 25.6983 39.6105 25.9268 39.038Z" fill="#1B211D"/>
<path d="M34.3021 41.9703C34.4565 42.3097 34.182 43.2152 33.8195 43.4351C33.2387 43.4456 33.2451 42.5554 33.2247 42.1438C33.6423 42.1204 33.9073 42.1266 34.3021 41.9703Z" fill="#F0EFF0"/>
<path d="M23.1205 38.8764C23.1165 38.4956 23.0633 37.2257 23.15 36.9188L23.226 36.8968C23.6028 37.382 23.7258 38.9685 23.5791 39.549L23.3093 39.487C23.1143 39.2845 23.1675 39.2195 23.1205 38.8764Z" fill="#F0EFF0"/>
<path d="M38.4702 36.7228L38.5656 36.831C38.5661 37.5512 38.5559 38.3536 38.4947 39.0711C38.4673 39.3936 38.4222 39.4269 38.213 39.5901C38.1671 39.5407 38.1107 39.4559 38.0693 39.3987C37.9901 38.5676 38.0503 37.4575 38.4702 36.7228Z" fill="#F0EFF0"/>
<path d="M38.4385 35.6568L39.5617 36.0797C39.3115 36.1651 39.0628 36.254 38.8152 36.3466C38.446 36.2787 38.0857 36.2317 37.7143 36.182C37.6329 36.4479 37.6238 36.5802 37.4251 36.7311L37.3126 36.6683L37.2822 36.4632C37.5669 35.7994 37.9044 36.359 38.4385 35.6568Z" fill="#F0EFF0"/>
<path d="M36.9008 34.794C37.2528 34.7819 37.6548 34.7212 37.9212 34.9336C37.8036 35.163 37.3151 35.2513 37.0576 35.3265L36.7931 34.8464L36.9008 34.794Z" fill="#F0EFF0"/>
<path d="M25.4893 41.2853L25.4858 41.2394C25.4617 40.9424 25.3454 40.6629 25.4332 40.4387C25.6137 40.4534 25.546 40.4312 25.6996 40.5813C25.8099 40.8968 25.847 41.3879 25.6502 41.6739L25.4893 41.2853Z" fill="white"/>
<path d="M26.1525 40.8716L26.3238 41.0313C26.4449 41.4381 26.3389 41.7475 26.2422 42.1554L26.0779 41.9808C25.9688 41.5536 26.044 41.299 26.1525 40.8716Z" fill="white"/>
<path d="M36.0493 40.3605L36.2037 40.4123C36.3254 40.7751 36.2373 41.075 36.0917 41.4091L36.0176 41.4491L35.9336 40.9545C35.8909 40.7015 35.9529 40.5984 36.0493 40.3605Z" fill="white"/>
<path d="M23.7672 35.9439C24.1914 36.0373 24.4642 36.4202 24.3856 36.8541C24.1178 36.7432 23.8692 36.2105 23.7672 35.9439Z" fill="#F0EFF0"/>
<path d="M43.4571 22.1422L43.6781 21.8877C43.7393 22.1825 43.8397 22.6468 43.6523 22.9094L43.5532 22.8938C43.4002 22.5947 43.5825 22.357 43.4571 22.1422Z" fill="#B6B6B7"/>
<path d="M4.95475 44.5052C4.58233 43.5761 3.67874 43.0337 3.77606 41.9523C3.84136 41.2268 4.32957 40.4663 4.87545 40.0066C5.43125 39.5404 6.15052 39.3157 6.8729 39.3831C7.53866 39.4408 8.29872 39.8065 8.73494 40.3245C8.92672 40.3323 9.8596 39.5227 10.3015 39.4346C12.5099 38.9945 14.9848 40.9948 13.7528 43.2834C15.9985 41.632 17.6722 40.7662 20.3129 39.9379L20.5519 40.0302C20.5728 40.2032 20.5355 40.2142 20.4598 40.3887C19.6588 40.7096 18.9676 40.8715 18.0995 41.2654C16.8326 41.8403 15.8941 42.451 14.7074 43.1314L14.8667 43.1389C17.6873 43.2872 18.9945 46.546 16.8557 48.4251C18.7053 50.1063 17.9389 53.193 15.4744 53.7419C14.4389 53.9725 13.556 52.9938 12.7546 52.3982C13.2652 53.1737 14.0984 53.8168 14.103 54.824C14.1167 56.4397 12.4168 57.6016 10.912 57.5595C9.95898 57.5326 9.43069 57.1409 8.81131 56.4921C7.25249 58.2308 4.70123 57.7802 3.91631 55.5413C3.42308 54.1345 4.39989 53.588 4.95765 52.4844C4.32989 53.0284 3.4813 53.8888 2.62701 53.7693C0.00561299 53.4027 -0.873001 50.2336 1.03576 48.4713C0.614682 48.0484 0.319304 47.7038 0.133216 47.1201C-0.403217 45.4378 0.793573 43.2689 2.64863 43.176C3.65782 43.1255 4.27527 43.868 4.95475 44.5052Z" fill="#040304"/>
<path d="M14.8135 43.6829C16.259 43.4899 17.3277 44.8129 17.4136 46.1684C17.4832 47.2616 16.8532 47.725 16.1674 48.4651C16.3127 48.6472 16.5216 48.8824 16.6876 49.0462C17.7939 50.1506 17.5984 51.794 16.4129 52.7526C15.3476 53.614 14.8597 53.4059 13.8506 52.6503C12.747 51.7814 11.6088 50.8885 10.612 49.8985C10.1321 49.4216 9.67754 48.9251 9.16656 48.4807C10.6307 47.0851 13.03 44.6265 14.8135 43.6829Z" fill="white"/>
<path d="M8.81534 48.823C9.39082 49.4527 10.2476 50.2524 10.77 50.8313C11.3757 51.5026 13.1743 53.6049 13.4966 54.2945C13.5938 54.5021 13.6384 54.7306 13.626 54.9596C13.5632 56.2195 12.004 57.1368 10.8476 57.049C9.94283 56.9803 9.51928 56.5649 8.95957 55.9424C8.95339 55.8253 8.96067 55.8812 8.8709 55.763C8.67249 55.8178 8.47442 56.1392 8.32123 56.3057C6.60876 58.1671 3.39119 56.3581 4.55309 53.9266C5.54221 51.8568 7.30177 50.4562 8.81534 48.823Z" fill="white"/>
<path d="M6.53527 39.8699C7.69326 39.9244 8.00222 40.2856 8.77979 41.1315C10.0537 39.8979 11.2754 39.1911 12.926 40.6546C13.1917 40.8901 13.6879 41.6492 13.6296 42.0077C13.4108 43.3548 11.5932 45.0729 10.672 45.9711C10.087 46.5519 9.29762 47.4662 8.82904 48.1356C7.51807 46.5707 4.80374 44.5369 4.31272 42.248C4.20214 41.7324 4.57109 40.9424 4.90825 40.5493C5.37846 40.001 5.86305 39.9397 6.53527 39.8699Z" fill="white"/>
<path d="M2.37688 43.676C3.72265 43.5304 4.43542 44.7713 5.36012 45.5094C6.46354 46.3902 7.40795 47.5905 8.46365 48.4748C7.8403 48.9895 7.32183 49.6273 6.73631 50.1485C5.88205 50.9089 5.12596 51.5963 4.3162 52.4059C3.87896 52.7988 3.41742 53.197 2.80233 53.2432C1.26057 53.3589 0.258005 51.5362 0.541809 50.1753C0.711678 49.3609 1.24215 48.8622 1.91368 48.4353C-0.27475 47.2272 0.142887 44.5231 2.37688 43.676Z" fill="white"/>
<path d="M52.4554 40.3192C54.0853 38.4752 57.3519 39.5883 57.5805 41.9891C57.672 42.9518 56.7257 43.799 56.1927 44.5627C57.0222 43.9749 57.9352 42.9268 59.0517 43.2053C61.3836 43.7872 62.2012 46.778 60.3167 48.4461C60.9381 49.0621 61.3524 49.6705 61.364 50.5894C61.375 51.4675 61.0391 52.3144 60.4293 52.9463C59.9392 53.4457 59.3519 53.7451 58.6425 53.7666C57.567 53.7991 57.03 52.8821 56.1318 52.3794C56.7513 53.1146 57.6983 53.9879 57.5778 55.0171C57.3869 56.6476 55.6291 57.6938 54.0872 57.5617C53.2508 57.5114 52.8439 56.7894 52.4116 56.682C50.5695 58.422 47.5817 57.4094 47.2487 54.8748C47.1458 54.0918 48.1206 53.0459 48.6227 52.464C48.0631 52.7261 47.4219 53.3641 46.8467 53.7258C46.6488 53.7373 46.4402 53.7513 46.2463 53.7521C44.0957 53.7618 42.7514 51.0013 43.8674 49.2294C44.0036 49.0129 44.1048 48.8744 44.2758 48.6915C44.35 48.6126 44.4251 48.5347 44.5019 48.4582C42.3481 46.368 43.7337 43.2064 46.6826 43.1236C44.7936 42.1709 44.1784 41.5893 41.9426 40.7421C41.9507 40.5815 41.9971 40.5872 42.137 40.4465L42.1276 40.3901L42.2651 40.3331C44.2992 41.0455 45.8741 42.0176 47.5889 43.299C46.0379 40.4951 50.2879 37.9771 52.4554 40.3192Z" fill="#040304"/>
<path d="M58.2643 43.6727C60.5245 43.427 62.1467 46.7232 59.5398 48.4125L59.5549 48.5319C60.1206 48.7905 60.7546 49.6133 60.85 50.2392C60.9617 50.9731 60.7195 51.8047 60.2756 52.3982C59.9147 52.8847 59.3707 53.2029 58.7694 53.2784C58.1473 53.3506 57.7493 52.9682 57.2896 52.6071C56.393 51.9188 55.5058 51.2258 54.6725 50.4594C54.0125 49.8523 53.3506 49.0636 52.6718 48.5019C53.9462 47.1716 56.6465 44.5309 58.2643 43.6727Z" fill="white"/>
<path d="M45.8666 43.6824C45.97 43.6682 46.0739 43.6561 46.1784 43.6537C47.4388 43.6244 51.1168 47.4772 52.1504 48.4759C51.533 49.0398 50.9165 49.7516 50.2922 50.3389C49.5239 51.0615 48.7857 51.6487 47.9528 52.2889C47.202 52.8888 46.4407 53.6474 45.4294 53.1031C44.7624 52.7411 44.271 52.1243 44.0672 51.3934C43.8266 50.5612 43.9706 49.5951 44.6548 49.0202C44.796 48.9015 45.2197 48.5736 45.2914 48.4415C44.9235 48.1754 44.2281 47.5495 44.0962 47.1335C43.6137 45.6096 44.3959 44.176 45.8666 43.6824Z" fill="white"/>
<path d="M52.4511 48.9522C53.6441 50.5285 56.574 52.8703 57.1637 54.7757C56.7824 56.4269 55.1342 57.5923 53.5187 56.8879C53.0246 56.675 52.6361 56.2733 52.4395 55.7725C52.3316 55.9293 52.2513 56.0915 52.1262 56.237C51.7132 56.7201 51.1208 57.0136 50.4863 57.0498C49.7446 57.0858 48.9339 56.7784 48.3945 56.2706C48.0247 55.9223 47.7468 55.4368 47.7411 54.9186C47.7258 53.5373 51.3799 50.072 52.4511 48.9522Z" fill="white"/>
<path d="M50.1972 39.864C51.1816 39.7459 51.8231 40.3589 52.3833 41.0566L52.4646 41.0472C53.3964 39.2738 56.0092 39.6387 56.8639 41.2703C57.0492 41.6242 57.0886 41.9134 57.1587 42.2982C56.7796 43.2023 54.942 45.3127 54.2296 46.1384C53.7039 46.705 52.8838 47.3277 52.5229 47.9952C52.1494 47.6198 51.5269 46.9246 51.1983 46.5017C50.2262 45.2514 46.712 42.825 48.0957 41.0324C48.6489 40.316 49.3693 40.0012 50.1972 39.864Z" fill="white"/>
<path d="M4.96162 5.46024C4.51643 4.6171 3.65377 4.04841 3.78634 3.01503C4.11142 0.481205 7.08463 -0.491873 8.78107 1.4661C10.4787 -0.378153 13.5223 0.39866 14.0717 2.77166C14.3246 3.86303 13.3843 4.66001 12.8048 5.45776C13.6633 5.00519 14.2613 4.07041 15.3507 4.21624C17.8396 4.54953 18.7945 7.85424 16.8509 9.47701L16.9027 9.52642C17.5306 10.1284 17.8944 10.7373 17.906 11.6331C17.9129 12.5046 17.5719 13.3429 16.9583 13.9621C16.2204 14.7032 15.6165 14.8145 14.6536 14.8258C15.6305 15.2871 16.5773 15.9846 17.6635 16.505C17.5531 16.6553 17.476 16.7968 17.3122 16.873C16.1463 16.3381 14.8783 15.4848 13.786 14.7758C14.3351 15.8258 14.1297 16.8521 13.2699 17.6729C12.6229 18.2814 11.7606 18.6076 10.8729 18.5797C9.94566 18.5432 9.419 18.1895 8.82253 17.5486C7.18111 19.291 4.54573 18.7478 3.86751 16.4335C3.51575 15.2331 4.40781 14.481 4.96312 13.5221C4.34689 13.9971 3.9409 14.3852 3.26623 14.7977C1.22286 14.8447 -0.0699244 13.472 0.00292649 11.371C0.0268252 10.6812 0.543682 9.9513 1.07738 9.52698C-0.777301 7.91871 -0.103893 4.88291 2.29731 4.25212C3.43707 3.95271 4.11477 4.85839 4.96162 5.46024Z" fill="#040304"/>
<path d="M14.9065 4.6687C16.5517 4.72321 17.4862 6.03747 17.3844 7.61003C17.3243 8.54272 16.7053 8.94613 16.0974 9.48036C16.5061 9.89705 17.2883 10.6264 17.3884 11.2165C17.6366 12.6761 16.3732 14.7122 14.715 14.2325C14.519 14.1759 14.0332 13.7879 13.8506 13.6494C12.9136 12.9321 12.0296 12.2254 11.1521 11.4351C10.5556 10.8978 9.75325 9.93782 9.13806 9.52837C10.4259 8.30086 13.295 5.37545 14.9065 4.6687Z" fill="white"/>
<path d="M6.1829 0.916694C7.49433 0.830579 7.906 1.14644 8.68857 2.12022C8.72788 2.13553 8.76716 2.15083 8.80648 2.16614C9.02447 1.95309 9.52881 1.40772 9.7537 1.25665C10.0377 1.06586 10.4974 0.946367 10.7834 0.913097C11.4867 0.834258 12.2133 1.07765 12.7561 1.52294C13.0564 1.76923 13.274 2.06211 13.444 2.40719C13.6006 2.72523 13.6306 3.08081 13.6674 3.42842C13.3903 4.04758 11.5202 6.30678 11.0078 6.90903C10.3126 7.68493 9.45725 8.3738 8.82621 9.19637C8.4201 8.66939 7.8165 8.16773 7.33018 7.65448C6.28755 6.51303 4.84801 5.10779 4.37501 3.60347C3.96451 2.29798 4.99014 1.23017 6.1829 0.916694Z" fill="white"/>
<path d="M8.76097 9.8849C10.1907 11.4644 12.022 13.2321 13.2404 14.9143C14.8698 17.164 10.6064 19.5724 8.91137 16.867L8.88664 16.7952L8.78815 16.7679C8.33517 17.4715 7.74321 17.9626 6.88215 18.0671C6.36422 18.1296 5.53392 18.0563 5.11913 17.6654C4.80627 17.3704 4.31017 16.4345 4.26758 15.9778C4.43747 13.8282 7.61104 11.2489 8.76097 9.8849Z" fill="white"/>
<path d="M2.53871 4.67567C3.63131 4.68156 4.35158 5.63213 5.1205 6.30964C6.28576 7.3364 7.37144 8.4352 8.46909 9.53301C7.84791 9.99568 7.24456 10.7286 6.6657 11.2575C5.87137 11.9832 5.08849 12.7126 4.3055 13.4509C3.71955 13.9585 3.15691 14.4837 2.32206 14.2594C0.972266 13.9029 0.202996 12.3159 0.581052 11.0099C0.764965 10.3745 1.25325 9.84885 1.83665 9.54797L1.80467 9.43779C1.75284 9.41292 1.70161 9.38682 1.65102 9.35952C-0.28086 8.3113 0.258768 5.28939 2.53871 4.67567Z" fill="white"/>
<path d="M52.4274 1.35018C54.3914 -0.869631 58.5149 1.27859 57.3559 4.13255C57.3841 4.2986 57.3454 4.35236 57.2724 4.5012C57.5474 4.39173 57.6384 4.35008 57.9305 4.31246C60.6757 3.6437 62.6899 7.32707 60.3043 9.49097C62.26 11.316 61.3567 14.4438 58.6542 14.7903C57.7584 14.9052 56.9136 13.8619 56.1263 13.4327C56.6126 14.0017 57.4268 14.8407 57.5374 15.4994C57.8484 17.3511 55.8476 18.7185 54.1728 18.606C53.5351 18.5631 52.9722 18.0821 52.4443 17.7578C52.3774 17.7997 52.0552 18.0142 52.0034 18.044C51.849 18.1324 51.6967 18.2527 51.5552 18.3243C50.0091 19.1066 47.6006 18.0701 47.3203 16.2947C47.2317 15.7336 47.3136 15.3188 47.4892 14.8299L47.4146 14.7897L47.2559 14.9222C47.0155 14.991 46.9594 15.0154 46.7126 15.0445C45.9763 15.131 44.4288 16.6655 43.7111 16.4739L43.5695 16.294L43.6294 16.2514L43.7476 16.2918L43.8451 16.3845C44.2519 16.3918 46.1697 15.0796 46.6487 14.748C43.7527 15.0239 42.3467 11.3585 44.5134 9.50786C41.8617 7.02794 44.9079 2.54957 47.7277 4.88149C48.0241 5.1266 48.3359 5.3633 48.6369 5.60067C48.0945 4.72727 47.1957 4.17425 47.2532 3.01809C47.2867 2.34632 47.5819 1.79496 48.0703 1.34159C48.7338 0.726154 49.6165 0.402744 50.5206 0.443828C51.3135 0.48698 51.8987 0.770247 52.4274 1.35018Z" fill="#040304"/>
<path d="M57.3562 4.13255C57.3844 4.29861 57.3457 4.35237 57.2727 4.50121C57.5476 4.39173 57.6387 4.35008 57.9308 4.31246C57.3135 4.67288 56.8973 5.14663 56.2587 5.50157C56.4631 5.22107 57.1263 4.28537 57.3562 4.13255Z" fill="#F0EFF0"/>
<path d="M58.358 4.67165C58.4579 4.66649 58.5349 4.66947 58.6346 4.6771C59.2583 4.72474 59.8359 5.02478 60.2334 5.50786C61.1496 6.60569 61.0819 8.20411 60.0035 9.14545C59.9936 9.18261 59.4944 9.4944 59.565 9.5397C61.6469 10.8756 61.1689 13.6748 58.8378 14.3221C58.329 14.4634 57.6593 13.9396 57.2433 13.6175C56.3669 12.9216 55.4445 12.2039 54.6185 11.4514C53.9708 10.8616 53.3315 10.0704 52.6663 9.51314C53.9066 8.23448 56.7742 5.41863 58.358 4.67165Z" fill="white"/>
<path d="M46.042 4.67749C46.053 4.67655 46.0637 4.67543 46.0747 4.67465C47.4716 4.5736 51.0269 8.50316 52.1493 9.48206C51.493 10.0909 50.8472 10.8747 50.1936 11.4651C49.4826 12.1076 48.615 12.774 47.8583 13.3772C46.9528 14.1084 46.1754 14.7662 45.0406 13.9044C43.9746 13.0949 43.5691 11.4144 44.3873 10.2858C44.5594 10.0482 45.0976 9.80746 45.2971 9.56735C45.3607 9.49076 44.894 9.23448 44.8524 9.14979C43.2343 7.64761 43.8838 5.21725 46.042 4.67749Z" fill="white"/>
<path d="M50.0168 0.922278C51.096 0.821689 51.839 1.22531 52.4311 2.11939L52.5028 2.09476C52.741 1.44555 53.5022 1.00388 54.1752 0.910275C55.6394 0.706492 57.7339 2.18394 56.8961 3.80346C56.575 4.42429 55.9743 5.04888 55.5366 5.60631C55.1558 6.09126 54.7388 6.58033 54.3441 7.06093C53.7257 7.73326 53.0082 8.3184 52.4467 9.04661C51.5713 7.99008 50.357 7.06864 49.5474 5.92284C48.7934 4.85611 47.0397 3.54887 48.0458 2.12529C48.5619 1.39493 49.168 1.09325 50.0168 0.922278Z" fill="white"/>
<path d="M52.4508 10.0044C53.2781 10.6432 56.5189 14.4009 56.9421 15.262C57.133 15.6502 57.1317 16.0949 56.9824 16.4966C56.7598 17.0955 56.2316 17.5609 55.6586 17.8176C55.0069 18.1095 54.2469 18.1697 53.5751 17.9097C53.038 17.7022 52.6924 17.3576 52.4561 16.8385C52.4108 16.9104 52.364 16.9814 52.3154 17.0512C51.102 18.7875 48.2161 18.2094 47.7725 16.139C47.7239 15.9122 47.809 15.4388 47.928 15.2373C49.1141 13.2312 51.026 11.836 52.4508 10.0044Z" fill="white"/>
<path d="M70.6285 36V21.4545H80.2591V23.9901H73.7037V27.456H79.6199V29.9915H73.7037V36H70.6285ZM87.4839 36H82.3277V21.4545H87.5265C88.9896 21.4545 90.2491 21.7457 91.305 22.3281C92.3608 22.9058 93.1729 23.7367 93.741 24.821C94.314 25.9053 94.6004 27.2027 94.6004 28.7131C94.6004 30.2282 94.314 31.5303 93.741 32.6193C93.1729 33.7083 92.3561 34.544 91.2907 35.1264C90.2301 35.7088 88.9612 36 87.4839 36ZM85.403 33.3651H87.3561C88.2652 33.3651 89.0299 33.2041 89.6501 32.8821C90.2751 32.5554 90.7439 32.0511 91.0564 31.3693C91.3736 30.6828 91.5322 29.7973 91.5322 28.7131C91.5322 27.6383 91.3736 26.7599 91.0564 26.0781C90.7439 25.3963 90.2775 24.8944 89.6572 24.5724C89.037 24.2505 88.2723 24.0895 87.3632 24.0895H85.403V33.3651ZM102.219 36.1989C101.126 36.1989 100.153 36.0213 99.3003 35.6662C98.4528 35.3063 97.7876 34.8163 97.3046 34.196C96.8216 33.5758 96.5802 32.8726 96.5802 32.0866C96.5802 31.4806 96.7175 30.9242 96.9921 30.4176C97.2715 29.9062 97.6502 29.4825 98.1285 29.1463C98.6067 28.8054 99.1417 28.5876 99.7336 28.4929V28.3935C98.9571 28.2372 98.3273 27.8608 97.8444 27.2642C97.3614 26.6629 97.1199 25.9645 97.1199 25.169C97.1199 24.4162 97.3401 23.7462 97.7805 23.1591C98.2208 22.5672 98.8245 22.1032 99.5915 21.767C100.363 21.4261 101.239 21.2557 102.219 21.2557C103.199 21.2557 104.073 21.4261 104.84 21.767C105.612 22.108 106.218 22.5743 106.658 23.1662C107.099 23.7533 107.321 24.4209 107.326 25.169C107.321 25.9692 107.075 26.6676 106.587 27.2642C106.1 27.8608 105.475 28.2372 104.712 28.3935V28.4929C105.295 28.5876 105.823 28.8054 106.296 29.1463C106.774 29.4825 107.153 29.9062 107.432 30.4176C107.717 30.9242 107.861 31.4806 107.866 32.0866C107.861 32.8726 107.617 33.5758 107.134 34.196C106.651 34.8163 105.984 35.3063 105.131 35.6662C104.284 36.0213 103.313 36.1989 102.219 36.1989ZM102.219 33.9403C102.707 33.9403 103.133 33.8527 103.498 33.6776C103.862 33.4976 104.146 33.2514 104.35 32.9389C104.558 32.6217 104.663 32.2571 104.663 31.8452C104.663 31.4238 104.556 31.0521 104.343 30.7301C104.13 30.4034 103.841 30.1477 103.476 29.9631C103.112 29.7737 102.693 29.679 102.219 29.679C101.751 29.679 101.332 29.7737 100.962 29.9631C100.593 30.1477 100.302 30.4034 100.089 30.7301C99.8804 31.0521 99.7762 31.4238 99.7762 31.8452C99.7762 32.2571 99.878 32.6217 100.082 32.9389C100.285 33.2514 100.572 33.4976 100.941 33.6776C101.31 33.8527 101.736 33.9403 102.219 33.9403ZM102.219 27.4418C102.627 27.4418 102.989 27.3589 103.306 27.1932C103.623 27.0275 103.872 26.7978 104.052 26.5043C104.232 26.2107 104.322 25.8722 104.322 25.4886C104.322 25.1098 104.232 24.7784 104.052 24.4943C103.872 24.2055 103.626 23.9806 103.313 23.8196C103.001 23.6539 102.636 23.571 102.219 23.571C101.807 23.571 101.443 23.6539 101.126 23.8196C100.808 23.9806 100.56 24.2055 100.38 24.4943C100.205 24.7784 100.117 25.1098 100.117 25.4886C100.117 25.8722 100.207 26.2107 100.387 26.5043C100.567 26.7978 100.815 27.0275 101.133 27.1932C101.45 27.3589 101.812 27.4418 102.219 27.4418ZM115.442 36.1989C114.348 36.1989 113.375 36.0213 112.523 35.6662C111.675 35.3063 111.01 34.8163 110.527 34.196C110.044 33.5758 109.803 32.8726 109.803 32.0866C109.803 31.4806 109.94 30.9242 110.215 30.4176C110.494 29.9062 110.873 29.4825 111.351 29.1463C111.829 28.8054 112.364 28.5876 112.956 28.4929V28.3935C112.18 28.2372 111.55 27.8608 111.067 27.2642C110.584 26.6629 110.343 25.9645 110.343 25.169C110.343 24.4162 110.563 23.7462 111.003 23.1591C111.443 22.5672 112.047 22.1032 112.814 21.767C113.586 21.4261 114.462 21.2557 115.442 21.2557C116.422 21.2557 117.296 21.4261 118.063 21.767C118.835 22.108 119.441 22.5743 119.881 23.1662C120.321 23.7533 120.544 24.4209 120.549 25.169C120.544 25.9692 120.298 26.6676 119.81 27.2642C119.322 27.8608 118.697 28.2372 117.935 28.3935V28.4929C118.517 28.5876 119.045 28.8054 119.519 29.1463C119.997 29.4825 120.376 29.9062 120.655 30.4176C120.939 30.9242 121.084 31.4806 121.088 32.0866C121.084 32.8726 120.84 33.5758 120.357 34.196C119.874 34.8163 119.206 35.3063 118.354 35.6662C117.506 36.0213 116.536 36.1989 115.442 36.1989ZM115.442 33.9403C115.93 33.9403 116.356 33.8527 116.72 33.6776C117.085 33.4976 117.369 33.2514 117.573 32.9389C117.781 32.6217 117.885 32.2571 117.885 31.8452C117.885 31.4238 117.779 31.0521 117.566 30.7301C117.353 30.4034 117.064 30.1477 116.699 29.9631C116.335 29.7737 115.916 29.679 115.442 29.679C114.973 29.679 114.554 29.7737 114.185 29.9631C113.816 30.1477 113.524 30.4034 113.311 30.7301C113.103 31.0521 112.999 31.4238 112.999 31.8452C112.999 32.2571 113.101 32.6217 113.304 32.9389C113.508 33.2514 113.794 33.4976 114.164 33.6776C114.533 33.8527 114.959 33.9403 115.442 33.9403ZM115.442 27.4418C115.849 27.4418 116.211 27.3589 116.529 27.1932C116.846 27.0275 117.094 26.7978 117.274 26.5043C117.454 26.2107 117.544 25.8722 117.544 25.4886C117.544 25.1098 117.454 24.7784 117.274 24.4943C117.094 24.2055 116.848 23.9806 116.536 23.8196C116.223 23.6539 115.859 23.571 115.442 23.571C115.03 23.571 114.666 23.6539 114.348 23.8196C114.031 23.9806 113.782 24.2055 113.603 24.4943C113.427 24.7784 113.34 25.1098 113.34 25.4886C113.34 25.8722 113.43 26.2107 113.61 26.5043C113.79 26.7978 114.038 27.0275 114.355 27.1932C114.673 27.3589 115.035 27.4418 115.442 27.4418Z" fill="#111827"/>
</svg>
