<svg width="51" height="15" viewBox="0 0 51 15" fill="none" xmlns="http://www.w3.org/2000/svg">
<path d="M0 14.7443V0.198801H9.6306V2.7344H3.0752V6.2003H8.9914V8.7358H3.0752V14.7443H0ZM16.8554 14.7443H11.6992V0.198801H16.898C18.3611 0.198801 19.6206 0.490001 20.6765 1.0724C21.7323 1.6501 22.5444 2.481 23.1125 3.5653C23.6855 4.6496 23.9719 5.947 23.9719 7.4574C23.9719 8.9725 23.6855 10.2746 23.1125 11.3636C22.5444 12.4526 21.7276 13.2883 20.6622 13.8707C19.6016 14.4531 18.3327 14.7443 16.8554 14.7443ZM14.7745 12.1094H16.7276C17.6367 12.1094 18.4014 11.9484 19.0216 11.6264C19.6466 11.2997 20.1154 10.7954 20.4279 10.1136C20.7451 9.4271 20.9037 8.5416 20.9037 7.4574C20.9037 6.3826 20.7451 5.5042 20.4279 4.8224C20.1154 4.1406 19.649 3.6387 19.0287 3.3167C18.4085 2.9948 17.6438 2.8338 16.7347 2.8338H14.7745V12.1094ZM31.5905 14.9432C30.4975 14.9432 29.5245 14.7656 28.6718 14.4105C27.8243 14.0506 27.1591 13.5606 26.6761 12.9403C26.1931 12.3201 25.9517 11.6169 25.9517 10.8309C25.9517 10.2249 26.089 9.6685 26.3636 9.1619C26.643 8.6505 27.0217 8.2268 27.5 7.8906C27.9782 7.5497 28.5132 7.3319 29.1051 7.2372V7.1378C28.3286 6.9815 27.6988 6.6051 27.2159 6.0085C26.7329 5.4072 26.4914 4.7088 26.4914 3.9133C26.4914 3.1605 26.7116 2.4905 27.152 1.9034C27.5923 1.3115 28.196 0.847501 28.963 0.511301C29.7345 0.170401 30.6105 0 31.5905 0C32.5705 0 33.4445 0.170401 34.2115 0.511301C34.9835 0.852301 35.5895 1.3186 36.0295 1.9105C36.4705 2.4976 36.6925 3.1652 36.6975 3.9133C36.6925 4.7135 36.4465 5.4119 35.9585 6.0085C35.4715 6.6051 34.8465 6.9815 34.0835 7.1378V7.2372C34.6665 7.3319 35.1945 7.5497 35.6675 7.8906C36.1455 8.2268 36.5245 8.6505 36.8035 9.1619C37.0885 9.6685 37.2325 10.2249 37.2375 10.8309C37.2325 11.6169 36.9885 12.3201 36.5055 12.9403C36.0225 13.5606 35.3555 14.0506 34.5025 14.4105C33.6555 14.7656 32.6845 14.9432 31.5905 14.9432ZM31.5905 12.6846C32.0785 12.6846 32.5045 12.597 32.8695 12.4219C33.2335 12.2419 33.5175 11.9957 33.7215 11.6832C33.9295 11.366 34.0345 11.0014 34.0345 10.5895C34.0345 10.1681 33.9275 9.7964 33.7145 9.4744C33.5015 9.1477 33.2125 8.892 32.8475 8.7074C32.4835 8.518 32.0645 8.4233 31.5905 8.4233C31.1225 8.4233 30.7035 8.518 30.3335 8.7074C29.9645 8.892 29.6735 9.1477 29.4605 9.4744C29.2519 9.7964 29.1477 10.1681 29.1477 10.5895C29.1477 11.0014 29.2495 11.366 29.4535 11.6832C29.6565 11.9957 29.9435 12.2419 30.3125 12.4219C30.6815 12.597 31.1075 12.6846 31.5905 12.6846ZM31.5905 6.1861C31.9985 6.1861 32.3605 6.1032 32.6775 5.9375C32.9945 5.7718 33.2435 5.5421 33.4235 5.2486C33.6035 4.955 33.6935 4.6165 33.6935 4.2329C33.6935 3.8541 33.6035 3.5227 33.4235 3.2386C33.2435 2.9498 32.9975 2.7249 32.6845 2.5639C32.3725 2.3982 32.0075 2.3153 31.5905 2.3153C31.1785 2.3153 30.8145 2.3982 30.4975 2.5639C30.1795 2.7249 29.9315 2.9498 29.7515 3.2386C29.5765 3.5227 29.4885 3.8541 29.4885 4.2329C29.4885 4.6165 29.5785 4.955 29.7585 5.2486C29.9385 5.5421 30.1865 5.7718 30.5045 5.9375C30.8215 6.1032 31.1835 6.1861 31.5905 6.1861ZM44.8135 14.9432C43.7195 14.9432 42.7465 14.7656 41.8945 14.4105C41.0465 14.0506 40.3815 13.5606 39.8985 12.9403C39.4155 12.3201 39.1745 11.6169 39.1745 10.8309C39.1745 10.2249 39.3115 9.6685 39.5865 9.1619C39.8655 8.6505 40.2445 8.2268 40.7225 7.8906C41.2005 7.5497 41.7355 7.3319 42.3275 7.2372V7.1378C41.5515 6.9815 40.9215 6.6051 40.4385 6.0085C39.9555 5.4072 39.7145 4.7088 39.7145 3.9133C39.7145 3.1605 39.9345 2.4905 40.3745 1.9034C40.8145 1.3115 41.4185 0.847501 42.1855 0.511301C42.9575 0.170401 43.8335 0 44.8135 0C45.7935 0 46.6675 0.170401 47.4345 0.511301C48.2065 0.852301 48.8125 1.3186 49.2525 1.9105C49.6925 2.4976 49.9155 3.1652 49.9205 3.9133C49.9155 4.7135 49.6695 5.4119 49.1815 6.0085C48.6935 6.6051 48.0685 6.9815 47.3065 7.1378V7.2372C47.8885 7.3319 48.4165 7.5497 48.8905 7.8906C49.3685 8.2268 49.7475 8.6505 50.0265 9.1619C50.3105 9.6685 50.4555 10.2249 50.4595 10.8309C50.4555 11.6169 50.2115 12.3201 49.7285 12.9403C49.2455 13.5606 48.5775 14.0506 47.7255 14.4105C46.8775 14.7656 45.9075 14.9432 44.8135 14.9432ZM44.8135 12.6846C45.3015 12.6846 45.7275 12.597 46.0915 12.4219C46.4565 12.2419 46.7405 11.9957 46.9445 11.6832C47.1525 11.366 47.2565 11.0014 47.2565 10.5895C47.2565 10.1681 47.1505 9.7964 46.9375 9.4744C46.7245 9.1477 46.4355 8.892 46.0705 8.7074C45.7065 8.518 45.2875 8.4233 44.8135 8.4233C44.3445 8.4233 43.9255 8.518 43.5565 8.7074C43.1875 8.892 42.8955 9.1477 42.6825 9.4744C42.4745 9.7964 42.3705 10.1681 42.3705 10.5895C42.3705 11.0014 42.4725 11.366 42.6755 11.6832C42.8795 11.9957 43.1655 12.2419 43.5355 12.4219C43.9045 12.597 44.3305 12.6846 44.8135 12.6846ZM44.8135 6.1861C45.2205 6.1861 45.5825 6.1032 45.9005 5.9375C46.2175 5.7718 46.4655 5.5421 46.6455 5.2486C46.8255 4.955 46.9155 4.6165 46.9155 4.2329C46.9155 3.8541 46.8255 3.5227 46.6455 3.2386C46.4655 2.9498 46.2195 2.7249 45.9075 2.5639C45.5945 2.3982 45.2305 2.3153 44.8135 2.3153C44.4015 2.3153 44.0375 2.3982 43.7195 2.5639C43.4025 2.7249 43.1535 2.9498 42.9745 3.2386C42.7985 3.5227 42.7115 3.8541 42.7115 4.2329C42.7115 4.6165 42.8015 4.955 42.9815 5.2486C43.1615 5.5421 43.4095 5.7718 43.7265 5.9375C44.0445 6.1032 44.4065 6.1861 44.8135 6.1861Z" fill="#111827"/>
</svg>
