<svg width="48" height="48" viewBox="0 0 48 48" fill="none" xmlns="http://www.w3.org/2000/svg">
<path d="M14.298 24C14.298 24.4 14.2647 24.8 14.198 25.2C14.1313 25.6 14.0313 25.9833 13.898 26.35C13.7647 26.75 13.771 27.1333 13.917 27.5C14.063 27.8666 14.3213 28.1166 14.692 28.25C15.1293 28.4166 15.5397 28.4 15.923 28.2C16.3063 28 16.5647 27.7 16.698 27.3C16.8647 26.7666 17.0063 26.225 17.123 25.675C17.2397 25.125 17.298 24.5666 17.298 24C17.298 23.4333 17.2563 22.8666 17.173 22.3C17.0897 21.7333 16.948 21.1833 16.748 20.65C16.5813 20.25 16.298 19.9583 15.898 19.775C15.498 19.5916 15.098 19.5833 14.698 19.75C14.3313 19.8833 14.0813 20.1416 13.948 20.525C13.8147 20.9083 13.8147 21.2833 13.948 21.65C14.0813 22.0166 14.173 22.4 14.223 22.8C14.273 23.2 14.298 23.6 14.298 24ZM21.448 24C21.448 24.8666 21.3897 25.725 21.273 26.575C21.1563 27.425 20.9647 28.2666 20.698 29.1C20.5647 29.5 20.5647 29.9 20.698 30.3C20.8313 30.7 21.098 30.9666 21.498 31.1C21.9313 31.2666 22.3397 31.2416 22.723 31.025C23.1063 30.8083 23.3813 30.4833 23.548 30.05C23.8813 29.0833 24.1147 28.0916 24.248 27.075C24.3813 26.0583 24.448 25.0333 24.448 24C24.448 22.9666 24.3813 21.95 24.248 20.95C24.1147 19.95 23.8813 18.9666 23.548 18C23.3813 17.5666 23.1147 17.2416 22.748 17.025C22.3813 16.8083 21.9813 16.7833 21.548 16.95C21.148 17.0833 20.873 17.35 20.723 17.75C20.573 18.15 20.5647 18.55 20.698 18.95C20.9647 19.75 21.1563 20.575 21.273 21.425C21.3897 22.275 21.448 23.1333 21.448 24ZM28.598 24C28.598 25.3333 28.496 26.65 28.292 27.95C28.088 29.25 27.7567 30.5333 27.298 31.8C27.1313 32.2 27.123 32.6 27.273 33C27.423 33.4 27.698 33.6833 28.098 33.85C28.498 34.0166 28.8897 34 29.273 33.8C29.6563 33.6 29.9313 33.3 30.098 32.9C30.6313 31.4666 31.0147 30 31.248 28.5C31.4813 27 31.598 25.5 31.598 24C31.598 22.5 31.4813 21.0083 31.248 19.525C31.0147 18.0416 30.6313 16.5833 30.098 15.15C29.9313 14.75 29.6563 14.45 29.273 14.25C28.8897 14.05 28.498 14.0333 28.098 14.2C27.698 14.3666 27.423 14.65 27.273 15.05C27.123 15.45 27.1313 15.85 27.298 16.25C27.7567 17.4833 28.088 18.75 28.292 20.05C28.496 21.35 28.598 22.6666 28.598 24ZM24.0015 44.299C21.2195 44.299 18.5938 43.7676 16.1245 42.705C13.6555 41.6423 11.499 40.189 9.65499 38.345C7.81099 36.501 6.35766 34.345 5.29499 31.877C4.23232 29.409 3.70099 26.7838 3.70099 24.0015C3.70099 21.1861 4.23232 18.5438 5.29499 16.0745C6.35766 13.6055 7.81032 11.4571 9.65299 9.62946C11.4957 7.80146 13.6513 6.35446 16.12 5.28846C18.5887 4.22213 21.2145 3.68896 23.9975 3.68896C26.8135 3.68896 29.4567 4.2218 31.927 5.28746C34.397 6.35313 36.5455 7.7993 38.3725 9.62596C40.1998 11.4526 41.6463 13.6006 42.712 16.07C43.778 18.5393 44.311 21.1826 44.311 24C44.311 26.7833 43.7778 29.4095 42.7115 31.8785C41.6455 34.3475 40.1985 36.5035 38.3705 38.3465C36.5428 40.1895 34.395 41.6423 31.927 42.705C29.459 43.7676 26.8172 44.299 24.0015 44.299ZM24 40.8925C28.7013 40.8925 32.6922 39.2466 35.9725 35.955C39.2525 32.663 40.8925 28.678 40.8925 24C40.8925 19.2986 39.2525 15.3078 35.9725 12.0275C32.6922 8.74746 28.6993 7.10746 23.994 7.10746C19.322 7.10746 15.3395 8.74746 12.0465 12.0275C8.75382 15.3078 7.10749 19.3006 7.10749 24.006C7.10749 28.678 8.75332 32.6605 12.045 35.9535C15.337 39.2461 19.322 40.8925 24 40.8925Z" fill="white"/>
</svg>
