<svg width="48" height="48" viewBox="0 0 48 48" fill="none" xmlns="http://www.w3.org/2000/svg">
<path d="M23.997 44.55C21.1606 44.55 18.492 44.0115 15.991 42.9345C13.4903 41.8571 11.3135 40.3921 9.46045 38.5395C7.60779 36.6865 6.14278 34.5086 5.06545 32.006C3.98845 29.5033 3.44995 26.8336 3.44995 23.997C3.44995 21.1606 3.98845 18.492 5.06545 15.991C6.14278 13.4903 7.60779 11.3135 9.46045 9.46045C11.3135 7.60779 13.4913 6.14278 15.994 5.06545C18.4966 3.98845 21.1663 3.44995 24.003 3.44995C26.8393 3.44995 29.508 3.98845 32.009 5.06545C34.5096 6.14278 36.6865 7.60779 38.5395 9.46045C40.3921 11.3135 41.8571 13.4913 42.9345 15.994C44.0115 18.4966 44.55 21.1663 44.55 24.003C44.55 26.8393 44.0115 29.508 42.9345 32.009C41.8571 34.5096 40.3921 36.6865 38.5395 38.5395C36.6865 40.3921 34.5086 41.8571 32.006 42.9345C29.5033 44.0115 26.8336 44.55 23.997 44.55ZM23.997 41.275C26.1353 41.275 28.1463 40.9253 30.03 40.226C31.9136 39.5266 33.6175 38.5318 35.1415 37.2415L31.637 33.799C30.5716 34.6053 29.3966 35.2415 28.112 35.7075C26.8273 36.1735 25.4566 36.4065 24 36.4065C20.5456 36.4065 17.6143 35.2025 15.206 32.7945C12.7976 30.3861 11.5935 27.4551 11.5935 24.0015C11.5935 20.5475 12.7975 17.614 15.2055 15.201C17.6138 12.788 20.5448 11.5815 23.9985 11.5815C27.4525 11.5815 30.386 12.7876 32.799 15.2C35.212 17.6123 36.4185 20.5456 36.4185 24C36.4185 25.4596 36.1828 26.831 35.7115 28.114C35.2401 29.3973 34.6026 30.5756 33.799 31.649L37.2415 35.0915C38.4985 33.5755 39.485 31.8836 40.201 30.016C40.917 28.1483 41.275 26.142 41.275 23.997C41.275 19.194 39.5961 15.1145 36.2385 11.7585C32.8805 8.40278 28.8 6.72495 23.997 6.72495C19.194 6.72495 15.1145 8.40378 11.7585 11.7615C8.40278 15.1195 6.72495 19.2 6.72495 24.003C6.72495 28.806 8.40278 32.8855 11.7585 36.2415C15.1145 39.5971 19.194 41.275 23.997 41.275ZM23.9955 33.1315C24.9891 33.1315 25.9356 32.9858 26.835 32.6945C27.734 32.4031 28.5541 31.9868 29.2955 31.4455L25.715 27.927C25.4553 28.0403 25.1818 28.1266 24.8945 28.186C24.6075 28.2453 24.3075 28.275 23.9945 28.275C22.8205 28.275 21.8153 27.856 20.979 27.018C20.143 26.18 19.725 25.1725 19.725 23.9955C19.725 22.8188 20.144 21.8128 20.982 20.9775C21.82 20.1425 22.8275 19.725 24.0045 19.725C25.1811 19.725 26.1871 20.1431 27.0225 20.9795C27.8575 21.8158 28.275 22.8211 28.275 23.9955C28.275 24.3078 28.2356 24.6145 28.157 24.9155C28.0783 25.2168 27.9771 25.5166 27.8535 25.815L31.4455 29.2955C31.9905 28.5501 32.4076 27.7291 32.697 26.8325C32.9866 25.9355 33.1315 24.9923 33.1315 24.003C33.1315 21.4596 32.245 19.3013 30.472 17.528C28.6993 15.755 26.5425 14.8685 24.0015 14.8685C21.4605 14.8685 19.3031 15.755 17.5295 17.528C15.7555 19.3006 14.8685 21.4575 14.8685 23.9985C14.8685 26.5395 15.7558 28.6968 17.5305 30.4705C19.3055 32.2445 21.4605 33.1315 23.9955 33.1315Z" fill="white"/>
</svg>
