<svg width="48" height="48" viewBox="0 0 48 48" fill="none" xmlns="http://www.w3.org/2000/svg">
<path d="M5.62952 38.8926V19.8576C5.62952 18.9093 5.96218 18.1024 6.62752 17.4371C7.29285 16.7718 8.09968 16.4391 9.04802 16.4391H16.523V8.97612C16.523 8.02778 16.8545 7.22095 17.5175 6.55562C18.1805 5.89028 18.9845 5.55762 19.9295 5.55762H38.952C39.9003 5.55762 40.7072 5.89028 41.3725 6.55562C42.0378 7.22095 42.3705 8.02778 42.3705 8.97612V38.8926C42.3705 39.8376 42.0378 40.6416 41.3725 41.3046C40.7072 41.9676 39.9003 42.2991 38.952 42.2991H9.04802C8.09968 42.2991 7.29285 41.9676 6.62752 41.3046C5.96218 40.6416 5.62952 39.8376 5.62952 38.8926ZM31.489 38.8926H38.952V8.97612H19.9295V16.4391H28.0705C29.0188 16.4391 29.8257 16.7718 30.491 17.4371C31.1564 18.1024 31.489 18.9093 31.489 19.8576V38.8926ZM19.9295 38.8926H28.0705V19.8576H19.9295V38.8926ZM9.04802 38.8926H16.523V19.8576H9.04802V38.8926Z" fill="white"/>
</svg>
