<svg xmlns="http://www.w3.org/2000/svg" version="1.1" xmlns:xlink="http://www.w3.org/1999/xlink" width="93" height="87"><svg width="93" height="87" viewBox="0 0 93 87" fill="none" xmlns="http://www.w3.org/2000/svg">
<path d="M26.6624 24.2719C26.9689 24.1011 28.262 21.8245 28.6508 21.3216C30.8949 18.4172 34.2376 16.2019 37.6333 14.8648C43.7082 12.4969 50.4783 12.6594 56.4324 15.3163C59.9826 16.8652 64.5888 20.2269 66.0416 23.9502L65.8633 23.8891L65.7729 23.9534L65.9865 24.2251C67.0701 24.5143 69.4062 22.1978 70.5177 22.0672C70.8903 22.0233 70.975 21.9865 71.3378 21.8826C70.3377 22.7973 67.7316 24.2069 66.473 24.8979C67.4746 27.4879 67.8512 31.8261 67.1098 34.4476C66.8674 34.6669 66.4989 34.5838 66.4316 34.6304C66.1799 34.8043 66.0149 36.7492 65.9808 37.0131L64.5758 37.0431C66.4738 39.5361 64.5693 40.8191 64.0906 43.2091C64.8563 45.9838 66.8195 44.8784 67.8658 47.4253C67.7491 49.4505 67.1552 49.6986 65.391 50.5681C65.0266 53.342 63.8701 54.2152 61.0832 54.1426C61.2218 56.3826 62.052 57.8282 62.1392 59.6576C62.6195 59.823 63.3536 60.0536 63.8012 60.2429L63.5936 60.3289L63.6078 60.414C63.3966 60.6264 63.3265 60.6179 63.3143 60.8603L61.9174 60.4128C61.3349 61.9033 59.6668 62.8368 58.6558 64.0306C58.1917 64.5783 57.9598 65.2702 57.5273 65.839C57.2658 66.1827 57.1418 65.7624 56.886 66.1624C56.4895 66.7823 56.1749 67.4799 55.7039 68.0446C55.6159 68.1702 55.0829 68.1905 55.0298 68.3336C54.7614 69.0547 55.0873 70.1731 54.6966 70.8647C53.2421 73.4371 48.993 73.6783 46.5653 72.5072C46.0448 72.7391 45.4999 72.9126 44.9409 73.0244C43.1204 73.3856 41.1305 73.1692 39.5297 72.1428C38.1944 71.2862 38.209 69.9064 37.9199 68.4507C37.8908 68.4264 37.862 68.4021 37.8328 68.3778C37.2867 68.0652 36.3025 66.3136 35.9466 65.9804C35.4184 65.4871 30.933 60.3585 30.8856 60.3268C30.9999 60.0633 31.0562 60.0467 31.0246 59.7857L30.6638 59.6462C30.7335 59.6256 30.9018 59.5262 30.9074 59.4881C31.0963 58.223 31.9132 55.1678 32.3072 54.1422C29.4295 54.1219 28.0986 53.5933 27.5303 50.545C25.9782 49.7703 25.5825 49.6645 25.1548 47.943C26.1354 44.9206 28.0828 46.1111 29.0622 42.9914C28.2628 40.6744 26.917 39.905 28.2271 37.3188L27.0548 37.0322C26.9656 36.3933 26.874 35.5104 26.6693 34.8927C26.5712 34.5968 26.3373 34.5911 26.039 34.4978C25.5412 33.8529 25.5278 29.2601 25.7159 28.2386C25.8253 27.6431 26.3697 25.398 26.3483 24.9986L26.1322 24.8275C26.3795 24.7125 26.4958 24.4989 26.6624 24.2719Z" fill="#1B1A1A"></path>
<path d="M27.4016 34.3437C26.0266 28.0954 27.779 23.0378 32.8404 19.1705C41.9763 12.1893 55.9372 13.3234 63.3741 22.242C65.6965 25.0273 66.4018 28.8919 65.9381 32.3983L65.6044 32.7826C65.2396 33.5751 65.1577 33.8929 65.0235 34.7778C64.9307 35.257 64.786 35.0235 64.6814 35.5322L64.5975 36.2209L64.6157 36.4341C64.3271 36.6729 64.4674 36.617 64.0827 36.636C63.895 36.5286 63.8885 36.563 63.7945 36.4021C63.3011 35.9368 62.8337 35.4353 62.3643 34.9448C62.5873 33.9343 63.3538 32.3452 63.983 31.5682L63.8285 31.5219C63.0003 32.0509 61.798 33.6765 61.4072 34.5691C61.2074 35.0251 61.0335 34.6514 60.7031 35.137C60.344 37.4253 64.3648 36.8906 63.9603 39.3126C63.5346 41.5624 61.798 42.9001 63.3952 45.132C64.1455 46.1811 66.6556 47.2444 66.3463 48.0669C65.7419 49.6721 61.2601 50.1849 59.6702 50.2416C59.2219 50.2579 58.6069 50.159 58.4926 50.3458C59.4132 50.9437 62.428 50.6227 62.8297 50.9348C62.9663 51.0358 63.1824 51.2097 63.3315 51.2705L63.6712 51.2563L63.777 51.3929C63.6631 51.7597 63.5496 51.979 63.3818 52.3216C59.2969 53.9726 56.6336 49.2639 52.8507 50.9105C52.4474 51.086 52.0193 51.4261 51.8924 51.8684L51.9528 51.9734C52.0902 51.8765 52.2293 51.7824 52.3703 51.6908C53.2848 51.0909 54.0802 51.0325 55.1285 51.2518L55.2027 51.2676C55.6145 51.3694 55.5099 51.283 55.7094 51.5502L55.7045 51.8818L55.5419 51.9608L55.9412 52.6856C54.3793 54.0326 54.7482 54.8551 55.6733 56.4705C54.6055 57.4608 53.0854 57.5706 52.798 58.0891C53.1332 58.1385 53.1778 58.0863 53.3862 58.2922L53.3157 58.4641L53.7766 58.745L54.0133 58.5082L53.9655 58.2241L54.1142 58.1073C54.9469 58.248 54.6757 59.5058 54.4957 60.0697L54.4037 60.1982L54.4203 60.285C54.2748 60.6441 54.1811 60.7998 54.2456 61.1816C53.8325 61.7009 54.1422 62.0823 53.9363 62.5372L53.4425 62.9916L53.5913 63.0386L53.5378 63.0662C53.012 63.3442 52.8511 63.7216 52.2678 63.5741C52.1328 63.2814 52.1656 63.4034 52.2143 63.0248L52.2013 62.767C52.0298 62.6807 51.9715 62.7009 51.7821 62.7151C51.1863 62.951 50.7861 62.9417 50.1558 62.977L49.9572 63.0272C49.827 63.8453 49.9122 65.3544 48.7828 65.2884L48.5639 65.1501L48.4926 65.1822C48.2696 64.9503 48.3552 64.5417 48.2056 64.0411L48.1812 63.962C48.0073 64.5125 47.9972 64.7715 47.4463 65.0034C46.7292 64.7614 46.6814 63.8704 46.8642 63.2413L47.0795 63.1274C46.9526 63.0212 47.0073 63.0678 46.7965 63.0422C46.548 63.2514 46.6125 63.2251 46.4896 63.5676L46.4718 63.5684C46.5217 63.2907 46.4049 63.6191 46.3814 63.1375C46.3052 63.707 46.2975 64.9665 45.5715 65.0237C45.2026 64.8279 45.1085 64.6244 44.9379 64.2401C44.7571 64.5859 44.7688 64.7188 44.7445 65.1059L44.6063 65.2243L44.1097 65.3362C43.7635 65.2924 43.5511 65.0241 43.2909 64.7756C43.273 64.187 43.2584 63.6551 43.2005 63.0674L43.0112 62.9968C42.9913 63.1821 42.9293 63.904 42.8968 64.0447C43.0286 64.6495 42.6078 65.4327 42.0233 65.2296C41.2656 64.9665 41.1781 63.4857 40.8801 62.8039C40.7533 63.176 40.7208 63.3009 40.3613 63.42L40.1991 63.2842C40.0167 62.7406 40.0199 62.1233 40.5688 61.8379L40.7322 61.7264C39.8716 60.9092 40.1197 59.9412 40.7383 59.0462L40.7002 58.7385C40.6539 58.6959 40.5948 58.6392 40.5708 58.5873C40.1156 57.597 38.8695 57.3781 37.9631 56.9853C37.8755 56.9476 37.7414 56.8272 37.6988 56.7222C37.4844 56.1932 38.073 55.2341 38.336 54.6658C37.4163 52.0151 37.1795 53.0273 35.6371 52.2121L35.6849 52.0711L35.946 51.9863L35.8061 51.8659C35.7713 51.4813 35.8029 51.5591 35.9902 51.1671C34.3431 51.8562 32.2652 53.0516 30.4269 52.6402C30.0097 52.547 29.2724 51.8372 29.2322 51.3617L29.3543 51.2348C29.5444 51.2498 29.6328 51.2506 29.82 51.3065L29.9518 51.247L30.0677 50.9113C31.1192 50.7743 32.0427 50.8444 33.2158 50.6349C32.8676 50.2315 32.7586 50.2923 32.1724 50.2027C30.6162 49.8205 28.6197 49.6048 27.2009 48.7892C25.4814 47.801 28.2735 46.4908 28.9432 45.9383C29.7929 45.237 30.3823 44.2139 30.3328 43.0845C30.3592 41.5235 28.6112 39.8773 29.2189 38.3694C29.709 37.1529 31.898 37.0839 32.3479 35.8208C32.4407 35.5577 32.4416 34.9951 32.3053 34.7332C32.1829 34.7722 31.9393 35.3879 31.8067 35.6141C31.6389 35.4041 31.7026 34.745 31.7018 34.4093C30.8428 33.2362 29.9096 32.119 28.9084 31.0651C29.4009 32.0927 30.4447 33.7279 30.5939 34.8455C30.6328 35.135 29.5075 36.1962 29.2079 36.5002C28.9975 36.6445 28.9513 36.5744 28.6327 36.5197C28.1657 36.2894 27.839 33.0992 27.7571 32.4539C27.6582 33.1641 27.5678 33.646 27.4016 34.3437Z" fill="white"></path>
<path d="M40.7023 58.7374C41.1207 58.086 41.2492 58.0414 41.8581 57.5853C42.1402 57.9027 42.6781 58.6352 42.9716 58.8371C43.1893 58.8043 43.3068 58.7483 43.4901 58.6227C43.7965 58.3941 44.2765 59.2704 44.4942 59.1484C45.4188 58.6308 45.6746 58.3255 46.3698 59.2737C46.7837 59.4176 46.8704 58.8675 47.4015 58.741C47.6033 58.587 48.5069 59.1359 48.5406 59.127C49.3225 58.9255 49.2808 58.1893 50.0777 58.9295C50.1454 58.9206 50.2131 58.9113 50.2808 58.902C50.6084 58.3454 50.8232 58.0195 51.2979 57.6129L51.3368 57.5801C51.7045 57.938 52.1196 58.6194 52.4905 58.7678L52.6599 58.6685L52.8002 58.088C53.1354 58.1375 53.18 58.0852 53.3884 58.2911L53.3178 58.463L53.7788 58.7439L54.0155 58.5071L53.9677 58.223L54.1164 58.1062C54.9491 58.2469 54.6779 59.5047 54.4979 60.0686L54.4059 60.1971L54.4225 60.2839C54.277 60.643 54.1833 60.7987 54.2478 61.1805C53.8347 61.6998 54.1444 62.0812 53.9385 62.5361L53.4447 62.9905L53.5935 63.0375L53.54 63.0651C53.0142 63.3431 52.8533 63.7205 52.27 63.573C52.135 63.2803 52.1678 63.4023 52.2165 63.0237L52.2035 62.7659C52.032 62.6796 51.9736 62.6998 51.7843 62.714C51.1884 62.9499 50.7883 62.9406 50.158 62.9759L49.9594 63.0261C49.8292 63.8442 49.9144 65.3533 48.785 65.2873L48.5661 65.149L48.4948 65.1811C48.2718 64.9492 48.3573 64.5406 48.2078 64.04L48.1834 63.9609C48.0095 64.5114 47.9994 64.7704 47.4485 65.0023C46.7314 64.7603 46.6836 63.8693 46.8664 63.2402L47.0816 63.1263C46.9548 63.0201 47.0095 63.0667 46.7987 63.0411C46.5502 63.2503 46.6147 63.224 46.4918 63.5665L46.474 63.5673C46.5239 63.2896 46.4071 63.618 46.3836 63.1364C46.3074 63.7059 46.2997 64.9654 45.5737 65.0226C45.2048 64.8268 45.1107 64.6233 44.9401 64.239C44.7593 64.5848 44.771 64.7177 44.7467 65.1049L44.6085 65.2232L44.1119 65.3351C43.7657 65.2913 43.5533 65.023 43.2931 64.7745C43.2752 64.1859 43.2606 63.6541 43.2027 63.0663L43.0134 62.9957C42.9935 63.181 42.9315 63.9029 42.899 64.0436C43.0308 64.6484 42.61 65.4316 42.0255 65.2285C41.2678 64.9654 41.1803 63.4846 40.8823 62.8028C40.7554 63.1749 40.723 63.2998 40.3634 63.4189L40.2013 63.2831C40.0189 62.7396 40.0221 62.1222 40.571 61.8368L40.7344 61.7253C39.8738 60.9081 40.1219 59.9401 40.7404 59.0451L40.7023 58.7374Z" fill="#040304"></path>
<path d="M41.0795 62.7266C41.812 62.8887 42.264 62.9297 43.0115 62.9957C42.9916 63.181 42.9296 63.9029 42.8971 64.0436C42.7674 64.436 42.735 64.6164 42.4379 64.9042C42.1083 65.0157 42.2477 65.0205 41.9166 64.8762C41.3507 64.196 41.2781 63.5811 41.0795 62.7266Z" fill="#F0EFF0"></path>
<path d="M43.2009 63.0658L44.5269 63.0244C44.6144 63.9884 44.5776 64.3337 44.6067 65.2227L44.1102 65.3346C43.764 65.2908 43.5516 65.0225 43.2913 64.774C43.2735 64.1854 43.2589 63.6535 43.2009 63.0658Z" fill="white"></path>
<path d="M48.5092 63.0377C49.1115 63.0949 49.3657 63.0734 49.9572 63.0264C49.827 63.8444 49.9122 65.3536 48.7828 65.2875L48.5639 65.1493C48.3661 64.0953 48.664 63.5923 48.5092 63.0377Z" fill="#F0EFF0"></path>
<path d="M47.0802 63.1272C47.5488 63.1584 47.852 63.2006 48.3105 63.1045L48.182 63.9618C48.0081 64.5123 47.998 64.7713 47.4471 65.0032C46.73 64.7612 46.6821 63.8702 46.8649 63.2411L47.0802 63.1272Z" fill="#F0EFF0"></path>
<path d="M44.8123 63.1594C45.3376 63.1923 45.8553 63.1594 46.381 63.1367C46.3048 63.7063 46.2971 64.9657 45.5711 65.0229C45.2022 64.8271 45.1082 64.6236 44.9375 64.2393L44.8123 63.1594Z" fill="#F0EFF0"></path>
<path d="M53.3143 58.4629L53.7752 58.7438C53.8952 59.2866 54.082 60.1541 53.5944 60.5615L53.3917 60.5371C52.8907 59.9485 53.1225 59.1366 53.3143 58.4629Z" fill="white"></path>
<path d="M40.7315 61.7262C39.8709 60.909 40.119 59.9409 40.7376 59.0459C41.0732 59.6017 40.9159 61.0983 40.7315 61.7262Z" fill="white"></path>
<path d="M52.2011 62.7664C52.2461 62.2075 52.634 62.0794 53.0925 61.7822C53.0544 62.3068 53.0524 62.8447 52.84 63.3222L52.6563 63.4718C52.3333 63.3465 52.4273 63.3798 52.2141 63.0243L52.2011 62.7664Z" fill="#F0EFF0"></path>
<path d="M54.0136 58.5073L53.9658 58.2232L54.1145 58.1064C54.9472 58.2471 54.676 59.505 54.496 60.0688C54.1997 59.6424 54.2086 59.098 54.0136 58.5073Z" fill="white"></path>
<path d="M40.8823 62.8019C40.7554 63.174 40.723 63.2989 40.3634 63.4181L40.2013 63.2823C40.0189 62.7387 40.0221 62.1213 40.571 61.8359C40.6898 62.1529 40.8235 62.4695 40.8823 62.8019Z" fill="#F0EFF0"></path>
<path d="M53.4446 62.9911C53.4134 62.7539 53.3858 62.5164 53.3611 62.2788C53.3197 61.865 53.2926 61.5865 53.5581 61.2598C53.8978 61.5358 53.8828 62.0721 53.9383 62.5367L53.4446 62.9911Z" fill="#F0EFF0"></path>
<path d="M47.3931 59.292C48.9092 59.7119 49.0511 61.9455 47.953 62.603C47.6368 62.6342 47.4823 62.6812 47.1974 62.5467C46.368 61.7619 46.8171 60.0889 47.3931 59.292Z" fill="white"></path>
<path d="M45.1498 59.251C45.7104 59.3162 45.8564 59.6357 46.1718 60.0645C46.2407 60.7249 46.5508 62.3236 45.9058 62.671C45.571 62.665 45.254 62.6431 44.9208 62.6208C44.1457 62.0545 44.7663 59.9478 45.1498 59.251Z" fill="white"></path>
<path d="M51.3368 58.3457C52.0507 58.642 51.9396 61.2992 51.8395 61.9753C51.6376 62.1699 51.3267 62.1233 50.9785 62.1513C50.9132 62.1817 50.7932 62.1849 50.715 62.193C50.6144 62.084 50.5922 62.058 50.5638 61.9068C50.3254 60.664 50.6047 59.3778 51.3368 58.3457Z" fill="white"></path>
<path d="M43.2538 59.2148C43.7159 59.2983 43.8594 59.5095 44.174 59.8476C44.1687 60.4111 44.3057 62.1136 44.0552 62.5068L43.7475 62.5449C43.3774 62.4975 42.9879 62.4225 42.6186 62.3576C42.7341 60.9968 42.7905 60.4881 43.2538 59.2148Z" fill="white"></path>
<path d="M41.5475 58.335C42.856 58.8867 42.5479 61.0939 42.162 62.1656C41.8685 62.1592 41.7506 62.1762 41.4765 62.0607C40.9293 61.5167 41.2106 58.9783 41.5475 58.335Z" fill="white"></path>
<path d="M49.462 59.248C50.3818 59.6469 50.4227 61.5473 50.1515 62.3653C50.128 62.4375 49.8836 62.4942 49.798 62.5238C49.4393 62.5489 49.3152 62.555 48.9504 62.5185C48.7088 62.1513 48.9816 60.3583 49.0193 59.8747C49.0384 59.6258 49.2755 59.4114 49.462 59.248Z" fill="white"></path>
<path d="M52.2894 59.0381C53.1318 59.3571 52.9749 61.0061 52.7531 61.6884C52.6145 61.7159 52.5359 61.7058 52.3952 61.7042C52.0575 61.238 52.1641 59.6019 52.2894 59.0381Z" fill="#F0EFF0"></path>
<path d="M63.9831 31.5674C63.8137 32.13 63.7663 32.6152 64.292 33.0397C64.6913 33.6866 64.8291 34.514 65.0237 34.7771C64.9309 35.2562 64.7862 35.0227 64.6816 35.5314L64.5977 36.2201L64.6159 36.4334C64.3273 36.6721 64.4676 36.6162 64.0829 36.6352C63.8952 36.5278 63.8887 36.5623 63.7946 36.4013C63.3013 35.936 62.8339 35.4346 62.3645 34.9441C62.5875 33.9335 63.354 32.3445 63.9831 31.5674Z" fill="#F0EFF0"></path>
<path d="M64.2929 33.0391C64.6922 33.686 64.8301 34.5134 65.0246 34.7765C64.9318 35.2556 64.7871 35.0221 64.6825 35.5308L64.5986 36.2195C64.0603 35.9066 64.0465 34.4627 63.8446 33.7253L64.0834 33.4538L64.2929 33.0391Z" fill="#F0EFF0"></path>
<path d="M64.293 33.0391C64.6923 33.686 64.8301 34.5134 65.0247 34.7765C64.9319 35.2556 64.7872 35.0221 64.6826 35.5308C64.6514 34.8818 64.4641 33.9953 64.0834 33.4538L64.293 33.0391Z" fill="#1B211D"></path>
<path d="M63.8438 33.7256C64.0457 34.4629 64.0595 35.9068 64.5978 36.2198L64.6161 36.433C64.3274 36.6718 64.4677 36.6158 64.083 36.6349C63.8953 36.5275 63.8888 36.5619 63.7948 36.401C63.9914 35.9928 63.5167 34.8521 63.8438 33.7256Z" fill="#1B211D"></path>
<path d="M35.9908 51.1658C38.6497 50.2181 39.9172 50.019 41.7811 52.4318C40.1284 51.2623 39.8617 50.8136 37.8036 51.2976C38.4932 51.7402 39.2164 52.0568 39.2666 52.9733C38.7425 52.9227 37.7076 51.3271 35.9466 51.9851L35.8068 51.8647C35.7719 51.48 35.8036 51.5578 35.9908 51.1658Z" fill="#040304"></path>
<path d="M55.2045 51.2666C55.6163 51.3683 55.5117 51.282 55.7112 51.5491L55.7063 51.8807L55.5437 51.9598C55.0857 52.1126 54.026 52.8755 53.4999 53.1888C54.1035 52.04 54.1314 51.9902 55.2045 51.2666Z" fill="#040304"></path>
<path d="M28.6326 36.5179C29.2054 35.3367 28.7927 34.0804 28.8194 32.8027C29.0083 33.4355 29.2674 34.1923 29.3659 34.847C29.4482 35.3934 29.031 36.0643 29.2078 36.4984C28.9974 36.6427 28.9512 36.5726 28.6326 36.5179Z" fill="#333634"></path>
<path d="M29.8223 51.3064L29.954 51.2468L30.0699 50.9111C30.5523 51.3165 31.5451 51.6331 32.2143 52.051C31.7084 51.9456 30.1636 51.6497 29.8223 51.3064Z" fill="#2C272C"></path>
<path d="M32.1722 50.2008C33.1982 50.1558 34.0073 50.1534 35.0369 50.2C34.4731 50.3475 33.7811 50.5502 33.2156 50.6329C32.8674 50.2296 32.7583 50.2904 32.1722 50.2008Z" fill="#333634"></path>
<path d="M62.8297 50.9346C62.9663 51.0355 63.1824 51.2094 63.3315 51.2702C62.6578 51.5945 61.7928 51.8365 61.0671 52.0623C61.558 51.7096 62.2909 51.2909 62.8297 50.9346Z" fill="#2C272C"></path>
<path d="M43.4104 40.6626C44.6577 40.1215 45.751 38.8742 46.6274 37.8438C47.4868 39.0384 48.4872 40.1782 49.8626 40.7725C50.2364 40.3246 50.8282 40.2978 51.354 40.4539L51.6386 40.7101C53.3825 39.8138 62.935 35.4314 61.8121 41.2638C61.603 41.8796 61.1449 42.6878 61.1749 43.3458C61.2462 44.9263 62.5811 46.4658 60.5198 47.3864C60.1388 47.5567 59.4038 47.6171 59.2174 47.6884C57.9372 48.1785 52.172 46.204 51.7038 46.5599L51.6949 47.0066C50.8299 46.8809 49.7418 44.2813 49.1557 43.6096L48.8902 43.7617L48.5902 43.9129L48.3206 43.7799C48.3206 43.7799 48.4394 42.9692 48.2367 42.9692C48.0341 42.9692 48.3206 42.3072 48.3206 42.3072L48.0341 42.3611L47.6287 42.9692C47.3052 42.6202 46.9898 42.0178 46.4746 42.0129C46.1122 42.0097 45.4607 42.4053 45.2633 42.702C45.4393 43.3093 45.404 44.0106 45.2443 44.619C44.9289 44.3154 45.0777 42.775 44.8174 42.2505L44.637 42.6773L44.2142 42.9963C43.6374 43.5967 43.0816 45.5574 41.966 46.5919C41.3795 46.7678 41.118 46.4067 40.6952 46.4979C38.2537 47.0256 33.6235 48.9329 31.6421 46.6892C31.0738 46.0455 31.8821 43.9692 32.0876 43.0729C31.7438 42.334 31.2533 41.5026 31.1216 40.6979C31.0409 40.2086 31.107 39.7392 31.4147 39.3383C31.7909 38.8482 32.4358 38.5442 33.0216 38.3954C36.8722 37.4161 41.6085 41.67 43.984 41.3279C44.7623 41.216 45.6557 40.6967 46.111 40.0489C46.2577 39.8406 46.2618 39.6217 46.2253 39.3785L46.0351 39.2593C45.2025 40.295 44.8912 40.7385 43.5174 40.8921C43.4055 40.9042 43.294 40.916 43.1817 40.9261C42.5323 40.6699 42.0962 40.4632 41.4739 40.1458C42.0731 40.2974 42.8412 40.4713 43.4104 40.6626Z" fill="#1B1A1A"></path>
<path d="M43.4125 40.6626C44.6599 40.1215 45.7531 38.8742 46.6295 37.8438C47.4889 39.0384 48.4894 40.1782 49.8648 40.7725L49.9706 40.8426C48.6803 41.4049 47.604 39.6496 46.7584 39.1166L46.6194 39.2362C46.3231 39.194 46.225 39.1198 46.0373 39.2593C45.2047 40.295 44.8933 40.7385 43.5195 40.8921C43.4077 40.9042 43.2962 40.916 43.1839 40.9261C42.5345 40.6699 42.0983 40.4632 41.4761 40.1458C42.0752 40.2974 42.8434 40.4713 43.4125 40.6626Z" fill="#1B1A1A"></path>
<path d="M46.6167 39.2348L46.7557 39.1152C47.6013 39.6483 48.6776 41.4035 49.9679 40.8413L49.8621 40.7711C50.2358 40.3232 50.8277 40.2965 51.3534 40.4525L51.638 40.7087C51.2752 40.8761 50.7357 41.1327 50.3651 41.2397C49.5649 41.4631 48.7092 41.3642 47.9812 40.9641C47.2722 40.5672 46.8303 40.0054 46.6167 39.2348Z" fill="#F0EFF0"></path>
<path d="M45.9853 44.6602C46.1005 44.7692 46.2399 45.1762 46.3388 45.3744L46.5042 45.391C46.6724 45.1693 46.732 45.0469 46.9874 44.9382C47.4649 45.1109 48.221 46.6371 48.6977 47.3749C49.5498 48.6927 50.8563 53.7642 47.9636 53.4156C47.5351 53.3641 47.1236 52.6912 46.908 52.2384C46.7868 51.9296 46.7393 51.812 46.5594 51.5189L46.4487 51.5222L46.3895 51.6811C45.6789 53.5753 44.2443 54.4011 43.4295 52.2328C42.5438 49.8756 45.0088 46.5115 45.9853 44.6602Z" fill="#1B1A1A"></path>
<path d="M31.3047 30.3887C31.3676 30.4499 31.3809 30.4645 31.4085 30.55C31.8913 32.0057 32.6951 33.6292 34.1634 34.2806C35.6527 34.9417 38.393 34.1042 39.211 35.8157C37.4128 34.7159 36.1011 35.2425 34.15 34.8473C32.7705 34.568 30.9289 31.6064 31.3047 30.3887Z" fill="#040304"></path>
<path d="M61.8535 30.8008C61.9666 31.2284 60.9447 33.1564 60.6399 33.5617C59.3252 35.31 56.4877 35.1284 54.4296 35.3753C54.3672 35.1751 54.3696 35.2768 54.4503 35.0612C55.5509 34.4993 57.2157 34.73 58.4026 34.4714C60.1271 34.0952 60.9593 32.166 61.8535 30.8008Z" fill="#040304"></path>
<path d="M42.0805 34.6572C42.9038 34.7347 45.2367 37.2313 46.8477 36.9921C48.1777 36.7951 50.1202 34.8137 50.933 34.7371L50.9107 34.9065C50.5694 35.1838 50.2252 35.4578 49.8786 35.7286C49.1785 36.2722 47.1541 37.6885 46.2959 37.5073C45.2404 37.2844 42.676 35.4817 42.0805 34.6572Z" fill="#040304"></path>
<path d="M42.7056 32.5264C43.1138 32.5787 45.4763 34.477 46.4269 34.9545C48.2676 34.282 48.3783 33.6221 49.9868 32.7015C50.211 32.573 50.2049 32.6034 50.3934 32.6682L50.3366 32.8162C49.318 33.5536 47.4046 35.4612 46.3742 35.3984C45.4641 35.3428 43.3051 33.2349 42.7056 32.5264Z" fill="#040304"></path>
<path d="M49.8748 46.7227C50.57 47.0575 51.0001 47.5751 51.9871 47.8755C52.5214 48.0385 53.3127 48.0113 53.5125 48.1508L53.4112 48.2557C52.9057 48.3429 52.309 48.2943 51.7893 48.274C51.8761 48.8229 52.2231 48.7815 52.3195 49.3721L52.2291 49.4641C52.1935 49.4398 52.0151 49.3158 51.992 49.2882C51.5449 48.756 49.9303 47.3044 49.8748 46.7227Z" fill="#1B1A1A"></path>
<path d="M42.8987 46.8066C43.0369 46.8208 43.0333 46.8322 43.1517 46.9096C42.4005 48.0264 41.4714 49.013 40.4012 49.8294C40.7567 49.2036 40.9517 48.9672 41.4049 48.4155C41.173 48.1687 39.5974 48.2607 39.0392 48.2319C41.0036 47.82 41.3871 48.1383 42.8987 46.8066Z" fill="#1B1A1A"></path>
<path d="M44.8179 42.2492L44.8669 42.0486L45.0457 42.04C45.117 42.3258 45.1312 42.5123 45.1588 42.8001L45.2638 42.7008C45.4397 43.308 45.4044 44.0093 45.2447 44.6178C44.9294 44.3141 45.0781 42.7738 44.8179 42.2492Z" fill="#333634"></path>
<path d="M44.2173 42.9948L44.6401 42.6758C44.6637 44.4565 44.4107 45.3115 43.8436 47.0014C43.8302 45.836 44.4646 43.4419 44.2173 42.9948Z" fill="#333634"></path>
<path d="M47.9903 42.3674L47.9412 42.1667L47.7625 42.1582C47.6911 42.444 47.6769 42.6305 47.6494 42.9183L47.5444 42.8189C47.3685 43.4262 47.4037 44.1275 47.5634 44.7359C47.8788 44.4323 47.73 42.8919 47.9903 42.3674Z" fill="#333634"></path>
<path d="M48.5922 43.113L48.1694 42.7939C48.1459 44.5747 48.3989 45.4296 48.966 47.1196C48.9794 45.9542 48.3449 43.5601 48.5922 43.113Z" fill="#333634"></path>
<path d="M31.2669 23.2959L31.3444 23.3713C31.4206 23.872 30.1141 26.1784 29.7983 26.7614L29.7294 26.6106C29.9689 25.4591 30.6228 24.2728 31.2669 23.2959Z" fill="#1B1A1A"></path>
<path d="M61.5168 23.1836C62.2991 23.6029 63.1829 25.8202 63.3324 26.7096C63.0244 26.5381 61.7203 23.6602 61.5168 23.1836Z" fill="#1B211D"></path>
<path d="M32.4977 20.2637L32.5808 20.353C32.5334 20.7971 30.5771 22.9373 30.1575 23.4125L30.0773 23.3032C30.0915 23.0138 32.1483 20.6113 32.4977 20.2637Z" fill="#4D474D"></path>
<path d="M53.0281 16.2522C53.7254 16.2357 56.3647 17.2284 56.94 17.7584C56.5954 17.7991 53.2195 16.5102 53.0281 16.2522Z" fill="#4D474D"></path>
<path d="M54.735 37.04L54.8047 37.0871L54.7796 37.1965C53.8172 37.6461 52.8617 38.1094 51.9128 38.5869L51.7883 38.5646C52.2322 37.7993 53.9181 37.1921 54.735 37.04Z" fill="#1B1A1A"></path>
<path d="M64.6097 25.4111C65.23 25.8918 65.6297 28.6239 65.6207 29.4217C65.416 29.2531 64.6924 25.8889 64.6097 25.4111Z" fill="#1B211D"></path>
<path d="M28.4023 25.1309L28.4952 25.2605C28.3764 26.3894 27.9658 27.9006 27.6771 29.0134C27.3387 28.5375 28.1547 25.6825 28.4023 25.1309Z" fill="#333634"></path>
<path d="M38.1989 37.1254C39.2848 36.9945 40.6177 37.9552 41.5042 38.5263C40.6898 38.4526 38.9946 37.5287 38.1989 37.1254Z" fill="#1B1A1A"></path>
<path d="M39.1991 16.4499C39.3434 16.4169 39.272 16.4188 39.4131 16.4686C39.1192 16.7662 36.792 17.6428 36.2184 17.8678L36.0376 17.7983C36.282 17.4542 38.6855 16.5744 39.1991 16.4499Z" fill="#4D474D"></path>
<path d="M57.4966 19.8643C57.7864 20.0044 60.0524 22.1801 60.1481 22.5129C59.5976 22.2801 57.5971 20.4191 57.4966 19.8643Z" fill="#333634"></path>
<path d="M35.3712 20.041L35.5086 20.1001C35.4121 20.6262 33.7647 21.9684 33.2872 22.3484C33.2515 22.3286 33.2162 22.3089 33.1805 22.2892C33.2949 21.9972 34.9909 20.4506 35.3712 20.041Z" fill="#4D474D"></path>
<path d="M60.1738 20.1465C60.8872 20.4689 62.2732 22.0776 62.6413 22.7453C62.1305 22.6488 60.582 20.6532 60.1738 20.1465Z" fill="#333634"></path>
<path d="M51.1788 65.9198C51.2964 65.7876 52.0556 64.8512 52.0678 64.8407C53.5498 63.5581 54.9877 62.2873 56.3692 60.8896C56.6971 60.5576 57.0295 59.7509 57.3899 59.5908L57.5962 59.6151C57.7211 59.8709 57.7126 59.9358 57.7438 60.2252C57.8605 60.1977 57.8812 60.2256 57.9517 60.1316C58.4601 59.4522 59.9377 59.9642 60.5931 60.2029C59.9899 60.9018 58.4617 62.4332 57.6311 62.8062C57.46 62.7348 57.3753 62.6947 57.1901 62.6546C57.1102 62.852 57.1564 62.929 57.2144 63.1357C56.7401 64.0121 56.171 64.546 55.6772 65.5643C55.5009 65.8407 55.2852 66.242 55.0258 66.4119L54.9711 66.3632C54.9123 66.3535 54.637 66.2031 54.5649 66.1658C54.4794 66.388 54.1182 66.9936 53.988 67.2802C53.474 68.4111 53.5089 69.2401 53.4351 70.4371C51.0588 72.434 49.1143 71.939 46.4984 71.0578C44.1242 72.0655 41.7536 72.2678 39.7004 70.4165C39.5877 70.0127 39.5228 69.3812 39.4624 68.9397C39.2642 67.4873 38.8848 66.7094 38.1612 65.4666C38.1178 65.5841 38.0015 65.8731 37.9768 65.983C37.9873 66.1476 37.9743 66.1581 37.9447 66.3174C37.7939 66.2266 36.4972 64.034 36.1542 63.5788L35.7403 63.5553C35.3544 63.3558 32.636 60.4165 32.5732 60.0266C32.786 59.8896 32.8424 59.892 33.0961 59.8389C33.7029 59.8186 34.328 59.7376 34.9697 59.7169L35.1444 59.8077C35.7792 59.5864 35.7189 59.5041 36.1457 60.0914C36.7493 60.9216 37.3448 61.5889 38.115 62.2743C38.1908 62.0806 38.3578 61.8572 38.4782 61.6797L38.721 62.2662C39.0287 62.5463 38.8252 62.9055 39.2508 63.3133C39.7361 63.7774 40.2359 63.7981 40.7544 64.1795C41.2201 64.6336 41.3697 65.4451 42.1431 65.5983C42.6113 65.4731 42.8615 65.1877 43.1983 65.2152L43.1318 65.3121C43.3787 65.591 43.7553 66.045 44.0318 66.2655C44.1805 66.1597 44.9945 65.5768 45.0959 65.5679C46.0278 65.5075 47.113 65.5728 48.0401 65.6267C48.5508 65.6563 48.6493 66.5416 49.4661 65.8213C50.1942 65.1796 50.405 65.6085 51.1788 65.9198Z" fill="white"></path>
<path d="M38.478 61.6797L38.7208 62.2663C39.0285 62.5464 38.825 62.9055 39.2507 63.3133C39.7359 63.7774 40.2357 63.7981 40.7542 64.1796C41.2199 64.6336 41.3695 65.4451 42.143 65.5983C42.6112 65.4731 42.8613 65.1877 43.1981 65.2153L43.1317 65.3122C41.8398 66.4184 41.3266 65.3466 40.6739 64.3304C39.3094 63.8119 39.0974 63.3644 38.1148 62.2744C38.1906 62.0806 38.3576 61.8572 38.478 61.6797Z" fill="#040304"></path>
<path d="M54.5658 66.1653C55.0441 65.2605 55.5192 64.3318 56.0559 63.4619C55.8662 64.2807 55.7243 64.6273 55.3741 65.3619L55.6781 65.5637C55.5018 65.8402 55.2861 66.2415 55.0267 66.4113L54.972 66.3627C54.9132 66.353 54.638 66.2026 54.5658 66.1653Z" fill="#1B1A1A"></path>
<path d="M55.3733 65.3623L55.6773 65.5642C55.501 65.8406 55.2854 66.2419 55.0259 66.4118L54.9712 66.3631C55.0259 66.0928 55.2525 65.6319 55.3733 65.3623Z" fill="#B6B6B7"></path>
<path d="M37.2155 63.9346C37.6043 64.5025 37.8374 64.8576 38.16 65.4681C38.1167 65.5856 38.0003 65.8746 37.9756 65.9845C37.7822 65.627 37.3732 64.3833 37.2155 63.9346Z" fill="#333634"></path>
<path d="M35.7415 63.5558C35.7411 63.0483 35.4346 63.0166 35.4614 62.6396C35.9081 62.7836 36.0686 63.1561 36.1554 63.5793L35.7415 63.5558Z" fill="#4A524F"></path>
<path d="M46.6035 69.7383C47.3425 70.1108 48.2327 70.5924 48.998 70.8624C48.8723 70.971 48.6579 71.1708 48.5249 71.2487L46.4401 70.716C45.6683 70.9556 44.9881 71.1275 44.2013 71.3172L43.9203 70.9795C44.4765 70.8141 45.8892 70.0472 46.6035 69.7383Z" fill="#040304"></path>
<path d="M48.9989 70.8613C49.5895 71.0121 50.7035 71.0287 50.9163 71.1491C50.564 71.4921 49.0516 71.3238 48.5258 71.2476C48.6588 71.1698 48.8732 70.97 48.9989 70.8613Z" fill="#2C272C"></path>
<path d="M44.2021 71.317C43.7205 71.3657 42.3264 71.4873 41.9965 71.1079C42.3285 70.936 43.4534 70.9862 43.9212 70.9794L44.2021 71.317Z" fill="#2C272C"></path>
<path d="M32.5124 59.2788C32.2894 58.8439 32.9563 55.6172 33.9531 55.8434C34.4513 56.4287 34.2685 57.6087 34.4164 58.447L34.4334 58.5399C34.4541 58.1503 34.4541 57.4721 34.6025 57.1414C34.8068 57.3169 34.8429 57.7486 34.9041 58.0437C34.975 58.5617 34.8948 58.6598 35.1891 58.9655L35.5965 59.0591L35.5839 59.3255C35.3265 59.5399 35.2746 59.5784 34.971 59.7174C34.3293 59.7381 33.7042 59.8192 33.0973 59.8395C32.8809 59.7726 32.6579 59.8403 32.2866 59.7215L32.24 59.5492L32.5124 59.2788Z" fill="white"></path>
<path d="M34.4334 58.5391C34.4541 58.1496 34.4541 57.4714 34.6025 57.1406C34.8068 57.3161 34.8429 57.7479 34.9041 58.043C34.975 58.561 34.8948 58.6591 35.1891 58.9648L35.5965 59.0584L35.5839 59.3247C35.3265 59.5392 35.2746 59.5777 34.971 59.7167C34.3293 59.7374 33.7042 59.8185 33.0973 59.8387C32.8809 59.7718 32.6579 59.8395 32.2866 59.7208L32.24 59.5485L32.5124 59.2781C33.0982 59.0799 34.0406 59.1034 34.4278 58.8744L34.4334 58.5391Z" fill="#040304"></path>
<path d="M59.2168 55.6758C59.9638 55.8667 60.8488 58.7136 60.5699 59.2738L60.338 59.2588C59.7782 59.2057 59.1466 59.0893 58.586 58.9998C58.7875 57.7411 58.5426 56.6981 59.2168 55.6758Z" fill="white"></path>
<path d="M38.8671 60.0315C38.2619 59.5524 38.1857 58.8774 38.5506 58.2293C38.8408 58.0258 38.7131 58.0529 39.0265 58.0995L39.1375 58.2872L39.3532 58.2143L39.5887 58.3691C40.0674 58.9995 40.1927 60.0449 39.6896 60.6781L39.4878 60.7283C39.2802 60.5208 39.2672 60.4186 39.1728 60.1458C39.0127 60.1223 39.0188 60.1073 38.8671 60.0315Z" fill="#F0EFF0"></path>
<path d="M38.8671 60.0315C38.2619 59.5524 38.1857 58.8774 38.5506 58.2293C38.8408 58.0258 38.7131 58.0529 39.0265 58.0995L39.1375 58.2872C38.7926 59.1515 39.0812 59.6399 38.8671 60.0315Z" fill="#F0EFF0"></path>
<path d="M39.14 58.2868L39.3557 58.2139L39.5912 58.3687C39.1327 59.057 39.3909 59.5426 39.1753 60.1454C39.0152 60.1219 39.0212 60.1069 38.8696 60.0311C39.0837 59.6395 38.795 59.1511 39.14 58.2868Z" fill="#1B211D"></path>
<path d="M51.7827 62.7139C52.0158 63.2262 51.6015 64.5931 51.0543 64.9251C50.1774 64.9409 50.1872 63.5972 50.1564 62.9757C50.7867 62.9405 51.1868 62.9498 51.7827 62.7139Z" fill="#F0EFF0"></path>
<path d="M34.9029 58.043C34.8968 57.4682 34.8165 55.5513 34.9475 55.0879L35.0622 55.0547C35.6309 55.7872 35.8166 58.1821 35.5952 59.0585L35.1879 58.9648C34.8936 58.6592 34.9738 58.5611 34.9029 58.043Z" fill="#F0EFF0"></path>
<path d="M58.0747 54.793L58.2186 54.9563C58.2194 56.0435 58.204 57.2547 58.1116 58.3379C58.0702 58.8247 58.0021 58.875 57.6863 59.1214C57.617 59.0469 57.5319 58.9188 57.4695 58.8324C57.3499 57.5778 57.4407 55.902 58.0747 54.793Z" fill="#F0EFF0"></path>
<path d="M58.0273 53.1826L59.723 53.8211C59.3452 53.95 58.9698 54.0841 58.5961 54.224C58.0387 54.1214 57.4947 54.0505 56.934 53.9755C56.8112 54.3768 56.7974 54.5767 56.4975 54.8045L56.3276 54.7096L56.2818 54.3999C56.7115 53.3979 57.221 54.2426 58.0273 53.1826Z" fill="#F0EFF0"></path>
<path d="M55.7058 51.8805C56.2372 51.8623 56.844 51.7707 57.2462 52.0913C57.0686 52.4375 56.3313 52.5709 55.9425 52.6844L55.5432 51.9596L55.7058 51.8805Z" fill="#F0EFF0"></path>
<path d="M38.4783 61.6805L38.473 61.6111C38.4366 61.1628 38.261 60.7408 38.3936 60.4023C38.666 60.4246 38.5638 60.391 38.7957 60.6176C38.9623 61.0939 39.0183 61.8353 38.7211 62.267L38.4783 61.6805Z" fill="white"></path>
<path d="M39.4799 61.0547L39.7385 61.2959C39.9213 61.91 39.7612 62.377 39.6153 62.9927L39.3672 62.7292C39.2026 62.0843 39.3161 61.7 39.4799 61.0547Z" fill="white"></path>
<path d="M54.4206 60.2842L54.6537 60.3624C54.8374 60.9101 54.7044 61.3629 54.4847 61.8671L54.3728 61.9275L54.2459 61.1808C54.1815 60.799 54.2751 60.6433 54.4206 60.2842Z" fill="white"></path>
<path d="M35.8799 53.6162C36.5204 53.7573 36.9322 54.3353 36.8134 54.9904C36.4093 54.823 36.0339 54.0187 35.8799 53.6162Z" fill="#F0EFF0"></path>
<path d="M65.6034 32.7817L65.937 32.3975C66.0294 32.8426 66.181 33.5434 65.8981 33.9399L65.7485 33.9164C65.5175 33.4648 65.7927 33.106 65.6034 32.7817Z" fill="#B6B6B7"></path>
<path d="M7.47898 66.5411C6.91678 65.1385 5.55271 64.3197 5.69962 62.6873C5.7982 61.592 6.5352 60.444 7.35928 59.75C8.19831 59.0463 9.28414 58.707 10.3747 58.8087C11.3797 58.8959 12.5271 59.448 13.1856 60.2299C13.4751 60.2417 14.8834 59.0195 15.5505 58.8866C18.8843 58.2222 22.6206 61.2417 20.7607 64.6967C24.1508 62.2037 26.6775 60.8968 30.6639 59.6462L31.0247 59.7857C31.0563 60.0467 30.9999 60.0633 30.8856 60.3268C29.6764 60.8112 28.633 61.0557 27.3224 61.6503C25.4099 62.5182 23.9931 63.44 22.2018 64.4672L22.4422 64.4786C26.7002 64.7023 28.6735 69.6218 25.4448 72.4586C28.2369 74.9965 27.08 79.6562 23.3595 80.4848C21.7964 80.833 20.4636 79.3554 19.2538 78.4563C20.0246 79.627 21.2824 80.5979 21.2893 82.1184C21.31 84.5575 18.7439 86.3115 16.4721 86.2478C15.0335 86.2073 14.2359 85.6159 13.3009 84.6365C10.9477 87.2612 7.09627 86.581 5.91134 83.2011C5.16676 81.0774 6.64137 80.2525 7.48336 78.5865C6.53569 79.4077 5.25464 80.7065 3.965 80.5261C0.00769877 79.9728 -1.31867 75.1887 1.56282 72.5283C0.927158 71.8898 0.481251 71.3698 0.200329 70.4885C-0.609477 67.9489 1.19721 64.6748 3.99763 64.5345C5.52113 64.4583 6.45324 65.5791 7.47898 66.5411Z" fill="#040304"></path>
<path d="M22.3633 65.2999C24.5454 65.0085 26.1588 67.0057 26.2885 69.052C26.3935 70.7022 25.4425 71.4019 24.4072 72.5191C24.6265 72.7939 24.9419 73.149 25.1924 73.3963C26.8625 75.0635 26.5674 77.5444 24.7777 78.9915C23.1696 80.2919 22.4331 79.9778 20.9097 78.8371C19.2437 77.5253 17.5254 76.1775 16.0207 74.6829C15.2962 73.963 14.61 73.2134 13.8386 72.5426C16.0489 70.4359 19.6709 66.7244 22.3633 65.2999Z" fill="white"></path>
<path d="M13.3074 73.0596C14.1761 74.0101 15.4695 75.2173 16.2582 76.0913C17.1726 77.1047 19.8878 80.2783 20.3742 81.3193C20.521 81.6326 20.5883 81.9776 20.5696 82.3234C20.4748 84.2253 18.1211 85.61 16.3754 85.4775C15.0095 85.3737 14.3701 84.7466 13.5251 83.807C13.5158 83.6302 13.5268 83.7146 13.3913 83.5362C13.0917 83.6189 12.7927 84.1041 12.5615 84.3554C9.9763 87.1654 5.119 84.4345 6.87303 80.7639C8.36621 77.6394 11.0225 75.525 13.3074 73.0596Z" fill="white"></path>
<path d="M9.8661 59.5441C11.6142 59.6264 12.0806 60.1716 13.2545 61.4485C15.1776 59.5863 17.0219 58.5193 19.5136 60.7286C19.9147 61.0841 20.6638 62.2301 20.5758 62.7712C20.2455 64.8049 17.5016 67.3984 16.111 68.7544C15.2279 69.6312 14.0362 71.0115 13.3288 72.022C11.3497 69.6596 7.25215 66.5893 6.51089 63.134C6.34396 62.3557 6.90094 61.1631 7.40992 60.5697C8.11976 59.7419 8.85129 59.6495 9.8661 59.5441Z" fill="white"></path>
<path d="M3.58844 65.2892C5.62004 65.0695 6.69605 66.9427 8.09198 68.057C9.75772 69.3866 11.1834 71.1986 12.7771 72.5335C11.8361 73.3106 11.0534 74.2733 10.1695 75.0601C8.8799 76.2081 7.7385 77.2458 6.51607 78.468C5.856 79.0611 5.15925 79.6622 4.23071 79.7319C1.90324 79.9066 0.389755 77.155 0.818191 75.1007C1.07463 73.8712 1.87543 73.1184 2.88918 72.4739C-0.414499 70.6502 0.215972 66.5681 3.58844 65.2892Z" fill="white"></path>
<path d="M79.1871 60.2222C81.6477 57.4386 86.579 59.1188 86.9239 62.7431C87.0622 64.1964 85.6337 65.4753 84.829 66.6282C86.0812 65.7408 87.4594 64.1587 89.145 64.579C92.6652 65.4575 93.8995 69.9724 91.0547 72.4905C91.9927 73.4204 92.6182 74.339 92.6356 75.7261C92.6522 77.0517 92.1451 78.3302 91.2245 79.284C90.4847 80.038 89.5982 80.49 88.5272 80.5224C86.9037 80.5715 86.0929 79.1871 84.737 78.4283C85.6722 79.5382 87.1019 80.8564 86.9199 82.4102C86.6317 84.8716 83.9781 86.4509 81.6505 86.2514C80.3878 86.1756 79.7736 85.0856 79.121 84.9234C76.3401 87.5502 71.8296 86.0216 71.3269 82.1953C71.1717 81.0133 72.6432 79.4344 73.4012 78.556C72.5564 78.9516 71.5884 79.9148 70.7201 80.4608C70.4213 80.4782 70.1064 80.4993 69.8137 80.5005C66.5671 80.5151 64.5378 76.348 66.2225 73.673C66.428 73.3463 66.5809 73.1371 66.8391 72.861C66.951 72.7419 67.0645 72.6243 67.1804 72.5088C63.9289 69.3534 66.0207 64.5807 70.4724 64.4558C67.6206 63.0176 66.6919 62.1396 63.3168 60.8606C63.329 60.6182 63.3991 60.6267 63.6103 60.4143L63.5961 60.3292L63.8037 60.2433C66.8744 61.3187 69.2519 62.7861 71.8405 64.7205C69.4991 60.4877 75.9149 56.6866 79.1871 60.2222Z" fill="#040304"></path>
<path d="M87.9569 65.2833C91.3688 64.9124 93.8177 69.8882 89.8824 72.4384L89.9051 72.6188C90.7592 73.0091 91.7162 74.2512 91.8602 75.1961C92.0288 76.3039 91.6632 77.5594 90.9931 78.4552C90.4483 79.1897 89.627 79.6701 88.7194 79.784C87.7801 79.893 87.1794 79.3158 86.4854 78.7706C85.1318 77.7316 83.7925 76.6854 82.5346 75.5285C81.5382 74.6119 80.539 73.4214 79.5142 72.5734C81.4381 70.5652 85.5145 66.5789 87.9569 65.2833Z" fill="white"></path>
<path d="M69.2413 65.2985C69.3973 65.277 69.5542 65.2588 69.7119 65.2551C71.6147 65.2109 77.1671 71.0271 78.7273 72.5347C77.7954 73.3859 76.8647 74.4605 75.9222 75.3471C74.7624 76.4379 73.648 77.3244 72.3906 78.2908C71.2572 79.1964 70.108 80.3416 68.5813 79.5199C67.5744 78.9735 66.8326 78.0423 66.5249 76.9389C66.1617 75.6827 66.379 74.2242 67.4118 73.3563C67.6251 73.1772 68.2647 72.6822 68.373 72.4828C67.8176 72.0811 66.7677 71.1362 66.5687 70.5082C65.8402 68.2078 67.0211 66.0436 69.2413 65.2985Z" fill="white"></path>
<path d="M79.1811 73.2539C80.9821 75.6334 85.4051 79.1686 86.2953 82.045C85.7197 84.5376 83.2315 86.2969 80.7928 85.2336C80.0469 84.9122 79.4604 84.3058 79.1636 83.5497C79.0007 83.7865 78.8795 84.0313 78.6906 84.251C78.0671 84.9803 77.1729 85.4233 76.215 85.4781C75.0953 85.5324 73.8715 85.0682 73.0571 84.3017C72.4989 83.7759 72.0794 83.043 72.0709 82.2607C72.0478 80.1755 77.564 74.9443 79.1811 73.2539Z" fill="white"></path>
<path d="M75.7786 59.5349C77.2647 59.3565 78.2331 60.2819 79.0787 61.3351L79.2016 61.3209C80.6082 58.6439 84.5524 59.1948 85.8427 61.6577C86.1224 62.192 86.182 62.6286 86.2878 63.2095C85.7154 64.5743 82.9415 67.7601 81.866 69.0066C81.0723 69.8619 79.8343 70.8019 79.2895 71.8097C78.7256 71.243 77.786 70.1935 77.2898 69.5551C75.8224 67.6677 70.5173 64.0048 72.6062 61.2986C73.4412 60.2171 74.5289 59.742 75.7786 59.5349Z" fill="white"></path>
<path d="M7.49014 7.59824C6.81807 6.32544 5.51578 5.46696 5.71591 3.90695C6.20665 0.0818992 10.6951 -1.38706 13.256 1.56869C15.8189 -1.21539 20.4134 -0.0427095 21.2428 3.53957C21.6247 5.18709 20.2051 6.39021 19.3303 7.59451C20.6263 6.91131 21.529 5.50016 23.1736 5.72031C26.931 6.22345 28.3725 11.2122 25.4384 13.662L25.5166 13.7365C26.4644 14.6453 27.0137 15.5645 27.0311 16.9168C27.0416 18.2324 26.5268 19.4979 25.6005 20.4326C24.4866 21.5514 23.5749 21.7195 22.1213 21.7366C23.596 22.4329 25.0253 23.4858 26.665 24.2713C26.4984 24.4983 26.3821 24.7119 26.1348 24.8269C24.3747 24.0195 22.4606 22.7313 20.8115 21.661C21.6405 23.2461 21.3304 24.7953 20.0324 26.0345C19.0557 26.953 17.7539 27.4455 16.4139 27.4034C15.0141 27.3483 14.2191 26.8144 13.3186 25.8468C10.8407 28.4772 6.8623 27.6571 5.83846 24.1635C5.30742 22.3513 6.6541 21.216 7.49241 19.7685C6.56212 20.4854 5.94924 21.0713 4.93075 21.694C1.84605 21.765 -0.105559 19.6928 0.00441787 16.5212C0.0404958 15.4798 0.82075 14.378 1.62642 13.7374C-1.17343 11.3095 -0.156838 6.72671 3.46806 5.77447C5.18865 5.32249 6.21172 6.6897 7.49014 7.59824Z" fill="#040304"></path>
<path d="M22.5024 6.4043C24.9861 6.48659 26.3968 8.4706 26.2432 10.8445C26.1524 12.2525 25.218 12.8615 24.3003 13.668C24.9172 14.297 26.0981 15.398 26.2493 16.2888C26.6238 18.4923 24.7166 21.5659 22.2134 20.8419C21.9175 20.7563 21.1842 20.1707 20.9085 19.9615C19.494 18.8787 18.1595 17.8119 16.8348 16.6188C15.9342 15.8078 14.7231 14.3586 13.7944 13.7405C15.7386 11.8874 20.0698 7.47121 22.5024 6.4043Z" fill="white"></path>
<path d="M9.33428 0.739529C11.314 0.609528 11.9355 1.08636 13.1169 2.55637C13.1762 2.57948 13.2355 2.60258 13.2949 2.62569C13.6239 2.30407 14.3853 1.48078 14.7248 1.25272C15.1535 0.964709 15.8474 0.784322 16.2793 0.734098C17.3409 0.615083 18.4378 0.982504 19.2573 1.65472C19.7106 2.02652 20.0392 2.46865 20.2958 2.98958C20.5321 3.4697 20.5775 4.00648 20.633 4.53122C20.2147 5.46591 17.3916 8.8764 16.6181 9.78555C15.5686 10.9568 14.2773 11.9968 13.3247 13.2385C12.7116 12.443 11.8004 11.6857 11.0662 10.9109C9.49225 9.18776 7.31911 7.06641 6.60505 4.79548C5.98536 2.82472 7.53367 1.21275 9.33428 0.739529Z" fill="white"></path>
<path d="M13.2257 14.2783C15.384 16.6628 18.1486 19.3313 19.9878 21.8707C22.4476 25.2668 16.0115 28.9026 13.4527 24.8184L13.4154 24.7101L13.2667 24.6689C12.5829 25.731 11.6892 26.4724 10.3894 26.6301C9.60751 26.7246 8.35407 26.6139 7.72789 26.0237C7.2556 25.5784 6.50667 24.1655 6.44238 23.4762C6.69886 20.231 11.4897 16.3374 13.2257 14.2783Z" fill="white"></path>
<path d="M3.83274 6.41504C5.48215 6.42392 6.56947 7.8589 7.73025 8.88168C9.48935 10.4317 11.1283 12.0904 12.7853 13.7477C11.8476 14.4461 10.9368 15.5525 10.0629 16.3509C8.86378 17.4465 7.68192 18.5476 6.49991 19.6622C5.61535 20.4284 4.76598 21.2212 3.50569 20.8826C1.46801 20.3445 0.306713 17.9487 0.877433 15.9771C1.15507 15.018 1.89219 14.2245 2.7729 13.7702L2.72462 13.6039C2.64638 13.5664 2.56904 13.527 2.49267 13.4858C-0.423723 11.9034 0.390907 7.3415 3.83274 6.41504Z" fill="white"></path>
<path d="M79.1445 1.39439C82.1094 -1.95663 88.3342 1.28632 86.5847 5.59465C86.6272 5.84533 86.5689 5.92648 86.4586 6.15117C86.8737 5.98591 87.0111 5.92304 87.4521 5.86624C91.5962 4.85668 94.6369 10.4171 91.0356 13.6837C93.9879 16.4388 92.6243 21.1605 88.5446 21.6836C87.1923 21.857 85.917 20.2821 84.7285 19.6341C85.4626 20.4931 86.6917 21.7597 86.8587 22.7541C87.3281 25.5493 84.3077 27.6137 81.7794 27.4438C80.8167 27.379 79.967 26.6529 79.17 26.1633C79.0691 26.2265 78.5827 26.5504 78.5044 26.5954C78.2713 26.7287 78.0415 26.9104 77.8279 27.0186C75.4937 28.1994 71.858 26.6347 71.4348 23.9546C71.301 23.1076 71.4246 22.4815 71.6898 21.7434L71.5771 21.6827L71.3375 21.8827C70.9747 21.9866 70.89 22.0234 70.5174 22.0673C69.4059 22.198 67.0698 24.5144 65.9862 24.2252L65.7726 23.9535L65.863 23.8892L66.0413 23.9503L66.1885 24.0902C66.8026 24.1012 69.6978 22.1202 70.421 21.6197C66.049 22.0363 63.9265 16.503 67.1975 13.7092C63.1944 9.96553 67.7929 3.20499 72.0497 6.72525C72.4973 7.09527 72.9679 7.45259 73.4223 7.81094C72.6035 6.49245 71.2467 5.6576 71.3334 3.91227C71.3841 2.89817 71.8296 2.06583 72.567 1.38142C73.5686 0.452364 74.9011 -0.0358561 76.266 0.0261645C77.463 0.0913065 78.3463 0.518926 79.1445 1.39439Z" fill="#040304"></path>
<path d="M86.5858 5.59473C86.6284 5.8454 86.57 5.92656 86.4598 6.15125C86.8749 5.98598 87.0123 5.92311 87.4533 5.86632C86.5214 6.4104 85.893 7.12558 84.9291 7.66139C85.2376 7.23795 86.2388 5.82542 86.5858 5.59473Z" fill="#F0EFF0"></path>
<path d="M88.0976 6.40818C88.2484 6.4004 88.3647 6.4049 88.5151 6.41641C89.4568 6.48832 90.3287 6.94128 90.9287 7.67053C92.3118 9.32782 92.2097 11.7408 90.5817 13.1618C90.5667 13.2179 89.8131 13.6886 89.9197 13.757C93.0625 15.7737 92.341 19.9994 88.822 20.9765C88.0538 21.1899 87.0428 20.3991 86.4149 19.9129C85.0918 18.8623 83.6993 17.7789 82.4524 16.6429C81.4747 15.7525 80.5095 14.5582 79.5054 13.7169C81.3778 11.7866 85.7067 7.53582 88.0976 6.40818Z" fill="white"></path>
<path d="M69.5053 6.41734C69.522 6.41592 69.5382 6.41422 69.5548 6.41305C71.6635 6.26051 77.0306 12.1926 78.7251 13.6703C77.7343 14.5894 76.7594 15.7726 75.7728 16.6639C74.6993 17.6338 73.3896 18.6398 72.2473 19.5504C70.8804 20.6543 69.7068 21.6472 67.9937 20.3463C66.3844 19.1242 65.7723 16.5874 67.0074 14.8836C67.2673 14.525 68.0797 14.1615 68.3808 13.7991C68.4769 13.6835 67.7724 13.2966 67.7096 13.1687C65.2668 10.901 66.2474 7.23216 69.5053 6.41734Z" fill="white"></path>
<path d="M75.506 0.748775C77.1352 0.596925 78.2569 1.20623 79.1507 2.55593L79.2589 2.51876C79.6185 1.53871 80.7677 0.871964 81.7836 0.730655C83.9941 0.423024 87.156 2.65338 85.8912 5.09821C85.4064 6.03541 84.4996 6.97829 83.8388 7.81978C83.264 8.55187 82.6345 9.29016 82.0386 10.0157C81.105 11.0306 80.0219 11.914 79.1742 13.0133C77.8527 11.4183 76.0196 10.0273 74.7975 8.29763C73.6592 6.68728 71.0117 4.71388 72.5306 2.56485C73.3097 1.4623 74.2247 1.00687 75.506 0.748775Z" fill="white"></path>
<path d="M79.1807 14.458C80.4297 15.4223 85.3221 21.095 85.9609 22.3949C86.2491 22.9809 86.2471 23.6522 86.0217 24.2586C85.6857 25.1627 84.8883 25.8653 84.0233 26.2528C83.0394 26.6935 81.8922 26.7843 80.878 26.3919C80.0673 26.0785 79.5455 25.5584 79.1888 24.7747C79.1203 24.8833 79.0498 24.9904 78.9764 25.0959C77.1445 27.717 72.788 26.8443 72.1184 23.7188C72.045 23.3764 72.1735 22.6618 72.3531 22.3575C74.1436 19.3291 77.0298 17.2229 79.1807 14.458Z" fill="white"></path>
</svg><style>@media (prefers-color-scheme: light) { :root { filter: none; } }
@media (prefers-color-scheme: dark) { :root { filter: none; } }
</style></svg>